<ttFont>
    <TTGlyph name=".notdef" xMin="99" yMin="-220" xMax="600" yMax="1030">
      <contour>
        <pt x="99" y="1030" on="1"/>
        <pt x="600" y="1030" on="1"/>
        <pt x="600" y="-220" on="1"/>
        <pt x="99" y="-220" on="1"/>
      </contour>
      <contour>
        <pt x="551" y="-172" on="1"/>
        <pt x="551" y="983" on="1"/>
        <pt x="148" y="983" on="1"/>
        <pt x="148" y="-172" on="1"/>
      </contour>
    </TTGlyph>
    <TTGlyph name="A" xMin="10" yMin="0" xMax="601" yMax="740">
      <contour>
        <pt x="10" y="6" on="1"/>
        <pt x="269" y="740" on="1"/>
        <pt x="342" y="740" on="1"/>
        <pt x="601" y="6" on="1"/>
        <pt x="601" y="0" on="1"/>
        <pt x="552" y="0" on="1"/>
        <pt x="467" y="241" on="1"/>
        <pt x="144" y="241" on="1"/>
        <pt x="59" y="0" on="1"/>
        <pt x="10" y="0" on="1"/>
      </contour>
      <contour>
        <pt x="452" y="286" on="1"/>
        <pt x="348" y="578" on="1"/>
        <pt x="308" y="696" on="1"/>
        <pt x="303" y="696" on="1"/>
        <pt x="263" y="578" on="1"/>
        <pt x="159" y="286" on="1"/>
      </contour>
    </TTGlyph>
    <TTGlyph name="A.sc" xMin="16" yMin="0" xMax="533" yMax="577">
      <contour>
        <pt x="16" y="5" on="1"/>
        <pt x="239" y="577" on="1"/>
        <pt x="311" y="577" on="1"/>
        <pt x="533" y="5" on="1"/>
        <pt x="533" y="0" on="1"/>
        <pt x="485" y="0" on="1"/>
        <pt x="413" y="182" on="1"/>
        <pt x="136" y="182" on="1"/>
        <pt x="64" y="0" on="1"/>
        <pt x="16" y="0" on="1"/>
      </contour>
      <contour>
        <pt x="399" y="223" on="1"/>
        <pt x="312" y="445" on="1"/>
        <pt x="277" y="537" on="1"/>
        <pt x="272" y="537" on="1"/>
        <pt x="238" y="445" on="1"/>
        <pt x="149" y="223" on="1"/>
      </contour>
    </TTGlyph>
    <TTGlyph name="AE" xMin="9" yMin="0" xMax="758" yMax="740">
      <contour>
        <pt x="9" y="6" on="1"/>
        <pt x="292" y="740" on="1"/>
        <pt x="748" y="740" on="1"/>
        <pt x="748" y="695" on="1"/>
        <pt x="423" y="695" on="1"/>
        <pt x="436" y="398" on="1"/>
        <pt x="718" y="398" on="1"/>
        <pt x="718" y="353" on="1"/>
        <pt x="438" y="353" on="1"/>
        <pt x="453" y="45" on="1"/>
        <pt x="758" y="45" on="1"/>
        <pt x="758" y="0" on="1"/>
        <pt x="404" y="0" on="1"/>
        <pt x="394" y="241" on="1"/>
        <pt x="151" y="241" on="1"/>
        <pt x="58" y="0" on="1"/>
        <pt x="9" y="0" on="1"/>
      </contour>
      <contour>
        <pt x="169" y="287" on="1"/>
        <pt x="392" y="287" on="1"/>
        <pt x="376" y="695" on="1"/>
        <pt x="327" y="695" on="1"/>
      </contour>
    </TTGlyph>
    <TTGlyph name="AE.sc" xMin="19" yMin="0" xMax="672" yMax="577">
      <contour>
        <pt x="19" y="5" on="1"/>
        <pt x="263" y="577" on="1"/>
        <pt x="663" y="577" on="1"/>
        <pt x="663" y="535" on="1"/>
        <pt x="385" y="535" on="1"/>
        <pt x="396" y="313" on="1"/>
        <pt x="637" y="313" on="1"/>
        <pt x="637" y="272" on="1"/>
        <pt x="398" y="272" on="1"/>
        <pt x="410" y="43" on="1"/>
        <pt x="672" y="43" on="1"/>
        <pt x="672" y="0" on="1"/>
        <pt x="362" y="0" on="1"/>
        <pt x="354" y="182" on="1"/>
        <pt x="145" y="182" on="1"/>
        <pt x="67" y="0" on="1"/>
        <pt x="19" y="0" on="1"/>
      </contour>
      <contour>
        <pt x="163" y="223" on="1"/>
        <pt x="352" y="223" on="1"/>
        <pt x="338" y="536" on="1"/>
        <pt x="298" y="536" on="1"/>
      </contour>
    </TTGlyph>
    <TTGlyph name="AEacute" xMin="9" yMin="0" xMax="758" yMax="927">
      <contour>
        <pt x="460" y="799" on="1"/>
        <pt x="538" y="927" on="1"/>
        <pt x="591" y="927" on="1"/>
        <pt x="502" y="794" on="1"/>
      </contour>
      <contour>
        <pt x="9" y="6" on="1"/>
        <pt x="292" y="740" on="1"/>
        <pt x="748" y="740" on="1"/>
        <pt x="748" y="695" on="1"/>
        <pt x="423" y="695" on="1"/>
        <pt x="436" y="398" on="1"/>
        <pt x="718" y="398" on="1"/>
        <pt x="718" y="353" on="1"/>
        <pt x="438" y="353" on="1"/>
        <pt x="453" y="45" on="1"/>
        <pt x="758" y="45" on="1"/>
        <pt x="758" y="0" on="1"/>
        <pt x="404" y="0" on="1"/>
        <pt x="394" y="241" on="1"/>
        <pt x="151" y="241" on="1"/>
        <pt x="58" y="0" on="1"/>
        <pt x="9" y="0" on="1"/>
      </contour>
      <contour>
        <pt x="169" y="287" on="1"/>
        <pt x="392" y="287" on="1"/>
        <pt x="376" y="695" on="1"/>
        <pt x="327" y="695" on="1"/>
      </contour>
    </TTGlyph>
    <TTGlyph name="AEacute.sc" xMin="19" yMin="0" xMax="672" yMax="728">
      <contour>
        <pt x="19" y="5" on="1"/>
        <pt x="263" y="577" on="1"/>
        <pt x="663" y="577" on="1"/>
        <pt x="663" y="535" on="1"/>
        <pt x="385" y="535" on="1"/>
        <pt x="396" y="313" on="1"/>
        <pt x="637" y="313" on="1"/>
        <pt x="637" y="272" on="1"/>
        <pt x="398" y="272" on="1"/>
        <pt x="410" y="43" on="1"/>
        <pt x="672" y="43" on="1"/>
        <pt x="672" y="0" on="1"/>
        <pt x="362" y="0" on="1"/>
        <pt x="354" y="182" on="1"/>
        <pt x="145" y="182" on="1"/>
        <pt x="67" y="0" on="1"/>
        <pt x="19" y="0" on="1"/>
      </contour>
      <contour>
        <pt x="352" y="223" on="1"/>
        <pt x="338" y="536" on="1"/>
        <pt x="298" y="536" on="1"/>
        <pt x="163" y="223" on="1"/>
      </contour>
      <contour>
        <pt x="408" y="625" on="1"/>
        <pt x="474" y="728" on="1"/>
        <pt x="526" y="728" on="1"/>
        <pt x="448" y="621" on="1"/>
      </contour>
    </TTGlyph>
    <TTGlyph name="Aacute" xMin="10" yMin="0" xMax="601" yMax="927">
      <contour>
        <pt x="10" y="6" on="1"/>
        <pt x="269" y="740" on="1"/>
        <pt x="342" y="740" on="1"/>
        <pt x="601" y="6" on="1"/>
        <pt x="601" y="0" on="1"/>
        <pt x="552" y="0" on="1"/>
        <pt x="467" y="241" on="1"/>
        <pt x="144" y="241" on="1"/>
        <pt x="59" y="0" on="1"/>
        <pt x="10" y="0" on="1"/>
      </contour>
      <contour>
        <pt x="452" y="286" on="1"/>
        <pt x="348" y="578" on="1"/>
        <pt x="308" y="696" on="1"/>
        <pt x="303" y="696" on="1"/>
        <pt x="263" y="578" on="1"/>
        <pt x="159" y="286" on="1"/>
      </contour>
      <contour>
        <pt x="280" y="799" on="1"/>
        <pt x="358" y="927" on="1"/>
        <pt x="411" y="927" on="1"/>
        <pt x="322" y="794" on="1"/>
      </contour>
    </TTGlyph>
    <TTGlyph name="Aacute.sc" xMin="16" yMin="0" xMax="533" yMax="728">
      <contour>
        <pt x="16" y="5" on="1"/>
        <pt x="239" y="577" on="1"/>
        <pt x="311" y="577" on="1"/>
        <pt x="533" y="5" on="1"/>
        <pt x="533" y="0" on="1"/>
        <pt x="485" y="0" on="1"/>
        <pt x="413" y="182" on="1"/>
        <pt x="136" y="182" on="1"/>
        <pt x="64" y="0" on="1"/>
        <pt x="16" y="0" on="1"/>
      </contour>
      <contour>
        <pt x="399" y="223" on="1"/>
        <pt x="312" y="445" on="1"/>
        <pt x="277" y="537" on="1"/>
        <pt x="272" y="537" on="1"/>
        <pt x="238" y="445" on="1"/>
        <pt x="149" y="223" on="1"/>
      </contour>
      <contour>
        <pt x="251" y="625" on="1"/>
        <pt x="316" y="728" on="1"/>
        <pt x="368" y="728" on="1"/>
        <pt x="291" y="621" on="1"/>
      </contour>
    </TTGlyph>
    <TTGlyph name="Abreve" xMin="10" yMin="0" xMax="601" yMax="952">
      <contour>
        <pt x="10" y="6" on="1"/>
        <pt x="269" y="740" on="1"/>
        <pt x="342" y="740" on="1"/>
        <pt x="601" y="6" on="1"/>
        <pt x="601" y="0" on="1"/>
        <pt x="552" y="0" on="1"/>
        <pt x="467" y="241" on="1"/>
        <pt x="144" y="241" on="1"/>
        <pt x="59" y="0" on="1"/>
        <pt x="10" y="0" on="1"/>
      </contour>
      <contour>
        <pt x="452" y="286" on="1"/>
        <pt x="348" y="578" on="1"/>
        <pt x="308" y="696" on="1"/>
        <pt x="303" y="696" on="1"/>
        <pt x="263" y="578" on="1"/>
        <pt x="159" y="286" on="1"/>
      </contour>
      <contour>
        <pt x="307" y="815" on="1"/>
        <pt x="232" y="815" on="0"/>
        <pt x="150" y="888" on="0"/>
        <pt x="150" y="952" on="1"/>
        <pt x="193" y="952" on="1"/>
        <pt x="193" y="905" on="0"/>
        <pt x="253" y="854" on="0"/>
        <pt x="307" y="854" on="1"/>
        <pt x="361" y="854" on="0"/>
        <pt x="420" y="905" on="0"/>
        <pt x="420" y="952" on="1"/>
        <pt x="463" y="952" on="1"/>
        <pt x="463" y="888" on="0"/>
        <pt x="381" y="815" on="0"/>
      </contour>
    </TTGlyph>
    <TTGlyph name="Abreve.sc" xMin="16" yMin="0" xMax="533" yMax="745">
      <contour>
        <pt x="276" y="634" on="1"/>
        <pt x="210" y="634" on="0"/>
        <pt x="138" y="694" on="0"/>
        <pt x="138" y="745" on="1"/>
        <pt x="178" y="745" on="1"/>
        <pt x="178" y="708" on="0"/>
        <pt x="228" y="669" on="0"/>
        <pt x="276" y="669" on="1"/>
        <pt x="323" y="669" on="0"/>
        <pt x="373" y="708" on="0"/>
        <pt x="373" y="745" on="1"/>
        <pt x="413" y="745" on="1"/>
        <pt x="413" y="694" on="0"/>
        <pt x="342" y="634" on="0"/>
      </contour>
      <contour>
        <pt x="16" y="5" on="1"/>
        <pt x="239" y="577" on="1"/>
        <pt x="311" y="577" on="1"/>
        <pt x="533" y="5" on="1"/>
        <pt x="533" y="0" on="1"/>
        <pt x="485" y="0" on="1"/>
        <pt x="413" y="182" on="1"/>
        <pt x="136" y="182" on="1"/>
        <pt x="64" y="0" on="1"/>
        <pt x="16" y="0" on="1"/>
      </contour>
      <contour>
        <pt x="399" y="223" on="1"/>
        <pt x="312" y="445" on="1"/>
        <pt x="277" y="537" on="1"/>
        <pt x="272" y="537" on="1"/>
        <pt x="238" y="445" on="1"/>
        <pt x="149" y="223" on="1"/>
      </contour>
    </TTGlyph>
    <TTGlyph name="Acircumflex" xMin="10" yMin="0" xMax="601" yMax="938">
      <contour>
        <pt x="10" y="6" on="1"/>
        <pt x="269" y="740" on="1"/>
        <pt x="342" y="740" on="1"/>
        <pt x="601" y="6" on="1"/>
        <pt x="601" y="0" on="1"/>
        <pt x="552" y="0" on="1"/>
        <pt x="467" y="241" on="1"/>
        <pt x="144" y="241" on="1"/>
        <pt x="59" y="0" on="1"/>
        <pt x="10" y="0" on="1"/>
      </contour>
      <contour>
        <pt x="452" y="286" on="1"/>
        <pt x="348" y="578" on="1"/>
        <pt x="308" y="696" on="1"/>
        <pt x="303" y="696" on="1"/>
        <pt x="263" y="578" on="1"/>
        <pt x="159" y="286" on="1"/>
      </contour>
      <contour>
        <pt x="165" y="866" on="1"/>
        <pt x="306" y="938" on="1"/>
        <pt x="448" y="866" on="1"/>
        <pt x="448" y="817" on="1"/>
        <pt x="306" y="889" on="1"/>
        <pt x="165" y="817" on="1"/>
      </contour>
    </TTGlyph>
    <TTGlyph name="Acircumflex.sc" xMin="16" yMin="0" xMax="533" yMax="736">
      <contour>
        <pt x="16" y="5" on="1"/>
        <pt x="239" y="577" on="1"/>
        <pt x="311" y="577" on="1"/>
        <pt x="533" y="5" on="1"/>
        <pt x="533" y="0" on="1"/>
        <pt x="485" y="0" on="1"/>
        <pt x="413" y="182" on="1"/>
        <pt x="136" y="182" on="1"/>
        <pt x="64" y="0" on="1"/>
        <pt x="16" y="0" on="1"/>
      </contour>
      <contour>
        <pt x="399" y="223" on="1"/>
        <pt x="312" y="445" on="1"/>
        <pt x="277" y="537" on="1"/>
        <pt x="272" y="537" on="1"/>
        <pt x="238" y="445" on="1"/>
        <pt x="149" y="223" on="1"/>
      </contour>
      <contour>
        <pt x="151" y="679" on="1"/>
        <pt x="276" y="736" on="1"/>
        <pt x="400" y="679" on="1"/>
        <pt x="400" y="635" on="1"/>
        <pt x="275" y="692" on="1"/>
        <pt x="151" y="635" on="1"/>
      </contour>
    </TTGlyph>
    <TTGlyph name="Adblgrave" xMin="10" yMin="0" xMax="601" yMax="922">
      <contour>
        <pt x="10" y="6" on="1"/>
        <pt x="269" y="740" on="1"/>
        <pt x="342" y="740" on="1"/>
        <pt x="601" y="6" on="1"/>
        <pt x="601" y="0" on="1"/>
        <pt x="552" y="0" on="1"/>
        <pt x="467" y="241" on="1"/>
        <pt x="144" y="241" on="1"/>
        <pt x="59" y="0" on="1"/>
        <pt x="10" y="0" on="1"/>
      </contour>
      <contour>
        <pt x="452" y="286" on="1"/>
        <pt x="348" y="578" on="1"/>
        <pt x="308" y="696" on="1"/>
        <pt x="303" y="696" on="1"/>
        <pt x="263" y="578" on="1"/>
        <pt x="159" y="286" on="1"/>
      </contour>
      <contour>
        <pt x="220" y="790" on="1"/>
        <pt x="131" y="922" on="1"/>
        <pt x="182" y="922" on="1"/>
        <pt x="260" y="804" on="1"/>
      </contour>
      <contour>
        <pt x="355" y="790" on="1"/>
        <pt x="266" y="922" on="1"/>
        <pt x="318" y="922" on="1"/>
        <pt x="395" y="804" on="1"/>
      </contour>
    </TTGlyph>
    <TTGlyph name="Adblgrave.sc" xMin="16" yMin="0" xMax="533" yMax="724">
      <contour>
        <pt x="16" y="5" on="1"/>
        <pt x="239" y="577" on="1"/>
        <pt x="311" y="577" on="1"/>
        <pt x="533" y="5" on="1"/>
        <pt x="533" y="0" on="1"/>
        <pt x="485" y="0" on="1"/>
        <pt x="413" y="182" on="1"/>
        <pt x="136" y="182" on="1"/>
        <pt x="64" y="0" on="1"/>
        <pt x="16" y="0" on="1"/>
      </contour>
      <contour>
        <pt x="399" y="223" on="1"/>
        <pt x="312" y="445" on="1"/>
        <pt x="277" y="537" on="1"/>
        <pt x="272" y="537" on="1"/>
        <pt x="238" y="445" on="1"/>
        <pt x="149" y="223" on="1"/>
      </contour>
      <contour>
        <pt x="120" y="724" on="1"/>
        <pt x="170" y="724" on="1"/>
        <pt x="235" y="628" on="1"/>
        <pt x="197" y="617" on="1"/>
      </contour>
      <contour>
        <pt x="239" y="724" on="1"/>
        <pt x="289" y="724" on="1"/>
        <pt x="355" y="628" on="1"/>
        <pt x="317" y="617" on="1"/>
      </contour>
    </TTGlyph>
    <TTGlyph name="Adieresis" xMin="10" yMin="0" xMax="601" yMax="897">
      <contour>
        <pt x="10" y="6" on="1"/>
        <pt x="269" y="740" on="1"/>
        <pt x="342" y="740" on="1"/>
        <pt x="601" y="6" on="1"/>
        <pt x="601" y="0" on="1"/>
        <pt x="552" y="0" on="1"/>
        <pt x="467" y="241" on="1"/>
        <pt x="144" y="241" on="1"/>
        <pt x="59" y="0" on="1"/>
        <pt x="10" y="0" on="1"/>
      </contour>
      <contour>
        <pt x="452" y="286" on="1"/>
        <pt x="348" y="578" on="1"/>
        <pt x="308" y="696" on="1"/>
        <pt x="303" y="696" on="1"/>
        <pt x="263" y="578" on="1"/>
        <pt x="159" y="286" on="1"/>
      </contour>
      <contour>
        <pt x="195" y="822" on="1"/>
        <pt x="178" y="822" on="0"/>
        <pt x="157" y="839" on="0"/>
        <pt x="157" y="859" on="1"/>
        <pt x="157" y="879" on="0"/>
        <pt x="178" y="897" on="0"/>
        <pt x="195" y="897" on="1"/>
        <pt x="212" y="897" on="0"/>
        <pt x="233" y="879" on="0"/>
        <pt x="233" y="859" on="1"/>
        <pt x="233" y="839" on="0"/>
        <pt x="212" y="822" on="0"/>
      </contour>
      <contour>
        <pt x="418" y="822" on="1"/>
        <pt x="401" y="822" on="0"/>
        <pt x="379" y="839" on="0"/>
        <pt x="379" y="859" on="1"/>
        <pt x="379" y="879" on="0"/>
        <pt x="401" y="897" on="0"/>
        <pt x="418" y="897" on="1"/>
        <pt x="434" y="897" on="0"/>
        <pt x="456" y="879" on="0"/>
        <pt x="456" y="859" on="1"/>
        <pt x="456" y="839" on="0"/>
        <pt x="434" y="822" on="0"/>
      </contour>
    </TTGlyph>
    <TTGlyph name="Adieresis.sc" xMin="16" yMin="0" xMax="533" yMax="708">
      <contour>
        <pt x="176" y="640" on="1"/>
        <pt x="160" y="640" on="0"/>
        <pt x="141" y="657" on="0"/>
        <pt x="141" y="674" on="1"/>
        <pt x="141" y="692" on="0"/>
        <pt x="160" y="708" on="0"/>
        <pt x="176" y="708" on="1"/>
        <pt x="193" y="708" on="0"/>
        <pt x="213" y="692" on="0"/>
        <pt x="213" y="674" on="1"/>
        <pt x="213" y="656" on="0"/>
        <pt x="193" y="640" on="0"/>
      </contour>
      <contour>
        <pt x="373" y="640" on="1"/>
        <pt x="357" y="640" on="0"/>
        <pt x="338" y="657" on="0"/>
        <pt x="338" y="674" on="1"/>
        <pt x="338" y="692" on="0"/>
        <pt x="357" y="708" on="0"/>
        <pt x="373" y="708" on="1"/>
        <pt x="389" y="708" on="0"/>
        <pt x="409" y="692" on="0"/>
        <pt x="409" y="674" on="1"/>
        <pt x="409" y="656" on="0"/>
        <pt x="389" y="640" on="0"/>
      </contour>
      <contour>
        <pt x="16" y="5" on="1"/>
        <pt x="239" y="577" on="1"/>
        <pt x="311" y="577" on="1"/>
        <pt x="533" y="5" on="1"/>
        <pt x="533" y="0" on="1"/>
        <pt x="485" y="0" on="1"/>
        <pt x="413" y="182" on="1"/>
        <pt x="136" y="182" on="1"/>
        <pt x="64" y="0" on="1"/>
        <pt x="16" y="0" on="1"/>
      </contour>
      <contour>
        <pt x="399" y="223" on="1"/>
        <pt x="312" y="445" on="1"/>
        <pt x="277" y="537" on="1"/>
        <pt x="272" y="537" on="1"/>
        <pt x="238" y="445" on="1"/>
        <pt x="149" y="223" on="1"/>
      </contour>
    </TTGlyph>
    <TTGlyph name="Agrave" xMin="10" yMin="0" xMax="601" yMax="927">
      <contour>
        <pt x="10" y="6" on="1"/>
        <pt x="269" y="740" on="1"/>
        <pt x="342" y="740" on="1"/>
        <pt x="601" y="6" on="1"/>
        <pt x="601" y="0" on="1"/>
        <pt x="552" y="0" on="1"/>
        <pt x="467" y="241" on="1"/>
        <pt x="144" y="241" on="1"/>
        <pt x="59" y="0" on="1"/>
        <pt x="10" y="0" on="1"/>
      </contour>
      <contour>
        <pt x="452" y="286" on="1"/>
        <pt x="348" y="578" on="1"/>
        <pt x="308" y="696" on="1"/>
        <pt x="303" y="696" on="1"/>
        <pt x="263" y="578" on="1"/>
        <pt x="159" y="286" on="1"/>
      </contour>
      <contour>
        <pt x="284" y="794" on="1"/>
        <pt x="196" y="927" on="1"/>
        <pt x="249" y="927" on="1"/>
        <pt x="326" y="808" on="1"/>
      </contour>
    </TTGlyph>
    <TTGlyph name="Agrave.sc" xMin="16" yMin="0" xMax="533" yMax="728">
      <contour>
        <pt x="16" y="5" on="1"/>
        <pt x="239" y="577" on="1"/>
        <pt x="311" y="577" on="1"/>
        <pt x="533" y="5" on="1"/>
        <pt x="533" y="0" on="1"/>
        <pt x="485" y="0" on="1"/>
        <pt x="413" y="182" on="1"/>
        <pt x="136" y="182" on="1"/>
        <pt x="64" y="0" on="1"/>
        <pt x="16" y="0" on="1"/>
      </contour>
      <contour>
        <pt x="399" y="223" on="1"/>
        <pt x="312" y="445" on="1"/>
        <pt x="277" y="537" on="1"/>
        <pt x="272" y="537" on="1"/>
        <pt x="238" y="445" on="1"/>
        <pt x="149" y="223" on="1"/>
      </contour>
      <contour>
        <pt x="254" y="621" on="1"/>
        <pt x="177" y="728" on="1"/>
        <pt x="229" y="728" on="1"/>
        <pt x="294" y="631" on="1"/>
      </contour>
    </TTGlyph>
    <TTGlyph name="Ainvertedbreve" xMin="10" yMin="0" xMax="601" yMax="957">
      <contour>
        <pt x="10" y="6" on="1"/>
        <pt x="269" y="740" on="1"/>
        <pt x="342" y="740" on="1"/>
        <pt x="601" y="6" on="1"/>
        <pt x="601" y="0" on="1"/>
        <pt x="552" y="0" on="1"/>
        <pt x="467" y="241" on="1"/>
        <pt x="144" y="241" on="1"/>
        <pt x="59" y="0" on="1"/>
        <pt x="10" y="0" on="1"/>
      </contour>
      <contour>
        <pt x="452" y="286" on="1"/>
        <pt x="348" y="578" on="1"/>
        <pt x="308" y="696" on="1"/>
        <pt x="303" y="696" on="1"/>
        <pt x="263" y="578" on="1"/>
        <pt x="159" y="286" on="1"/>
      </contour>
      <contour>
        <pt x="419" y="820" on="1"/>
        <pt x="419" y="867" on="0"/>
        <pt x="359" y="918" on="0"/>
        <pt x="305" y="918" on="1"/>
        <pt x="251" y="918" on="0"/>
        <pt x="192" y="867" on="0"/>
        <pt x="192" y="820" on="1"/>
        <pt x="149" y="820" on="1"/>
        <pt x="149" y="884" on="0"/>
        <pt x="231" y="957" on="0"/>
        <pt x="305" y="957" on="1"/>
        <pt x="380" y="957" on="0"/>
        <pt x="462" y="884" on="0"/>
        <pt x="462" y="820" on="1"/>
      </contour>
    </TTGlyph>
    <TTGlyph name="Ainvertedbreve.sc" xMin="16" yMin="0" xMax="533" yMax="749">
      <contour>
        <pt x="138" y="639" on="1"/>
        <pt x="138" y="690" on="0"/>
        <pt x="209" y="749" on="0"/>
        <pt x="275" y="749" on="1"/>
        <pt x="341" y="749" on="0"/>
        <pt x="412" y="690" on="0"/>
        <pt x="412" y="639" on="1"/>
        <pt x="372" y="639" on="1"/>
        <pt x="372" y="675" on="0"/>
        <pt x="322" y="715" on="0"/>
        <pt x="275" y="715" on="1"/>
        <pt x="228" y="715" on="0"/>
        <pt x="178" y="675" on="0"/>
        <pt x="178" y="639" on="1"/>
      </contour>
      <contour>
        <pt x="16" y="5" on="1"/>
        <pt x="239" y="577" on="1"/>
        <pt x="311" y="577" on="1"/>
        <pt x="533" y="5" on="1"/>
        <pt x="533" y="0" on="1"/>
        <pt x="485" y="0" on="1"/>
        <pt x="413" y="182" on="1"/>
        <pt x="136" y="182" on="1"/>
        <pt x="64" y="0" on="1"/>
        <pt x="16" y="0" on="1"/>
      </contour>
      <contour>
        <pt x="399" y="223" on="1"/>
        <pt x="312" y="445" on="1"/>
        <pt x="277" y="537" on="1"/>
        <pt x="272" y="537" on="1"/>
        <pt x="238" y="445" on="1"/>
        <pt x="149" y="223" on="1"/>
      </contour>
    </TTGlyph>
    <TTGlyph name="Amacron" xMin="10" yMin="0" xMax="601" yMax="884">
      <contour>
        <pt x="10" y="6" on="1"/>
        <pt x="269" y="740" on="1"/>
        <pt x="342" y="740" on="1"/>
        <pt x="601" y="6" on="1"/>
        <pt x="601" y="0" on="1"/>
        <pt x="552" y="0" on="1"/>
        <pt x="467" y="241" on="1"/>
        <pt x="144" y="241" on="1"/>
        <pt x="59" y="0" on="1"/>
        <pt x="10" y="0" on="1"/>
      </contour>
      <contour>
        <pt x="452" y="286" on="1"/>
        <pt x="348" y="578" on="1"/>
        <pt x="308" y="696" on="1"/>
        <pt x="303" y="696" on="1"/>
        <pt x="263" y="578" on="1"/>
        <pt x="159" y="286" on="1"/>
      </contour>
      <contour>
        <pt x="169" y="884" on="1"/>
        <pt x="435" y="884" on="1"/>
        <pt x="435" y="842" on="1"/>
        <pt x="169" y="842" on="1"/>
      </contour>
    </TTGlyph>
    <TTGlyph name="Amacron.sc" xMin="16" yMin="0" xMax="533" yMax="695">
      <contour>
        <pt x="16" y="5" on="1"/>
        <pt x="239" y="577" on="1"/>
        <pt x="311" y="577" on="1"/>
        <pt x="533" y="5" on="1"/>
        <pt x="533" y="0" on="1"/>
        <pt x="485" y="0" on="1"/>
        <pt x="413" y="182" on="1"/>
        <pt x="136" y="182" on="1"/>
        <pt x="64" y="0" on="1"/>
        <pt x="16" y="0" on="1"/>
      </contour>
      <contour>
        <pt x="399" y="223" on="1"/>
        <pt x="312" y="445" on="1"/>
        <pt x="277" y="537" on="1"/>
        <pt x="272" y="537" on="1"/>
        <pt x="238" y="445" on="1"/>
        <pt x="149" y="223" on="1"/>
      </contour>
      <contour>
        <pt x="154" y="695" on="1"/>
        <pt x="390" y="695" on="1"/>
        <pt x="390" y="656" on="1"/>
        <pt x="154" y="656" on="1"/>
      </contour>
    </TTGlyph>
    <TTGlyph name="Aogonek" xMin="10" yMin="-220" xMax="601" yMax="740">
      <contour>
        <pt x="538" y="-220" on="1"/>
        <pt x="452" y="-220" on="0"/>
        <pt x="452" y="-140" on="1"/>
        <pt x="452" y="-100" on="0"/>
        <pt x="501" y="-35" on="0"/>
        <pt x="560" y="0" on="1"/>
        <pt x="552" y="0" on="1"/>
        <pt x="467" y="241" on="1"/>
        <pt x="144" y="241" on="1"/>
        <pt x="59" y="0" on="1"/>
        <pt x="10" y="0" on="1"/>
        <pt x="10" y="6" on="1"/>
        <pt x="269" y="740" on="1"/>
        <pt x="342" y="740" on="1"/>
        <pt x="601" y="6" on="1"/>
        <pt x="601" y="-20" on="1"/>
        <pt x="544" y="-48" on="0"/>
        <pt x="494" y="-104" on="0"/>
        <pt x="494" y="-137" on="1"/>
        <pt x="494" y="-182" on="0"/>
        <pt x="544" y="-182" on="1"/>
        <pt x="570" y="-182" on="0"/>
        <pt x="600" y="-171" on="1"/>
        <pt x="600" y="-208" on="1"/>
        <pt x="573" y="-220" on="0"/>
      </contour>
      <contour>
        <pt x="452" y="286" on="1"/>
        <pt x="348" y="578" on="1"/>
        <pt x="308" y="696" on="1"/>
        <pt x="303" y="696" on="1"/>
        <pt x="263" y="578" on="1"/>
        <pt x="159" y="286" on="1"/>
      </contour>
    </TTGlyph>
    <TTGlyph name="Aogonek.sc" xMin="15" yMin="-170" xMax="533" yMax="577">
      <contour>
        <pt x="477" y="-170" on="1"/>
        <pt x="400" y="-170" on="0"/>
        <pt x="400" y="-106" on="1"/>
        <pt x="400" y="-76" on="0"/>
        <pt x="439" y="-28" on="0"/>
        <pt x="487" y="0" on="1"/>
        <pt x="484" y="0" on="1"/>
        <pt x="412" y="182" on="1"/>
        <pt x="135" y="182" on="1"/>
        <pt x="63" y="0" on="1"/>
        <pt x="15" y="0" on="1"/>
        <pt x="15" y="5" on="1"/>
        <pt x="238" y="577" on="1"/>
        <pt x="310" y="577" on="1"/>
        <pt x="533" y="5" on="1"/>
        <pt x="533" y="-13" on="1"/>
        <pt x="488" y="-30" on="0"/>
        <pt x="440" y="-76" on="0"/>
        <pt x="440" y="-103" on="1"/>
        <pt x="440" y="-121" on="0"/>
        <pt x="462" y="-135" on="0"/>
        <pt x="482" y="-135" on="1"/>
        <pt x="508" y="-135" on="0"/>
        <pt x="532" y="-127" on="1"/>
        <pt x="532" y="-160" on="1"/>
        <pt x="520" y="-165" on="0"/>
        <pt x="491" y="-170" on="0"/>
      </contour>
      <contour>
        <pt x="398" y="223" on="1"/>
        <pt x="311" y="450" on="1"/>
        <pt x="276" y="537" on="1"/>
        <pt x="271" y="537" on="1"/>
        <pt x="237" y="449" on="1"/>
        <pt x="148" y="223" on="1"/>
      </contour>
    </TTGlyph>
    <TTGlyph name="Aring" xMin="10" yMin="0" xMax="601" yMax="966">
      <contour>
        <pt x="10" y="6" on="1"/>
        <pt x="269" y="740" on="1"/>
        <pt x="342" y="740" on="1"/>
        <pt x="601" y="6" on="1"/>
        <pt x="601" y="0" on="1"/>
        <pt x="552" y="0" on="1"/>
        <pt x="467" y="241" on="1"/>
        <pt x="144" y="241" on="1"/>
        <pt x="59" y="0" on="1"/>
        <pt x="10" y="0" on="1"/>
      </contour>
      <contour>
        <pt x="452" y="286" on="1"/>
        <pt x="348" y="578" on="1"/>
        <pt x="308" y="696" on="1"/>
        <pt x="303" y="696" on="1"/>
        <pt x="263" y="578" on="1"/>
        <pt x="159" y="286" on="1"/>
      </contour>
      <contour>
        <pt x="307" y="758" on="1"/>
        <pt x="259" y="758" on="0"/>
        <pt x="200" y="817" on="0"/>
        <pt x="200" y="861" on="1"/>
        <pt x="200" y="906" on="0"/>
        <pt x="259" y="966" on="0"/>
        <pt x="307" y="966" on="1"/>
        <pt x="355" y="966" on="0"/>
        <pt x="413" y="906" on="0"/>
        <pt x="413" y="861" on="1"/>
        <pt x="413" y="817" on="0"/>
        <pt x="355" y="758" on="0"/>
      </contour>
      <contour>
        <pt x="307" y="794" on="1"/>
        <pt x="339" y="794" on="0"/>
        <pt x="375" y="831" on="0"/>
        <pt x="375" y="861" on="1"/>
        <pt x="375" y="892" on="0"/>
        <pt x="339" y="929" on="0"/>
        <pt x="307" y="929" on="1"/>
        <pt x="274" y="929" on="0"/>
        <pt x="238" y="892" on="0"/>
        <pt x="238" y="861" on="1"/>
        <pt x="238" y="831" on="0"/>
        <pt x="274" y="794" on="0"/>
      </contour>
    </TTGlyph>
    <TTGlyph name="Aring.sc" xMin="16" yMin="0" xMax="533" yMax="785">
      <contour>
        <pt x="16" y="5" on="1"/>
        <pt x="239" y="577" on="1"/>
        <pt x="311" y="577" on="1"/>
        <pt x="533" y="5" on="1"/>
        <pt x="533" y="0" on="1"/>
        <pt x="485" y="0" on="1"/>
        <pt x="413" y="182" on="1"/>
        <pt x="136" y="182" on="1"/>
        <pt x="64" y="0" on="1"/>
        <pt x="16" y="0" on="1"/>
      </contour>
      <contour>
        <pt x="399" y="223" on="1"/>
        <pt x="312" y="445" on="1"/>
        <pt x="277" y="537" on="1"/>
        <pt x="272" y="537" on="1"/>
        <pt x="238" y="445" on="1"/>
        <pt x="149" y="223" on="1"/>
      </contour>
      <contour>
        <pt x="275" y="621" on="1"/>
        <pt x="233" y="621" on="0"/>
        <pt x="182" y="667" on="0"/>
        <pt x="182" y="702" on="1"/>
        <pt x="182" y="737" on="0"/>
        <pt x="233" y="785" on="0"/>
        <pt x="275" y="785" on="1"/>
        <pt x="317" y="785" on="0"/>
        <pt x="368" y="737" on="0"/>
        <pt x="368" y="702" on="1"/>
        <pt x="368" y="667" on="0"/>
        <pt x="317" y="621" on="0"/>
      </contour>
      <contour>
        <pt x="275" y="651" on="1"/>
        <pt x="304" y="651" on="0"/>
        <pt x="334" y="679" on="0"/>
        <pt x="334" y="702" on="1"/>
        <pt x="334" y="726" on="0"/>
        <pt x="304" y="755" on="0"/>
        <pt x="275" y="755" on="1"/>
        <pt x="246" y="755" on="0"/>
        <pt x="216" y="726" on="0"/>
        <pt x="216" y="702" on="1"/>
        <pt x="216" y="679" on="0"/>
        <pt x="246" y="651" on="0"/>
      </contour>
    </TTGlyph>
    <TTGlyph name="Aringacute" xMin="11" yMin="0" xMax="602" yMax="943">
      <contour>
        <pt x="11" y="6" on="1"/>
        <pt x="239" y="650" on="1"/>
        <pt x="217" y="664" on="0"/>
        <pt x="193" y="710" on="0"/>
        <pt x="193" y="738" on="1"/>
        <pt x="193" y="780" on="0"/>
        <pt x="243" y="839" on="0"/>
        <pt x="286" y="845" on="1"/>
        <pt x="352" y="943" on="1"/>
        <pt x="405" y="943" on="1"/>
        <pt x="337" y="841" on="1"/>
        <pt x="374" y="832" on="0"/>
        <pt x="416" y="776" on="0"/>
        <pt x="416" y="738" on="1"/>
        <pt x="416" y="711" on="0"/>
        <pt x="393" y="666" on="0"/>
        <pt x="373" y="652" on="1"/>
        <pt x="602" y="6" on="1"/>
        <pt x="602" y="0" on="1"/>
        <pt x="553" y="0" on="1"/>
        <pt x="468" y="241" on="1"/>
        <pt x="145" y="241" on="1"/>
        <pt x="60" y="0" on="1"/>
        <pt x="11" y="0" on="1"/>
      </contour>
      <contour>
        <pt x="305" y="670" on="1"/>
        <pt x="337" y="670" on="0"/>
        <pt x="375" y="708" on="0"/>
        <pt x="375" y="738" on="1"/>
        <pt x="375" y="769" on="0"/>
        <pt x="338" y="807" on="0"/>
        <pt x="305" y="807" on="1"/>
        <pt x="272" y="807" on="0"/>
        <pt x="235" y="769" on="0"/>
        <pt x="235" y="738" on="1"/>
        <pt x="235" y="708" on="0"/>
        <pt x="272" y="670" on="0"/>
      </contour>
      <contour>
        <pt x="452" y="287" on="1"/>
        <pt x="350" y="578" on="1"/>
        <pt x="330" y="633" on="1"/>
        <pt x="282" y="632" on="1"/>
        <pt x="263" y="578" on="1"/>
        <pt x="160" y="287" on="1"/>
      </contour>
    </TTGlyph>
    <TTGlyph name="Aringacute.sc" xMin="16" yMin="0" xMax="534" yMax="743">
      <contour>
        <pt x="16" y="5" on="1"/>
        <pt x="214" y="510" on="1"/>
        <pt x="174" y="533" on="0"/>
        <pt x="174" y="578" on="1"/>
        <pt x="174" y="612" on="0"/>
        <pt x="218" y="659" on="0"/>
        <pt x="256" y="664" on="1"/>
        <pt x="312" y="743" on="1"/>
        <pt x="363" y="743" on="1"/>
        <pt x="304" y="661" on="1"/>
        <pt x="336" y="653" on="0"/>
        <pt x="374" y="608" on="0"/>
        <pt x="374" y="578" on="1"/>
        <pt x="374" y="535" on="0"/>
        <pt x="336" y="511" on="1"/>
        <pt x="534" y="5" on="1"/>
        <pt x="534" y="0" on="1"/>
        <pt x="486" y="0" on="1"/>
        <pt x="414" y="182" on="1"/>
        <pt x="136" y="182" on="1"/>
        <pt x="64" y="0" on="1"/>
        <pt x="16" y="0" on="1"/>
      </contour>
      <contour>
        <pt x="274" y="526" on="1"/>
        <pt x="303" y="526" on="0"/>
        <pt x="335" y="555" on="0"/>
        <pt x="335" y="578" on="1"/>
        <pt x="335" y="602" on="0"/>
        <pt x="303" y="631" on="0"/>
        <pt x="274" y="631" on="1"/>
        <pt x="245" y="631" on="0"/>
        <pt x="212" y="602" on="0"/>
        <pt x="212" y="578" on="1"/>
        <pt x="212" y="555" on="0"/>
        <pt x="245" y="526" on="0"/>
      </contour>
      <contour>
        <pt x="400" y="223" on="1"/>
        <pt x="312" y="445" on="1"/>
        <pt x="295" y="492" on="1"/>
        <pt x="255" y="491" on="1"/>
        <pt x="238" y="445" on="1"/>
        <pt x="150" y="223" on="1"/>
      </contour>
    </TTGlyph>
    <TTGlyph name="Atilde" xMin="10" yMin="0" xMax="601" yMax="913">
      <contour>
        <pt x="10" y="6" on="1"/>
        <pt x="269" y="740" on="1"/>
        <pt x="342" y="740" on="1"/>
        <pt x="601" y="6" on="1"/>
        <pt x="601" y="0" on="1"/>
        <pt x="552" y="0" on="1"/>
        <pt x="467" y="241" on="1"/>
        <pt x="144" y="241" on="1"/>
        <pt x="59" y="0" on="1"/>
        <pt x="10" y="0" on="1"/>
      </contour>
      <contour>
        <pt x="452" y="286" on="1"/>
        <pt x="348" y="578" on="1"/>
        <pt x="308" y="696" on="1"/>
        <pt x="303" y="696" on="1"/>
        <pt x="263" y="578" on="1"/>
        <pt x="159" y="286" on="1"/>
      </contour>
      <contour>
        <pt x="138" y="858" on="1"/>
        <pt x="160" y="883" on="0"/>
        <pt x="214" y="913" on="0"/>
        <pt x="242" y="913" on="1"/>
        <pt x="264" y="913" on="0"/>
        <pt x="300" y="900" on="0"/>
        <pt x="334" y="884" on="0"/>
        <pt x="367" y="871" on="0"/>
        <pt x="387" y="871" on="1"/>
        <pt x="428" y="871" on="0"/>
        <pt x="462" y="910" on="1"/>
        <pt x="488" y="887" on="1"/>
        <pt x="468" y="861" on="0"/>
        <pt x="411" y="829" on="0"/>
        <pt x="382" y="829" on="1"/>
        <pt x="362" y="829" on="0"/>
        <pt x="326" y="842" on="0"/>
        <pt x="292" y="858" on="0"/>
        <pt x="257" y="871" on="0"/>
        <pt x="239" y="871" on="1"/>
        <pt x="219" y="871" on="0"/>
        <pt x="179" y="851" on="0"/>
        <pt x="162" y="834" on="1"/>
      </contour>
    </TTGlyph>
    <TTGlyph name="Atilde.sc" xMin="16" yMin="0" xMax="533" yMax="718">
      <contour>
        <pt x="16" y="5" on="1"/>
        <pt x="239" y="577" on="1"/>
        <pt x="311" y="577" on="1"/>
        <pt x="533" y="5" on="1"/>
        <pt x="533" y="0" on="1"/>
        <pt x="485" y="0" on="1"/>
        <pt x="413" y="182" on="1"/>
        <pt x="136" y="182" on="1"/>
        <pt x="64" y="0" on="1"/>
        <pt x="16" y="0" on="1"/>
      </contour>
      <contour>
        <pt x="399" y="223" on="1"/>
        <pt x="312" y="445" on="1"/>
        <pt x="277" y="537" on="1"/>
        <pt x="272" y="537" on="1"/>
        <pt x="238" y="445" on="1"/>
        <pt x="149" y="223" on="1"/>
      </contour>
      <contour>
        <pt x="128" y="669" on="1"/>
        <pt x="147" y="692" on="0"/>
        <pt x="196" y="718" on="0"/>
        <pt x="220" y="718" on="1"/>
        <pt x="239" y="718" on="0"/>
        <pt x="270" y="708" on="0"/>
        <pt x="300" y="695" on="0"/>
        <pt x="330" y="685" on="0"/>
        <pt x="347" y="685" on="1"/>
        <pt x="382" y="685" on="0"/>
        <pt x="414" y="715" on="1"/>
        <pt x="436" y="697" on="1"/>
        <pt x="419" y="674" on="0"/>
        <pt x="367" y="647" on="0"/>
        <pt x="341" y="647" on="1"/>
        <pt x="324" y="647" on="0"/>
        <pt x="292" y="657" on="0"/>
        <pt x="262" y="670" on="0"/>
        <pt x="232" y="680" on="0"/>
        <pt x="216" y="680" on="1"/>
        <pt x="181" y="680" on="0"/>
        <pt x="148" y="650" on="1"/>
      </contour>
    </TTGlyph>
    <TTGlyph name="B" xMin="91" yMin="-10" xMax="559" yMax="749">
      <contour>
        <pt x="297" y="-10" on="1"/>
        <pt x="250" y="-10" on="0"/>
        <pt x="139" y="-2" on="0"/>
        <pt x="91" y="5" on="1"/>
        <pt x="91" y="736" on="1"/>
        <pt x="159" y="743" on="0"/>
        <pt x="246" y="749" on="0"/>
        <pt x="287" y="749" on="1"/>
        <pt x="418" y="749" on="0"/>
        <pt x="535" y="656" on="0"/>
        <pt x="535" y="553" on="1"/>
        <pt x="535" y="483" on="0"/>
        <pt x="468" y="390" on="0"/>
        <pt x="410" y="379" on="1"/>
        <pt x="410" y="375" on="1"/>
        <pt x="482" y="363" on="0"/>
        <pt x="559" y="268" on="0"/>
        <pt x="559" y="192" on="1"/>
        <pt x="559" y="-10" on="0"/>
      </contour>
      <contour>
        <pt x="298" y="32" on="1"/>
        <pt x="405" y="33" on="0"/>
        <pt x="508" y="111" on="0"/>
        <pt x="508" y="193" on="1"/>
        <pt x="508" y="276" on="0"/>
        <pt x="409" y="353" on="0"/>
        <pt x="301" y="353" on="1"/>
        <pt x="139" y="353" on="1"/>
        <pt x="139" y="43" on="1"/>
        <pt x="162" y="38" on="0"/>
        <pt x="251" y="32" on="0"/>
      </contour>
      <contour>
        <pt x="299" y="396" on="1"/>
        <pt x="400" y="396" on="0"/>
        <pt x="485" y="467" on="0"/>
        <pt x="485" y="551" on="1"/>
        <pt x="485" y="633" on="0"/>
        <pt x="393" y="706" on="0"/>
        <pt x="288" y="706" on="1"/>
        <pt x="243" y="706" on="0"/>
        <pt x="173" y="702" on="0"/>
        <pt x="139" y="697" on="1"/>
        <pt x="139" y="396" on="1"/>
      </contour>
    </TTGlyph>
    <TTGlyph name="B.sc" xMin="85" yMin="-8" xMax="494" yMax="584">
      <contour>
        <pt x="265" y="-8" on="1"/>
        <pt x="224" y="-8" on="0"/>
        <pt x="129" y="-2" on="0"/>
        <pt x="85" y="4" on="1"/>
        <pt x="85" y="574" on="1"/>
        <pt x="144" y="579" on="0"/>
        <pt x="221" y="584" on="0"/>
        <pt x="257" y="584" on="1"/>
        <pt x="372" y="584" on="0"/>
        <pt x="474" y="511" on="0"/>
        <pt x="474" y="430" on="1"/>
        <pt x="474" y="376" on="0"/>
        <pt x="417" y="304" on="0"/>
        <pt x="366" y="295" on="1"/>
        <pt x="366" y="292" on="1"/>
        <pt x="428" y="282" on="0"/>
        <pt x="494" y="210" on="0"/>
        <pt x="494" y="151" on="1"/>
        <pt x="494" y="-8" on="0"/>
      </contour>
      <contour>
        <pt x="266" y="32" on="1"/>
        <pt x="358" y="32" on="0"/>
        <pt x="445" y="91" on="0"/>
        <pt x="445" y="153" on="1"/>
        <pt x="445" y="215" on="0"/>
        <pt x="362" y="273" on="0"/>
        <pt x="271" y="273" on="1"/>
        <pt x="132" y="273" on="1"/>
        <pt x="132" y="40" on="1"/>
        <pt x="152" y="36" on="0"/>
        <pt x="225" y="32" on="0"/>
      </contour>
      <contour>
        <pt x="269" y="312" on="1"/>
        <pt x="354" y="312" on="0"/>
        <pt x="425" y="365" on="0"/>
        <pt x="425" y="428" on="1"/>
        <pt x="425" y="491" on="0"/>
        <pt x="348" y="544" on="0"/>
        <pt x="259" y="544" on="1"/>
        <pt x="221" y="544" on="0"/>
        <pt x="161" y="541" on="0"/>
        <pt x="132" y="537" on="1"/>
        <pt x="132" y="312" on="1"/>
      </contour>
    </TTGlyph>
    <TTGlyph name="C" xMin="54" yMin="-9" xMax="510" yMax="749">
      <contour>
        <pt x="367" y="-9" on="1"/>
        <pt x="207" y="-7" on="0"/>
        <pt x="54" y="177" on="0"/>
        <pt x="54" y="369" on="1"/>
        <pt x="54" y="565" on="0"/>
        <pt x="208" y="749" on="0"/>
        <pt x="369" y="749" on="1"/>
        <pt x="398" y="749" on="0"/>
        <pt x="475" y="741" on="0"/>
        <pt x="510" y="734" on="1"/>
        <pt x="510" y="688" on="1"/>
        <pt x="476" y="695" on="0"/>
        <pt x="404" y="703" on="0"/>
        <pt x="374" y="703" on="1"/>
        <pt x="236" y="703" on="0"/>
        <pt x="104" y="541" on="0"/>
        <pt x="104" y="369" on="1"/>
        <pt x="104" y="200" on="0"/>
        <pt x="233" y="37" on="0"/>
        <pt x="366" y="37" on="1"/>
        <pt x="379" y="37" on="0"/>
        <pt x="416" y="40" on="0"/>
        <pt x="456" y="44" on="0"/>
        <pt x="495" y="50" on="0"/>
        <pt x="510" y="53" on="1"/>
        <pt x="510" y="9" on="1"/>
        <pt x="481" y="1" on="0"/>
        <pt x="402" y="-9" on="0"/>
      </contour>
    </TTGlyph>
    <TTGlyph name="C.sc" xMin="53" yMin="-7" xMax="450" yMax="584">
      <contour>
        <pt x="323" y="-7" on="1"/>
        <pt x="186" y="-6" on="0"/>
        <pt x="53" y="139" on="0"/>
        <pt x="53" y="288" on="1"/>
        <pt x="53" y="440" on="0"/>
        <pt x="186" y="584" on="0"/>
        <pt x="325" y="584" on="1"/>
        <pt x="351" y="584" on="0"/>
        <pt x="418" y="577" on="0"/>
        <pt x="450" y="572" on="1"/>
        <pt x="450" y="529" on="1"/>
        <pt x="419" y="534" on="0"/>
        <pt x="356" y="541" on="0"/>
        <pt x="330" y="541" on="1"/>
        <pt x="213" y="541" on="0"/>
        <pt x="103" y="419" on="0"/>
        <pt x="103" y="288" on="1"/>
        <pt x="103" y="159" on="0"/>
        <pt x="212" y="37" on="0"/>
        <pt x="324" y="37" on="1"/>
        <pt x="335" y="37" on="0"/>
        <pt x="368" y="39" on="0"/>
        <pt x="403" y="43" on="0"/>
        <pt x="437" y="47" on="0"/>
        <pt x="450" y="50" on="1"/>
        <pt x="450" y="8" on="1"/>
        <pt x="424" y="2" on="0"/>
        <pt x="354" y="-7" on="0"/>
      </contour>
    </TTGlyph>
    <TTGlyph name="Cacute" xMin="54" yMin="-9" xMax="510" yMax="927">
      <contour>
        <pt x="367" y="-9" on="1"/>
        <pt x="207" y="-7" on="0"/>
        <pt x="54" y="177" on="0"/>
        <pt x="54" y="369" on="1"/>
        <pt x="54" y="565" on="0"/>
        <pt x="208" y="749" on="0"/>
        <pt x="369" y="749" on="1"/>
        <pt x="398" y="749" on="0"/>
        <pt x="475" y="741" on="0"/>
        <pt x="510" y="734" on="1"/>
        <pt x="510" y="688" on="1"/>
        <pt x="476" y="695" on="0"/>
        <pt x="404" y="703" on="0"/>
        <pt x="374" y="703" on="1"/>
        <pt x="236" y="703" on="0"/>
        <pt x="104" y="541" on="0"/>
        <pt x="104" y="369" on="1"/>
        <pt x="104" y="200" on="0"/>
        <pt x="233" y="37" on="0"/>
        <pt x="366" y="37" on="1"/>
        <pt x="379" y="37" on="0"/>
        <pt x="416" y="40" on="0"/>
        <pt x="456" y="44" on="0"/>
        <pt x="495" y="50" on="0"/>
        <pt x="510" y="53" on="1"/>
        <pt x="510" y="9" on="1"/>
        <pt x="481" y="1" on="0"/>
        <pt x="402" y="-9" on="0"/>
      </contour>
      <contour>
        <pt x="305" y="799" on="1"/>
        <pt x="383" y="927" on="1"/>
        <pt x="436" y="927" on="1"/>
        <pt x="347" y="794" on="1"/>
      </contour>
    </TTGlyph>
    <TTGlyph name="Cacute.sc" xMin="53" yMin="-7" xMax="450" yMax="728">
      <contour>
        <pt x="323" y="-7" on="1"/>
        <pt x="186" y="-6" on="0"/>
        <pt x="53" y="139" on="0"/>
        <pt x="53" y="288" on="1"/>
        <pt x="53" y="440" on="0"/>
        <pt x="186" y="584" on="0"/>
        <pt x="325" y="584" on="1"/>
        <pt x="351" y="584" on="0"/>
        <pt x="418" y="577" on="0"/>
        <pt x="450" y="572" on="1"/>
        <pt x="450" y="529" on="1"/>
        <pt x="418" y="534" on="0"/>
        <pt x="356" y="541" on="0"/>
        <pt x="330" y="541" on="1"/>
        <pt x="213" y="541" on="0"/>
        <pt x="103" y="419" on="0"/>
        <pt x="103" y="288" on="1"/>
        <pt x="103" y="159" on="0"/>
        <pt x="212" y="37" on="0"/>
        <pt x="324" y="37" on="1"/>
        <pt x="335" y="37" on="0"/>
        <pt x="368" y="39" on="0"/>
        <pt x="403" y="43" on="0"/>
        <pt x="437" y="47" on="0"/>
        <pt x="450" y="50" on="1"/>
        <pt x="450" y="8" on="1"/>
        <pt x="424" y="2" on="0"/>
        <pt x="353" y="-7" on="0"/>
      </contour>
      <contour>
        <pt x="268" y="625" on="1"/>
        <pt x="334" y="728" on="1"/>
        <pt x="386" y="728" on="1"/>
        <pt x="308" y="621" on="1"/>
      </contour>
    </TTGlyph>
    <TTGlyph name="Ccaron" xMin="54" yMin="-9" xMax="510" yMax="929">
      <contour>
        <pt x="367" y="-9" on="1"/>
        <pt x="207" y="-7" on="0"/>
        <pt x="54" y="177" on="0"/>
        <pt x="54" y="369" on="1"/>
        <pt x="54" y="565" on="0"/>
        <pt x="208" y="749" on="0"/>
        <pt x="369" y="749" on="1"/>
        <pt x="398" y="749" on="0"/>
        <pt x="475" y="741" on="0"/>
        <pt x="510" y="734" on="1"/>
        <pt x="510" y="688" on="1"/>
        <pt x="476" y="695" on="0"/>
        <pt x="404" y="703" on="0"/>
        <pt x="374" y="703" on="1"/>
        <pt x="236" y="703" on="0"/>
        <pt x="104" y="541" on="0"/>
        <pt x="104" y="369" on="1"/>
        <pt x="104" y="200" on="0"/>
        <pt x="233" y="37" on="0"/>
        <pt x="366" y="37" on="1"/>
        <pt x="379" y="37" on="0"/>
        <pt x="416" y="40" on="0"/>
        <pt x="456" y="44" on="0"/>
        <pt x="495" y="50" on="0"/>
        <pt x="510" y="53" on="1"/>
        <pt x="510" y="9" on="1"/>
        <pt x="481" y="1" on="0"/>
        <pt x="402" y="-9" on="0"/>
      </contour>
      <contour>
        <pt x="192" y="929" on="1"/>
        <pt x="333" y="857" on="1"/>
        <pt x="475" y="929" on="1"/>
        <pt x="475" y="880" on="1"/>
        <pt x="333" y="807" on="1"/>
        <pt x="192" y="880" on="1"/>
      </contour>
    </TTGlyph>
    <TTGlyph name="Ccaron.sc" xMin="53" yMin="-7" xMax="450" yMax="730">
      <contour>
        <pt x="323" y="-7" on="1"/>
        <pt x="186" y="-6" on="0"/>
        <pt x="53" y="139" on="0"/>
        <pt x="53" y="288" on="1"/>
        <pt x="53" y="440" on="0"/>
        <pt x="186" y="584" on="0"/>
        <pt x="325" y="584" on="1"/>
        <pt x="351" y="584" on="0"/>
        <pt x="418" y="577" on="0"/>
        <pt x="450" y="572" on="1"/>
        <pt x="450" y="529" on="1"/>
        <pt x="418" y="534" on="0"/>
        <pt x="356" y="541" on="0"/>
        <pt x="330" y="541" on="1"/>
        <pt x="213" y="541" on="0"/>
        <pt x="103" y="419" on="0"/>
        <pt x="103" y="288" on="1"/>
        <pt x="103" y="159" on="0"/>
        <pt x="212" y="37" on="0"/>
        <pt x="324" y="37" on="1"/>
        <pt x="335" y="37" on="0"/>
        <pt x="368" y="39" on="0"/>
        <pt x="403" y="43" on="0"/>
        <pt x="437" y="47" on="0"/>
        <pt x="450" y="50" on="1"/>
        <pt x="450" y="8" on="1"/>
        <pt x="424" y="2" on="0"/>
        <pt x="353" y="-7" on="0"/>
      </contour>
      <contour>
        <pt x="170" y="730" on="1"/>
        <pt x="295" y="673" on="1"/>
        <pt x="419" y="730" on="1"/>
        <pt x="419" y="687" on="1"/>
        <pt x="295" y="630" on="1"/>
        <pt x="170" y="687" on="1"/>
      </contour>
    </TTGlyph>
    <TTGlyph name="Ccedilla" xMin="54" yMin="-220" xMax="510" yMax="749">
      <contour>
        <pt x="288" y="-220" on="1"/>
        <pt x="252" y="-220" on="0"/>
        <pt x="214" y="-209" on="1"/>
        <pt x="214" y="-167" on="1"/>
        <pt x="232" y="-173" on="0"/>
        <pt x="263" y="-178" on="0"/>
        <pt x="279" y="-178" on="1"/>
        <pt x="320" y="-178" on="0"/>
        <pt x="356" y="-144" on="0"/>
        <pt x="356" y="-106" on="1"/>
        <pt x="356" y="-83" on="0"/>
        <pt x="342" y="-36" on="0"/>
        <pt x="325" y="-7" on="1"/>
        <pt x="187" y="6" on="0"/>
        <pt x="54" y="190" on="0"/>
        <pt x="54" y="369" on="1"/>
        <pt x="54" y="565" on="0"/>
        <pt x="208" y="749" on="0"/>
        <pt x="369" y="749" on="1"/>
        <pt x="398" y="749" on="0"/>
        <pt x="475" y="741" on="0"/>
        <pt x="510" y="734" on="1"/>
        <pt x="510" y="688" on="1"/>
        <pt x="476" y="695" on="0"/>
        <pt x="404" y="703" on="0"/>
        <pt x="374" y="703" on="1"/>
        <pt x="236" y="703" on="0"/>
        <pt x="104" y="541" on="0"/>
        <pt x="104" y="369" on="1"/>
        <pt x="104" y="200" on="0"/>
        <pt x="233" y="37" on="0"/>
        <pt x="366" y="37" on="1"/>
        <pt x="379" y="37" on="0"/>
        <pt x="416" y="40" on="0"/>
        <pt x="456" y="44" on="0"/>
        <pt x="495" y="50" on="0"/>
        <pt x="510" y="53" on="1"/>
        <pt x="510" y="9" on="1"/>
        <pt x="481" y="2" on="0"/>
        <pt x="405" y="-8" on="0"/>
        <pt x="371" y="-9" on="1"/>
        <pt x="388" y="-41" on="0"/>
        <pt x="400" y="-87" on="0"/>
        <pt x="400" y="-108" on="1"/>
        <pt x="400" y="-162" on="0"/>
        <pt x="342" y="-220" on="0"/>
      </contour>
    </TTGlyph>
    <TTGlyph name="Ccedilla.sc" xMin="53" yMin="-172" xMax="450" yMax="584">
      <contour>
        <pt x="257" y="-172" on="1"/>
        <pt x="243" y="-172" on="0"/>
        <pt x="209" y="-168" on="0"/>
        <pt x="192" y="-163" on="1"/>
        <pt x="192" y="-125" on="1"/>
        <pt x="217" y="-134" on="0"/>
        <pt x="248" y="-134" on="1"/>
        <pt x="283" y="-134" on="0"/>
        <pt x="313" y="-107" on="0"/>
        <pt x="313" y="-78" on="1"/>
        <pt x="313" y="-63" on="0"/>
        <pt x="302" y="-29" on="0"/>
        <pt x="288" y="-5" on="1"/>
        <pt x="53" y="11" on="0"/>
        <pt x="53" y="288" on="1"/>
        <pt x="53" y="440" on="0"/>
        <pt x="186" y="584" on="0"/>
        <pt x="325" y="584" on="1"/>
        <pt x="351" y="584" on="0"/>
        <pt x="418" y="577" on="0"/>
        <pt x="450" y="572" on="1"/>
        <pt x="450" y="529" on="1"/>
        <pt x="418" y="534" on="0"/>
        <pt x="356" y="541" on="0"/>
        <pt x="330" y="541" on="1"/>
        <pt x="213" y="541" on="0"/>
        <pt x="103" y="419" on="0"/>
        <pt x="103" y="288" on="1"/>
        <pt x="103" y="159" on="0"/>
        <pt x="212" y="37" on="0"/>
        <pt x="324" y="37" on="1"/>
        <pt x="335" y="37" on="0"/>
        <pt x="368" y="39" on="0"/>
        <pt x="403" y="43" on="0"/>
        <pt x="437" y="47" on="0"/>
        <pt x="450" y="50" on="1"/>
        <pt x="450" y="8" on="1"/>
        <pt x="424" y="2" on="0"/>
        <pt x="358" y="-7" on="0"/>
        <pt x="330" y="-6" on="1"/>
        <pt x="343" y="-31" on="0"/>
        <pt x="354" y="-66" on="0"/>
        <pt x="354" y="-83" on="1"/>
        <pt x="354" y="-126" on="0"/>
        <pt x="305" y="-172" on="0"/>
      </contour>
    </TTGlyph>
    <TTGlyph name="Ccircumflex" xMin="54" yMin="-9" xMax="510" yMax="938">
      <contour>
        <pt x="367" y="-9" on="1"/>
        <pt x="207" y="-7" on="0"/>
        <pt x="54" y="177" on="0"/>
        <pt x="54" y="369" on="1"/>
        <pt x="54" y="565" on="0"/>
        <pt x="208" y="749" on="0"/>
        <pt x="369" y="749" on="1"/>
        <pt x="398" y="749" on="0"/>
        <pt x="475" y="741" on="0"/>
        <pt x="510" y="734" on="1"/>
        <pt x="510" y="688" on="1"/>
        <pt x="476" y="695" on="0"/>
        <pt x="404" y="703" on="0"/>
        <pt x="374" y="703" on="1"/>
        <pt x="236" y="703" on="0"/>
        <pt x="104" y="541" on="0"/>
        <pt x="104" y="369" on="1"/>
        <pt x="104" y="200" on="0"/>
        <pt x="233" y="37" on="0"/>
        <pt x="366" y="37" on="1"/>
        <pt x="379" y="37" on="0"/>
        <pt x="416" y="40" on="0"/>
        <pt x="456" y="44" on="0"/>
        <pt x="495" y="50" on="0"/>
        <pt x="510" y="53" on="1"/>
        <pt x="510" y="9" on="1"/>
        <pt x="481" y="1" on="0"/>
        <pt x="402" y="-9" on="0"/>
      </contour>
      <contour>
        <pt x="190" y="866" on="1"/>
        <pt x="331" y="938" on="1"/>
        <pt x="473" y="866" on="1"/>
        <pt x="473" y="817" on="1"/>
        <pt x="331" y="889" on="1"/>
        <pt x="190" y="817" on="1"/>
      </contour>
    </TTGlyph>
    <TTGlyph name="Ccircumflex.sc" xMin="53" yMin="-7" xMax="450" yMax="736">
      <contour>
        <pt x="323" y="-7" on="1"/>
        <pt x="186" y="-6" on="0"/>
        <pt x="53" y="139" on="0"/>
        <pt x="53" y="288" on="1"/>
        <pt x="53" y="440" on="0"/>
        <pt x="186" y="584" on="0"/>
        <pt x="325" y="584" on="1"/>
        <pt x="351" y="584" on="0"/>
        <pt x="418" y="577" on="0"/>
        <pt x="450" y="572" on="1"/>
        <pt x="450" y="529" on="1"/>
        <pt x="418" y="534" on="0"/>
        <pt x="356" y="541" on="0"/>
        <pt x="330" y="541" on="1"/>
        <pt x="213" y="541" on="0"/>
        <pt x="103" y="419" on="0"/>
        <pt x="103" y="288" on="1"/>
        <pt x="103" y="159" on="0"/>
        <pt x="212" y="37" on="0"/>
        <pt x="324" y="37" on="1"/>
        <pt x="335" y="37" on="0"/>
        <pt x="368" y="39" on="0"/>
        <pt x="403" y="43" on="0"/>
        <pt x="437" y="47" on="0"/>
        <pt x="450" y="50" on="1"/>
        <pt x="450" y="8" on="1"/>
        <pt x="424" y="2" on="0"/>
        <pt x="353" y="-7" on="0"/>
      </contour>
      <contour>
        <pt x="168" y="679" on="1"/>
        <pt x="293" y="736" on="1"/>
        <pt x="418" y="679" on="1"/>
        <pt x="418" y="635" on="1"/>
        <pt x="293" y="692" on="1"/>
        <pt x="168" y="635" on="1"/>
      </contour>
    </TTGlyph>
    <TTGlyph name="Cdotaccent" xMin="54" yMin="-9" xMax="510" yMax="888">
      <contour>
        <pt x="332" y="812" on="1"/>
        <pt x="315" y="812" on="0"/>
        <pt x="294" y="830" on="0"/>
        <pt x="294" y="850" on="1"/>
        <pt x="294" y="870" on="0"/>
        <pt x="315" y="888" on="0"/>
        <pt x="332" y="888" on="1"/>
        <pt x="349" y="888" on="0"/>
        <pt x="371" y="870" on="0"/>
        <pt x="371" y="850" on="1"/>
        <pt x="371" y="830" on="0"/>
        <pt x="349" y="812" on="0"/>
      </contour>
      <contour>
        <pt x="367" y="-9" on="1"/>
        <pt x="207" y="-7" on="0"/>
        <pt x="54" y="177" on="0"/>
        <pt x="54" y="369" on="1"/>
        <pt x="54" y="565" on="0"/>
        <pt x="208" y="749" on="0"/>
        <pt x="369" y="749" on="1"/>
        <pt x="398" y="749" on="0"/>
        <pt x="475" y="741" on="0"/>
        <pt x="510" y="734" on="1"/>
        <pt x="510" y="688" on="1"/>
        <pt x="476" y="695" on="0"/>
        <pt x="404" y="703" on="0"/>
        <pt x="374" y="703" on="1"/>
        <pt x="236" y="703" on="0"/>
        <pt x="104" y="541" on="0"/>
        <pt x="104" y="369" on="1"/>
        <pt x="104" y="200" on="0"/>
        <pt x="233" y="37" on="0"/>
        <pt x="366" y="37" on="1"/>
        <pt x="379" y="37" on="0"/>
        <pt x="416" y="40" on="0"/>
        <pt x="456" y="44" on="0"/>
        <pt x="495" y="50" on="0"/>
        <pt x="510" y="53" on="1"/>
        <pt x="510" y="9" on="1"/>
        <pt x="481" y="1" on="0"/>
        <pt x="402" y="-9" on="0"/>
      </contour>
    </TTGlyph>
    <TTGlyph name="Cdotaccent.sc" xMin="53" yMin="-7" xMax="450" yMax="701">
      <contour>
        <pt x="323" y="-7" on="1"/>
        <pt x="186" y="-6" on="0"/>
        <pt x="53" y="139" on="0"/>
        <pt x="53" y="288" on="1"/>
        <pt x="53" y="440" on="0"/>
        <pt x="186" y="584" on="0"/>
        <pt x="325" y="584" on="1"/>
        <pt x="351" y="584" on="0"/>
        <pt x="418" y="577" on="0"/>
        <pt x="450" y="572" on="1"/>
        <pt x="450" y="529" on="1"/>
        <pt x="418" y="534" on="0"/>
        <pt x="356" y="541" on="0"/>
        <pt x="330" y="541" on="1"/>
        <pt x="213" y="541" on="0"/>
        <pt x="103" y="419" on="0"/>
        <pt x="103" y="288" on="1"/>
        <pt x="103" y="159" on="0"/>
        <pt x="212" y="37" on="0"/>
        <pt x="324" y="37" on="1"/>
        <pt x="335" y="37" on="0"/>
        <pt x="368" y="39" on="0"/>
        <pt x="403" y="43" on="0"/>
        <pt x="437" y="47" on="0"/>
        <pt x="450" y="50" on="1"/>
        <pt x="450" y="8" on="1"/>
        <pt x="424" y="2" on="0"/>
        <pt x="353" y="-7" on="0"/>
      </contour>
      <contour>
        <pt x="295" y="633" on="1"/>
        <pt x="259" y="633" on="0"/>
        <pt x="259" y="668" on="1"/>
        <pt x="259" y="701" on="0"/>
        <pt x="295" y="701" on="1"/>
        <pt x="310" y="701" on="0"/>
        <pt x="331" y="685" on="0"/>
        <pt x="331" y="668" on="1"/>
        <pt x="331" y="650" on="0"/>
        <pt x="310" y="633" on="0"/>
      </contour>
    </TTGlyph>
    <TTGlyph name="D" xMin="91" yMin="-13" xMax="608" yMax="749">
      <contour>
        <pt x="243" y="-13" on="1"/>
        <pt x="196" y="-13" on="0"/>
        <pt x="115" y="-7" on="0"/>
        <pt x="91" y="-1" on="1"/>
        <pt x="91" y="736" on="1"/>
        <pt x="112" y="739" on="0"/>
        <pt x="158" y="744" on="0"/>
        <pt x="205" y="747" on="0"/>
        <pt x="248" y="749" on="0"/>
        <pt x="265" y="749" on="1"/>
        <pt x="442" y="749" on="0"/>
        <pt x="608" y="565" on="0"/>
        <pt x="608" y="370" on="1"/>
        <pt x="608" y="172" on="0"/>
        <pt x="432" y="-13" on="0"/>
      </contour>
      <contour>
        <pt x="251" y="33" on="1"/>
        <pt x="408" y="33" on="0"/>
        <pt x="557" y="197" on="0"/>
        <pt x="557" y="370" on="1"/>
        <pt x="557" y="542" on="0"/>
        <pt x="417" y="703" on="0"/>
        <pt x="266" y="703" on="1"/>
        <pt x="238" y="703" on="0"/>
        <pt x="169" y="699" on="0"/>
        <pt x="140" y="695" on="1"/>
        <pt x="140" y="41" on="1"/>
        <pt x="174" y="36" on="0"/>
        <pt x="222" y="33" on="0"/>
      </contour>
    </TTGlyph>
    <TTGlyph name="D.sc" xMin="85" yMin="-10" xMax="539" yMax="584">
      <contour>
        <pt x="224" y="-10" on="1"/>
        <pt x="181" y="-10" on="0"/>
        <pt x="108" y="-4" on="0"/>
        <pt x="85" y="1" on="1"/>
        <pt x="85" y="575" on="1"/>
        <pt x="121" y="579" on="0"/>
        <pt x="209" y="584" on="0"/>
        <pt x="239" y="584" on="1"/>
        <pt x="393" y="584" on="0"/>
        <pt x="539" y="441" on="0"/>
        <pt x="539" y="288" on="1"/>
        <pt x="539" y="133" on="0"/>
        <pt x="387" y="-10" on="0"/>
      </contour>
      <contour>
        <pt x="231" y="33" on="1"/>
        <pt x="364" y="33" on="0"/>
        <pt x="489" y="157" on="0"/>
        <pt x="489" y="288" on="1"/>
        <pt x="489" y="420" on="0"/>
        <pt x="370" y="541" on="0"/>
        <pt x="241" y="541" on="1"/>
        <pt x="218" y="541" on="0"/>
        <pt x="158" y="537" on="0"/>
        <pt x="133" y="534" on="1"/>
        <pt x="133" y="40" on="1"/>
        <pt x="162" y="36" on="0"/>
        <pt x="206" y="33" on="0"/>
      </contour>
    </TTGlyph>
    <TTGlyph name="Dcaron" xMin="91" yMin="-13" xMax="608" yMax="929">
      <contour>
        <pt x="160" y="929" on="1"/>
        <pt x="301" y="857" on="1"/>
        <pt x="443" y="929" on="1"/>
        <pt x="443" y="880" on="1"/>
        <pt x="301" y="807" on="1"/>
        <pt x="160" y="880" on="1"/>
      </contour>
      <contour>
        <pt x="243" y="-13" on="1"/>
        <pt x="196" y="-13" on="0"/>
        <pt x="115" y="-7" on="0"/>
        <pt x="91" y="-1" on="1"/>
        <pt x="91" y="736" on="1"/>
        <pt x="112" y="739" on="0"/>
        <pt x="158" y="744" on="0"/>
        <pt x="205" y="747" on="0"/>
        <pt x="248" y="749" on="0"/>
        <pt x="265" y="749" on="1"/>
        <pt x="442" y="749" on="0"/>
        <pt x="608" y="565" on="0"/>
        <pt x="608" y="370" on="1"/>
        <pt x="608" y="172" on="0"/>
        <pt x="432" y="-13" on="0"/>
      </contour>
      <contour>
        <pt x="251" y="33" on="1"/>
        <pt x="408" y="33" on="0"/>
        <pt x="557" y="197" on="0"/>
        <pt x="557" y="370" on="1"/>
        <pt x="557" y="542" on="0"/>
        <pt x="417" y="703" on="0"/>
        <pt x="266" y="703" on="1"/>
        <pt x="238" y="703" on="0"/>
        <pt x="169" y="699" on="0"/>
        <pt x="140" y="695" on="1"/>
        <pt x="140" y="41" on="1"/>
        <pt x="174" y="36" on="0"/>
        <pt x="222" y="33" on="0"/>
      </contour>
    </TTGlyph>
    <TTGlyph name="Dcaron.sc" xMin="85" yMin="-10" xMax="539" yMax="730">
      <contour>
        <pt x="224" y="-10" on="1"/>
        <pt x="181" y="-10" on="0"/>
        <pt x="108" y="-4" on="0"/>
        <pt x="85" y="1" on="1"/>
        <pt x="85" y="575" on="1"/>
        <pt x="121" y="579" on="0"/>
        <pt x="209" y="584" on="0"/>
        <pt x="239" y="584" on="1"/>
        <pt x="393" y="584" on="0"/>
        <pt x="539" y="441" on="0"/>
        <pt x="539" y="288" on="1"/>
        <pt x="539" y="133" on="0"/>
        <pt x="387" y="-10" on="0"/>
      </contour>
      <contour>
        <pt x="231" y="33" on="1"/>
        <pt x="364" y="33" on="0"/>
        <pt x="489" y="157" on="0"/>
        <pt x="489" y="288" on="1"/>
        <pt x="489" y="420" on="0"/>
        <pt x="370" y="541" on="0"/>
        <pt x="241" y="541" on="1"/>
        <pt x="218" y="541" on="0"/>
        <pt x="158" y="537" on="0"/>
        <pt x="133" y="534" on="1"/>
        <pt x="133" y="40" on="1"/>
        <pt x="162" y="36" on="0"/>
        <pt x="206" y="33" on="0"/>
      </contour>
      <contour>
        <pt x="146" y="687" on="1"/>
        <pt x="146" y="730" on="1"/>
        <pt x="271" y="673" on="1"/>
        <pt x="396" y="730" on="1"/>
        <pt x="396" y="687" on="1"/>
        <pt x="271" y="630" on="1"/>
      </contour>
    </TTGlyph>
    <TTGlyph name="Dcroat" xMin="3" yMin="-13" xMax="616" yMax="749">
      <contour>
        <pt x="3" y="391" on="1"/>
        <pt x="99" y="391" on="1"/>
        <pt x="99" y="736" on="1"/>
        <pt x="120" y="739" on="0"/>
        <pt x="166" y="744" on="0"/>
        <pt x="213" y="747" on="0"/>
        <pt x="256" y="749" on="0"/>
        <pt x="273" y="749" on="1"/>
        <pt x="450" y="749" on="0"/>
        <pt x="616" y="565" on="0"/>
        <pt x="616" y="370" on="1"/>
        <pt x="616" y="172" on="0"/>
        <pt x="440" y="-13" on="0"/>
        <pt x="251" y="-13" on="1"/>
        <pt x="204" y="-13" on="0"/>
        <pt x="123" y="-7" on="0"/>
        <pt x="99" y="-1" on="1"/>
        <pt x="99" y="346" on="1"/>
        <pt x="3" y="346" on="1"/>
      </contour>
      <contour>
        <pt x="259" y="33" on="1"/>
        <pt x="416" y="33" on="0"/>
        <pt x="565" y="197" on="0"/>
        <pt x="565" y="370" on="1"/>
        <pt x="565" y="542" on="0"/>
        <pt x="425" y="703" on="0"/>
        <pt x="274" y="703" on="1"/>
        <pt x="246" y="703" on="0"/>
        <pt x="177" y="699" on="0"/>
        <pt x="148" y="695" on="1"/>
        <pt x="148" y="391" on="1"/>
        <pt x="337" y="391" on="1"/>
        <pt x="337" y="346" on="1"/>
        <pt x="148" y="346" on="1"/>
        <pt x="148" y="41" on="1"/>
        <pt x="182" y="36" on="0"/>
        <pt x="230" y="33" on="0"/>
      </contour>
    </TTGlyph>
    <TTGlyph name="Dcroat.sc" xMin="11" yMin="-10" xMax="546" yMax="584">
      <contour>
        <pt x="11" y="309" on="1"/>
        <pt x="93" y="309" on="1"/>
        <pt x="93" y="575" on="1"/>
        <pt x="111" y="577" on="0"/>
        <pt x="153" y="580" on="0"/>
        <pt x="194" y="583" on="0"/>
        <pt x="232" y="584" on="0"/>
        <pt x="247" y="584" on="1"/>
        <pt x="401" y="584" on="0"/>
        <pt x="546" y="441" on="0"/>
        <pt x="546" y="288" on="1"/>
        <pt x="546" y="133" on="0"/>
        <pt x="394" y="-10" on="0"/>
        <pt x="229" y="-10" on="1"/>
        <pt x="187" y="-10" on="0"/>
        <pt x="114" y="-4" on="0"/>
        <pt x="93" y="1" on="1"/>
        <pt x="93" y="266" on="1"/>
        <pt x="11" y="266" on="1"/>
      </contour>
      <contour>
        <pt x="239" y="33" on="1"/>
        <pt x="371" y="33" on="0"/>
        <pt x="497" y="157" on="0"/>
        <pt x="497" y="288" on="1"/>
        <pt x="497" y="420" on="0"/>
        <pt x="377" y="541" on="0"/>
        <pt x="249" y="541" on="1"/>
        <pt x="226" y="541" on="0"/>
        <pt x="166" y="537" on="0"/>
        <pt x="141" y="534" on="1"/>
        <pt x="141" y="309" on="1"/>
        <pt x="301" y="309" on="1"/>
        <pt x="301" y="266" on="1"/>
        <pt x="141" y="266" on="1"/>
        <pt x="141" y="40" on="1"/>
        <pt x="170" y="36" on="0"/>
        <pt x="213" y="33" on="0"/>
      </contour>
    </TTGlyph>
    <TTGlyph name="Ddotbelow" xMin="91" yMin="-170" xMax="608" yMax="749">
      <contour>
        <pt x="308" y="-170" on="1"/>
        <pt x="268" y="-170" on="0"/>
        <pt x="268" y="-130" on="1"/>
        <pt x="268" y="-89" on="0"/>
        <pt x="308" y="-89" on="1"/>
        <pt x="326" y="-89" on="0"/>
        <pt x="349" y="-108" on="0"/>
        <pt x="349" y="-130" on="1"/>
        <pt x="349" y="-152" on="0"/>
        <pt x="326" y="-170" on="0"/>
      </contour>
      <contour>
        <pt x="243" y="-13" on="1"/>
        <pt x="196" y="-13" on="0"/>
        <pt x="115" y="-7" on="0"/>
        <pt x="91" y="-1" on="1"/>
        <pt x="91" y="736" on="1"/>
        <pt x="112" y="739" on="0"/>
        <pt x="158" y="744" on="0"/>
        <pt x="205" y="747" on="0"/>
        <pt x="248" y="749" on="0"/>
        <pt x="265" y="749" on="1"/>
        <pt x="442" y="749" on="0"/>
        <pt x="608" y="565" on="0"/>
        <pt x="608" y="370" on="1"/>
        <pt x="608" y="172" on="0"/>
        <pt x="432" y="-13" on="0"/>
      </contour>
      <contour>
        <pt x="251" y="33" on="1"/>
        <pt x="408" y="33" on="0"/>
        <pt x="557" y="197" on="0"/>
        <pt x="557" y="370" on="1"/>
        <pt x="557" y="542" on="0"/>
        <pt x="417" y="703" on="0"/>
        <pt x="266" y="703" on="1"/>
        <pt x="238" y="703" on="0"/>
        <pt x="169" y="699" on="0"/>
        <pt x="140" y="695" on="1"/>
        <pt x="140" y="41" on="1"/>
        <pt x="174" y="36" on="0"/>
        <pt x="222" y="33" on="0"/>
      </contour>
    </TTGlyph>
    <TTGlyph name="Ddotbelow.sc" xMin="85" yMin="-136" xMax="539" yMax="584">
      <contour>
        <pt x="224" y="-10" on="1"/>
        <pt x="181" y="-10" on="0"/>
        <pt x="108" y="-4" on="0"/>
        <pt x="85" y="1" on="1"/>
        <pt x="85" y="575" on="1"/>
        <pt x="121" y="579" on="0"/>
        <pt x="209" y="584" on="0"/>
        <pt x="239" y="584" on="1"/>
        <pt x="393" y="584" on="0"/>
        <pt x="539" y="441" on="0"/>
        <pt x="539" y="288" on="1"/>
        <pt x="539" y="133" on="0"/>
        <pt x="387" y="-10" on="0"/>
      </contour>
      <contour>
        <pt x="231" y="33" on="1"/>
        <pt x="364" y="33" on="0"/>
        <pt x="489" y="157" on="0"/>
        <pt x="489" y="288" on="1"/>
        <pt x="489" y="420" on="0"/>
        <pt x="370" y="541" on="0"/>
        <pt x="241" y="541" on="1"/>
        <pt x="218" y="541" on="0"/>
        <pt x="158" y="537" on="0"/>
        <pt x="133" y="534" on="1"/>
        <pt x="133" y="40" on="1"/>
        <pt x="162" y="36" on="0"/>
        <pt x="206" y="33" on="0"/>
      </contour>
      <contour>
        <pt x="278" y="-136" on="1"/>
        <pt x="242" y="-136" on="0"/>
        <pt x="242" y="-102" on="1"/>
        <pt x="242" y="-68" on="0"/>
        <pt x="278" y="-68" on="1"/>
        <pt x="294" y="-68" on="0"/>
        <pt x="314" y="-84" on="0"/>
        <pt x="314" y="-102" on="1"/>
        <pt x="314" y="-120" on="0"/>
        <pt x="294" y="-136" on="0"/>
      </contour>
    </TTGlyph>
    <TTGlyph name="Delta" xMin="24" yMin="0" xMax="634" yMax="740">
      <contour>
        <pt x="298" y="740" on="1"/>
        <pt x="361" y="740" on="1"/>
        <pt x="634" y="0" on="1"/>
        <pt x="24" y="0" on="1"/>
      </contour>
      <contour>
        <pt x="568" y="45" on="1"/>
        <pt x="329" y="690" on="1"/>
        <pt x="90" y="45" on="1"/>
      </contour>
    </TTGlyph>
    <TTGlyph name="E" xMin="91" yMin="0" xMax="514" yMax="740">
      <contour>
        <pt x="91" y="740" on="1"/>
        <pt x="505" y="740" on="1"/>
        <pt x="505" y="695" on="1"/>
        <pt x="140" y="695" on="1"/>
        <pt x="140" y="399" on="1"/>
        <pt x="479" y="399" on="1"/>
        <pt x="479" y="354" on="1"/>
        <pt x="140" y="354" on="1"/>
        <pt x="140" y="45" on="1"/>
        <pt x="514" y="45" on="1"/>
        <pt x="514" y="0" on="1"/>
        <pt x="91" y="0" on="1"/>
      </contour>
    </TTGlyph>
    <TTGlyph name="E.sc" xMin="86" yMin="0" xMax="456" yMax="577">
      <contour>
        <pt x="86" y="577" on="1"/>
        <pt x="449" y="577" on="1"/>
        <pt x="449" y="535" on="1"/>
        <pt x="134" y="535" on="1"/>
        <pt x="134" y="314" on="1"/>
        <pt x="427" y="314" on="1"/>
        <pt x="427" y="273" on="1"/>
        <pt x="134" y="273" on="1"/>
        <pt x="134" y="43" on="1"/>
        <pt x="456" y="43" on="1"/>
        <pt x="456" y="0" on="1"/>
        <pt x="86" y="0" on="1"/>
      </contour>
    </TTGlyph>
    <TTGlyph name="Eacute" xMin="91" yMin="0" xMax="514" yMax="927">
      <contour>
        <pt x="272" y="799" on="1"/>
        <pt x="350" y="927" on="1"/>
        <pt x="403" y="927" on="1"/>
        <pt x="314" y="794" on="1"/>
      </contour>
      <contour>
        <pt x="91" y="740" on="1"/>
        <pt x="505" y="740" on="1"/>
        <pt x="505" y="695" on="1"/>
        <pt x="140" y="695" on="1"/>
        <pt x="140" y="399" on="1"/>
        <pt x="479" y="399" on="1"/>
        <pt x="479" y="354" on="1"/>
        <pt x="140" y="354" on="1"/>
        <pt x="140" y="45" on="1"/>
        <pt x="514" y="45" on="1"/>
        <pt x="514" y="0" on="1"/>
        <pt x="91" y="0" on="1"/>
      </contour>
    </TTGlyph>
    <TTGlyph name="Eacute.sc" xMin="86" yMin="0" xMax="456" yMax="728">
      <contour>
        <pt x="86" y="577" on="1"/>
        <pt x="449" y="577" on="1"/>
        <pt x="449" y="535" on="1"/>
        <pt x="134" y="535" on="1"/>
        <pt x="134" y="314" on="1"/>
        <pt x="427" y="314" on="1"/>
        <pt x="427" y="273" on="1"/>
        <pt x="134" y="273" on="1"/>
        <pt x="134" y="43" on="1"/>
        <pt x="456" y="43" on="1"/>
        <pt x="456" y="0" on="1"/>
        <pt x="86" y="0" on="1"/>
      </contour>
      <contour>
        <pt x="243" y="625" on="1"/>
        <pt x="309" y="728" on="1"/>
        <pt x="360" y="728" on="1"/>
        <pt x="283" y="621" on="1"/>
      </contour>
    </TTGlyph>
    <TTGlyph name="Ebreve" xMin="91" yMin="0" xMax="514" yMax="952">
      <contour>
        <pt x="299" y="815" on="1"/>
        <pt x="224" y="815" on="0"/>
        <pt x="142" y="888" on="0"/>
        <pt x="142" y="952" on="1"/>
        <pt x="185" y="952" on="1"/>
        <pt x="185" y="905" on="0"/>
        <pt x="245" y="854" on="0"/>
        <pt x="299" y="854" on="1"/>
        <pt x="353" y="854" on="0"/>
        <pt x="412" y="905" on="0"/>
        <pt x="412" y="952" on="1"/>
        <pt x="455" y="952" on="1"/>
        <pt x="455" y="888" on="0"/>
        <pt x="373" y="815" on="0"/>
      </contour>
      <contour>
        <pt x="91" y="740" on="1"/>
        <pt x="505" y="740" on="1"/>
        <pt x="505" y="695" on="1"/>
        <pt x="140" y="695" on="1"/>
        <pt x="140" y="399" on="1"/>
        <pt x="479" y="399" on="1"/>
        <pt x="479" y="354" on="1"/>
        <pt x="140" y="354" on="1"/>
        <pt x="140" y="45" on="1"/>
        <pt x="514" y="45" on="1"/>
        <pt x="514" y="0" on="1"/>
        <pt x="91" y="0" on="1"/>
      </contour>
    </TTGlyph>
    <TTGlyph name="Ebreve.sc" xMin="86" yMin="0" xMax="456" yMax="745">
      <contour>
        <pt x="268" y="634" on="1"/>
        <pt x="202" y="634" on="0"/>
        <pt x="131" y="694" on="0"/>
        <pt x="131" y="745" on="1"/>
        <pt x="171" y="745" on="1"/>
        <pt x="171" y="708" on="0"/>
        <pt x="221" y="669" on="0"/>
        <pt x="268" y="669" on="1"/>
        <pt x="315" y="669" on="0"/>
        <pt x="365" y="708" on="0"/>
        <pt x="365" y="745" on="1"/>
        <pt x="405" y="745" on="1"/>
        <pt x="405" y="694" on="0"/>
        <pt x="334" y="634" on="0"/>
      </contour>
      <contour>
        <pt x="86" y="577" on="1"/>
        <pt x="449" y="577" on="1"/>
        <pt x="449" y="535" on="1"/>
        <pt x="134" y="535" on="1"/>
        <pt x="134" y="314" on="1"/>
        <pt x="427" y="314" on="1"/>
        <pt x="427" y="273" on="1"/>
        <pt x="134" y="273" on="1"/>
        <pt x="134" y="43" on="1"/>
        <pt x="456" y="43" on="1"/>
        <pt x="456" y="0" on="1"/>
        <pt x="86" y="0" on="1"/>
      </contour>
    </TTGlyph>
    <TTGlyph name="Ecaron" xMin="91" yMin="0" xMax="514" yMax="929">
      <contour>
        <pt x="159" y="929" on="1"/>
        <pt x="300" y="857" on="1"/>
        <pt x="442" y="929" on="1"/>
        <pt x="442" y="880" on="1"/>
        <pt x="300" y="807" on="1"/>
        <pt x="159" y="880" on="1"/>
      </contour>
      <contour>
        <pt x="91" y="740" on="1"/>
        <pt x="505" y="740" on="1"/>
        <pt x="505" y="695" on="1"/>
        <pt x="140" y="695" on="1"/>
        <pt x="140" y="399" on="1"/>
        <pt x="479" y="399" on="1"/>
        <pt x="479" y="354" on="1"/>
        <pt x="140" y="354" on="1"/>
        <pt x="140" y="45" on="1"/>
        <pt x="514" y="45" on="1"/>
        <pt x="514" y="0" on="1"/>
        <pt x="91" y="0" on="1"/>
      </contour>
    </TTGlyph>
    <TTGlyph name="Ecaron.sc" xMin="86" yMin="0" xMax="456" yMax="730">
      <contour>
        <pt x="86" y="577" on="1"/>
        <pt x="449" y="577" on="1"/>
        <pt x="449" y="535" on="1"/>
        <pt x="134" y="535" on="1"/>
        <pt x="134" y="314" on="1"/>
        <pt x="427" y="314" on="1"/>
        <pt x="427" y="273" on="1"/>
        <pt x="134" y="273" on="1"/>
        <pt x="134" y="43" on="1"/>
        <pt x="456" y="43" on="1"/>
        <pt x="456" y="0" on="1"/>
        <pt x="86" y="0" on="1"/>
      </contour>
      <contour>
        <pt x="146" y="687" on="1"/>
        <pt x="146" y="730" on="1"/>
        <pt x="270" y="673" on="1"/>
        <pt x="395" y="730" on="1"/>
        <pt x="395" y="687" on="1"/>
        <pt x="270" y="630" on="1"/>
      </contour>
    </TTGlyph>
    <TTGlyph name="Ecircumflex" xMin="91" yMin="0" xMax="514" yMax="938">
      <contour>
        <pt x="91" y="740" on="1"/>
        <pt x="505" y="740" on="1"/>
        <pt x="505" y="695" on="1"/>
        <pt x="140" y="695" on="1"/>
        <pt x="140" y="399" on="1"/>
        <pt x="479" y="399" on="1"/>
        <pt x="479" y="354" on="1"/>
        <pt x="140" y="354" on="1"/>
        <pt x="140" y="45" on="1"/>
        <pt x="514" y="45" on="1"/>
        <pt x="514" y="0" on="1"/>
        <pt x="91" y="0" on="1"/>
      </contour>
      <contour>
        <pt x="158" y="866" on="1"/>
        <pt x="299" y="938" on="1"/>
        <pt x="441" y="866" on="1"/>
        <pt x="441" y="817" on="1"/>
        <pt x="299" y="889" on="1"/>
        <pt x="158" y="817" on="1"/>
      </contour>
    </TTGlyph>
    <TTGlyph name="Ecircumflex.sc" xMin="86" yMin="0" xMax="456" yMax="736">
      <contour>
        <pt x="86" y="577" on="1"/>
        <pt x="449" y="577" on="1"/>
        <pt x="449" y="535" on="1"/>
        <pt x="134" y="535" on="1"/>
        <pt x="134" y="314" on="1"/>
        <pt x="427" y="314" on="1"/>
        <pt x="427" y="273" on="1"/>
        <pt x="134" y="273" on="1"/>
        <pt x="134" y="43" on="1"/>
        <pt x="456" y="43" on="1"/>
        <pt x="456" y="0" on="1"/>
        <pt x="86" y="0" on="1"/>
      </contour>
      <contour>
        <pt x="145" y="679" on="1"/>
        <pt x="269" y="736" on="1"/>
        <pt x="394" y="679" on="1"/>
        <pt x="394" y="635" on="1"/>
        <pt x="269" y="692" on="1"/>
        <pt x="145" y="635" on="1"/>
      </contour>
    </TTGlyph>
    <TTGlyph name="Edblgrave" xMin="91" yMin="0" xMax="514" yMax="922">
      <contour>
        <pt x="91" y="740" on="1"/>
        <pt x="505" y="740" on="1"/>
        <pt x="505" y="695" on="1"/>
        <pt x="140" y="695" on="1"/>
        <pt x="140" y="399" on="1"/>
        <pt x="479" y="399" on="1"/>
        <pt x="479" y="354" on="1"/>
        <pt x="140" y="354" on="1"/>
        <pt x="140" y="45" on="1"/>
        <pt x="514" y="45" on="1"/>
        <pt x="514" y="0" on="1"/>
        <pt x="91" y="0" on="1"/>
      </contour>
      <contour>
        <pt x="213" y="790" on="1"/>
        <pt x="124" y="922" on="1"/>
        <pt x="175" y="922" on="1"/>
        <pt x="253" y="804" on="1"/>
      </contour>
      <contour>
        <pt x="348" y="790" on="1"/>
        <pt x="259" y="922" on="1"/>
        <pt x="311" y="922" on="1"/>
        <pt x="388" y="804" on="1"/>
      </contour>
    </TTGlyph>
    <TTGlyph name="Edblgrave.sc" xMin="86" yMin="0" xMax="456" yMax="724">
      <contour>
        <pt x="86" y="577" on="1"/>
        <pt x="449" y="577" on="1"/>
        <pt x="449" y="535" on="1"/>
        <pt x="134" y="535" on="1"/>
        <pt x="134" y="314" on="1"/>
        <pt x="427" y="314" on="1"/>
        <pt x="427" y="273" on="1"/>
        <pt x="134" y="273" on="1"/>
        <pt x="134" y="43" on="1"/>
        <pt x="456" y="43" on="1"/>
        <pt x="456" y="0" on="1"/>
        <pt x="86" y="0" on="1"/>
      </contour>
      <contour>
        <pt x="114" y="724" on="1"/>
        <pt x="163" y="724" on="1"/>
        <pt x="229" y="628" on="1"/>
        <pt x="191" y="617" on="1"/>
      </contour>
      <contour>
        <pt x="233" y="724" on="1"/>
        <pt x="282" y="724" on="1"/>
        <pt x="348" y="628" on="1"/>
        <pt x="310" y="617" on="1"/>
      </contour>
    </TTGlyph>
    <TTGlyph name="Edieresis" xMin="91" yMin="0" xMax="514" yMax="897">
      <contour>
        <pt x="188" y="822" on="1"/>
        <pt x="171" y="822" on="0"/>
        <pt x="150" y="839" on="0"/>
        <pt x="150" y="859" on="1"/>
        <pt x="150" y="879" on="0"/>
        <pt x="171" y="897" on="0"/>
        <pt x="188" y="897" on="1"/>
        <pt x="205" y="897" on="0"/>
        <pt x="226" y="879" on="0"/>
        <pt x="226" y="859" on="1"/>
        <pt x="226" y="839" on="0"/>
        <pt x="205" y="822" on="0"/>
      </contour>
      <contour>
        <pt x="411" y="822" on="1"/>
        <pt x="394" y="822" on="0"/>
        <pt x="372" y="839" on="0"/>
        <pt x="372" y="859" on="1"/>
        <pt x="372" y="879" on="0"/>
        <pt x="394" y="897" on="0"/>
        <pt x="411" y="897" on="1"/>
        <pt x="427" y="897" on="0"/>
        <pt x="449" y="879" on="0"/>
        <pt x="449" y="859" on="1"/>
        <pt x="449" y="839" on="0"/>
        <pt x="427" y="822" on="0"/>
      </contour>
      <contour>
        <pt x="91" y="740" on="1"/>
        <pt x="505" y="740" on="1"/>
        <pt x="505" y="695" on="1"/>
        <pt x="140" y="695" on="1"/>
        <pt x="140" y="399" on="1"/>
        <pt x="479" y="399" on="1"/>
        <pt x="479" y="354" on="1"/>
        <pt x="140" y="354" on="1"/>
        <pt x="140" y="45" on="1"/>
        <pt x="514" y="45" on="1"/>
        <pt x="514" y="0" on="1"/>
        <pt x="91" y="0" on="1"/>
      </contour>
    </TTGlyph>
    <TTGlyph name="Edieresis.sc" xMin="86" yMin="0" xMax="456" yMax="708">
      <contour>
        <pt x="170" y="640" on="1"/>
        <pt x="154" y="640" on="0"/>
        <pt x="135" y="657" on="0"/>
        <pt x="135" y="674" on="1"/>
        <pt x="135" y="692" on="0"/>
        <pt x="154" y="708" on="0"/>
        <pt x="170" y="708" on="1"/>
        <pt x="186" y="708" on="0"/>
        <pt x="206" y="692" on="0"/>
        <pt x="206" y="674" on="1"/>
        <pt x="206" y="656" on="0"/>
        <pt x="186" y="640" on="0"/>
      </contour>
      <contour>
        <pt x="367" y="640" on="1"/>
        <pt x="332" y="640" on="0"/>
        <pt x="332" y="674" on="1"/>
        <pt x="332" y="708" on="0"/>
        <pt x="367" y="708" on="1"/>
        <pt x="383" y="708" on="0"/>
        <pt x="403" y="692" on="0"/>
        <pt x="403" y="674" on="1"/>
        <pt x="403" y="656" on="0"/>
        <pt x="383" y="640" on="0"/>
      </contour>
      <contour>
        <pt x="86" y="577" on="1"/>
        <pt x="449" y="577" on="1"/>
        <pt x="449" y="535" on="1"/>
        <pt x="134" y="535" on="1"/>
        <pt x="134" y="314" on="1"/>
        <pt x="427" y="314" on="1"/>
        <pt x="427" y="273" on="1"/>
        <pt x="134" y="273" on="1"/>
        <pt x="134" y="43" on="1"/>
        <pt x="456" y="43" on="1"/>
        <pt x="456" y="0" on="1"/>
        <pt x="86" y="0" on="1"/>
      </contour>
    </TTGlyph>
    <TTGlyph name="Edotaccent" xMin="91" yMin="0" xMax="514" yMax="888">
      <contour>
        <pt x="298" y="812" on="1"/>
        <pt x="281" y="812" on="0"/>
        <pt x="260" y="830" on="0"/>
        <pt x="260" y="850" on="1"/>
        <pt x="260" y="870" on="0"/>
        <pt x="281" y="888" on="0"/>
        <pt x="298" y="888" on="1"/>
        <pt x="315" y="888" on="0"/>
        <pt x="337" y="870" on="0"/>
        <pt x="337" y="850" on="1"/>
        <pt x="337" y="830" on="0"/>
        <pt x="315" y="812" on="0"/>
      </contour>
      <contour>
        <pt x="91" y="740" on="1"/>
        <pt x="505" y="740" on="1"/>
        <pt x="505" y="695" on="1"/>
        <pt x="140" y="695" on="1"/>
        <pt x="140" y="399" on="1"/>
        <pt x="479" y="399" on="1"/>
        <pt x="479" y="354" on="1"/>
        <pt x="140" y="354" on="1"/>
        <pt x="140" y="45" on="1"/>
        <pt x="514" y="45" on="1"/>
        <pt x="514" y="0" on="1"/>
        <pt x="91" y="0" on="1"/>
      </contour>
    </TTGlyph>
    <TTGlyph name="Edotaccent.sc" xMin="86" yMin="0" xMax="456" yMax="701">
      <contour>
        <pt x="268" y="633" on="1"/>
        <pt x="233" y="633" on="0"/>
        <pt x="233" y="668" on="1"/>
        <pt x="233" y="701" on="0"/>
        <pt x="268" y="701" on="1"/>
        <pt x="283" y="701" on="0"/>
        <pt x="304" y="685" on="0"/>
        <pt x="304" y="668" on="1"/>
        <pt x="304" y="650" on="0"/>
        <pt x="283" y="633" on="0"/>
      </contour>
      <contour>
        <pt x="86" y="577" on="1"/>
        <pt x="449" y="577" on="1"/>
        <pt x="449" y="535" on="1"/>
        <pt x="134" y="535" on="1"/>
        <pt x="134" y="314" on="1"/>
        <pt x="427" y="314" on="1"/>
        <pt x="427" y="273" on="1"/>
        <pt x="134" y="273" on="1"/>
        <pt x="134" y="43" on="1"/>
        <pt x="456" y="43" on="1"/>
        <pt x="456" y="0" on="1"/>
        <pt x="86" y="0" on="1"/>
      </contour>
    </TTGlyph>
    <TTGlyph name="Edotbelow" xMin="91" yMin="-170" xMax="514" yMax="740">
      <contour>
        <pt x="91" y="740" on="1"/>
        <pt x="505" y="740" on="1"/>
        <pt x="505" y="695" on="1"/>
        <pt x="140" y="695" on="1"/>
        <pt x="140" y="399" on="1"/>
        <pt x="479" y="399" on="1"/>
        <pt x="479" y="354" on="1"/>
        <pt x="140" y="354" on="1"/>
        <pt x="140" y="45" on="1"/>
        <pt x="514" y="45" on="1"/>
        <pt x="514" y="0" on="1"/>
        <pt x="91" y="0" on="1"/>
      </contour>
      <contour>
        <pt x="317" y="-170" on="1"/>
        <pt x="277" y="-170" on="0"/>
        <pt x="277" y="-130" on="1"/>
        <pt x="277" y="-89" on="0"/>
        <pt x="317" y="-89" on="1"/>
        <pt x="335" y="-89" on="0"/>
        <pt x="358" y="-108" on="0"/>
        <pt x="358" y="-130" on="1"/>
        <pt x="358" y="-152" on="0"/>
        <pt x="335" y="-170" on="0"/>
      </contour>
    </TTGlyph>
    <TTGlyph name="Edotbelow.sc" xMin="86" yMin="-136" xMax="456" yMax="577">
      <contour>
        <pt x="283" y="-136" on="1"/>
        <pt x="266" y="-136" on="0"/>
        <pt x="247" y="-120" on="0"/>
        <pt x="247" y="-102" on="1"/>
        <pt x="247" y="-84" on="0"/>
        <pt x="266" y="-68" on="0"/>
        <pt x="283" y="-68" on="1"/>
        <pt x="300" y="-68" on="0"/>
        <pt x="320" y="-84" on="0"/>
        <pt x="320" y="-102" on="1"/>
        <pt x="320" y="-120" on="0"/>
        <pt x="300" y="-136" on="0"/>
      </contour>
      <contour>
        <pt x="86" y="577" on="1"/>
        <pt x="449" y="577" on="1"/>
        <pt x="449" y="535" on="1"/>
        <pt x="134" y="535" on="1"/>
        <pt x="134" y="314" on="1"/>
        <pt x="427" y="314" on="1"/>
        <pt x="427" y="273" on="1"/>
        <pt x="134" y="273" on="1"/>
        <pt x="134" y="43" on="1"/>
        <pt x="456" y="43" on="1"/>
        <pt x="456" y="0" on="1"/>
        <pt x="86" y="0" on="1"/>
      </contour>
    </TTGlyph>
    <TTGlyph name="Egrave" xMin="91" yMin="0" xMax="514" yMax="927">
      <contour>
        <pt x="278" y="794" on="1"/>
        <pt x="190" y="927" on="1"/>
        <pt x="243" y="927" on="1"/>
        <pt x="320" y="808" on="1"/>
      </contour>
      <contour>
        <pt x="91" y="740" on="1"/>
        <pt x="505" y="740" on="1"/>
        <pt x="505" y="695" on="1"/>
        <pt x="140" y="695" on="1"/>
        <pt x="140" y="399" on="1"/>
        <pt x="479" y="399" on="1"/>
        <pt x="479" y="354" on="1"/>
        <pt x="140" y="354" on="1"/>
        <pt x="140" y="45" on="1"/>
        <pt x="514" y="45" on="1"/>
        <pt x="514" y="0" on="1"/>
        <pt x="91" y="0" on="1"/>
      </contour>
    </TTGlyph>
    <TTGlyph name="Egrave.sc" xMin="86" yMin="0" xMax="456" yMax="728">
      <contour>
        <pt x="86" y="577" on="1"/>
        <pt x="449" y="577" on="1"/>
        <pt x="449" y="535" on="1"/>
        <pt x="134" y="535" on="1"/>
        <pt x="134" y="314" on="1"/>
        <pt x="427" y="314" on="1"/>
        <pt x="427" y="273" on="1"/>
        <pt x="134" y="273" on="1"/>
        <pt x="134" y="43" on="1"/>
        <pt x="456" y="43" on="1"/>
        <pt x="456" y="0" on="1"/>
        <pt x="86" y="0" on="1"/>
      </contour>
      <contour>
        <pt x="173" y="728" on="1"/>
        <pt x="224" y="728" on="1"/>
        <pt x="290" y="631" on="1"/>
        <pt x="250" y="621" on="1"/>
      </contour>
    </TTGlyph>
    <TTGlyph name="Einvertedbreve" xMin="91" yMin="0" xMax="514" yMax="957">
      <contour>
        <pt x="91" y="740" on="1"/>
        <pt x="505" y="740" on="1"/>
        <pt x="505" y="695" on="1"/>
        <pt x="140" y="695" on="1"/>
        <pt x="140" y="399" on="1"/>
        <pt x="479" y="399" on="1"/>
        <pt x="479" y="354" on="1"/>
        <pt x="140" y="354" on="1"/>
        <pt x="140" y="45" on="1"/>
        <pt x="514" y="45" on="1"/>
        <pt x="514" y="0" on="1"/>
        <pt x="91" y="0" on="1"/>
      </contour>
      <contour>
        <pt x="412" y="820" on="1"/>
        <pt x="412" y="867" on="0"/>
        <pt x="352" y="918" on="0"/>
        <pt x="298" y="918" on="1"/>
        <pt x="244" y="918" on="0"/>
        <pt x="185" y="867" on="0"/>
        <pt x="185" y="820" on="1"/>
        <pt x="142" y="820" on="1"/>
        <pt x="142" y="884" on="0"/>
        <pt x="224" y="957" on="0"/>
        <pt x="298" y="957" on="1"/>
        <pt x="373" y="957" on="0"/>
        <pt x="455" y="884" on="0"/>
        <pt x="455" y="820" on="1"/>
      </contour>
    </TTGlyph>
    <TTGlyph name="Einvertedbreve.sc" xMin="86" yMin="0" xMax="456" yMax="749">
      <contour>
        <pt x="130" y="639" on="1"/>
        <pt x="130" y="690" on="0"/>
        <pt x="202" y="749" on="0"/>
        <pt x="268" y="749" on="1"/>
        <pt x="334" y="749" on="0"/>
        <pt x="405" y="690" on="0"/>
        <pt x="405" y="639" on="1"/>
        <pt x="365" y="639" on="1"/>
        <pt x="365" y="675" on="0"/>
        <pt x="315" y="715" on="0"/>
        <pt x="268" y="715" on="1"/>
        <pt x="221" y="715" on="0"/>
        <pt x="171" y="675" on="0"/>
        <pt x="171" y="639" on="1"/>
      </contour>
      <contour>
        <pt x="86" y="577" on="1"/>
        <pt x="449" y="577" on="1"/>
        <pt x="449" y="535" on="1"/>
        <pt x="134" y="535" on="1"/>
        <pt x="134" y="314" on="1"/>
        <pt x="427" y="314" on="1"/>
        <pt x="427" y="273" on="1"/>
        <pt x="134" y="273" on="1"/>
        <pt x="134" y="43" on="1"/>
        <pt x="456" y="43" on="1"/>
        <pt x="456" y="0" on="1"/>
        <pt x="86" y="0" on="1"/>
      </contour>
    </TTGlyph>
    <TTGlyph name="Emacron" xMin="91" yMin="0" xMax="514" yMax="884">
      <contour>
        <pt x="162" y="884" on="1"/>
        <pt x="428" y="884" on="1"/>
        <pt x="428" y="842" on="1"/>
        <pt x="162" y="842" on="1"/>
      </contour>
      <contour>
        <pt x="91" y="740" on="1"/>
        <pt x="505" y="740" on="1"/>
        <pt x="505" y="695" on="1"/>
        <pt x="140" y="695" on="1"/>
        <pt x="140" y="399" on="1"/>
        <pt x="479" y="399" on="1"/>
        <pt x="479" y="354" on="1"/>
        <pt x="140" y="354" on="1"/>
        <pt x="140" y="45" on="1"/>
        <pt x="514" y="45" on="1"/>
        <pt x="514" y="0" on="1"/>
        <pt x="91" y="0" on="1"/>
      </contour>
    </TTGlyph>
    <TTGlyph name="Emacron.sc" xMin="86" yMin="0" xMax="456" yMax="695">
      <contour>
        <pt x="86" y="577" on="1"/>
        <pt x="449" y="577" on="1"/>
        <pt x="449" y="535" on="1"/>
        <pt x="134" y="535" on="1"/>
        <pt x="134" y="314" on="1"/>
        <pt x="427" y="314" on="1"/>
        <pt x="427" y="273" on="1"/>
        <pt x="134" y="273" on="1"/>
        <pt x="134" y="43" on="1"/>
        <pt x="456" y="43" on="1"/>
        <pt x="456" y="0" on="1"/>
        <pt x="86" y="0" on="1"/>
      </contour>
      <contour>
        <pt x="147" y="695" on="1"/>
        <pt x="383" y="695" on="1"/>
        <pt x="383" y="656" on="1"/>
        <pt x="147" y="656" on="1"/>
      </contour>
    </TTGlyph>
    <TTGlyph name="Eng" xMin="91" yMin="-182" xMax="634" yMax="740">
      <contour>
        <pt x="509" y="-171" on="1"/>
        <pt x="532" y="-126" on="0"/>
        <pt x="570" y="-27" on="0"/>
        <pt x="577" y="11" on="1"/>
        <pt x="196" y="572" on="1"/>
        <pt x="143" y="658" on="1"/>
        <pt x="138" y="657" on="1"/>
        <pt x="138" y="0" on="1"/>
        <pt x="91" y="0" on="1"/>
        <pt x="91" y="740" on="1"/>
        <pt x="138" y="740" on="1"/>
        <pt x="526" y="169" on="1"/>
        <pt x="582" y="81" on="1"/>
        <pt x="587" y="81" on="1"/>
        <pt x="587" y="740" on="1"/>
        <pt x="634" y="740" on="1"/>
        <pt x="634" y="66" on="1"/>
        <pt x="634" y="40" on="0"/>
        <pt x="621" y="-24" on="0"/>
        <pt x="597" y="-91" on="0"/>
        <pt x="566" y="-156" on="0"/>
        <pt x="548" y="-182" on="1"/>
      </contour>
    </TTGlyph>
    <TTGlyph name="Eng.sc" xMin="86" yMin="-144" xMax="558" yMax="577">
      <contour>
        <pt x="447" y="-134" on="1"/>
        <pt x="467" y="-98" on="0"/>
        <pt x="499" y="-19" on="0"/>
        <pt x="505" y="11" on="1"/>
        <pt x="182" y="431" on="1"/>
        <pt x="136" y="499" on="1"/>
        <pt x="131" y="499" on="1"/>
        <pt x="131" y="0" on="1"/>
        <pt x="86" y="0" on="1"/>
        <pt x="86" y="577" on="1"/>
        <pt x="131" y="577" on="1"/>
        <pt x="460" y="147" on="1"/>
        <pt x="508" y="77" on="1"/>
        <pt x="513" y="78" on="1"/>
        <pt x="513" y="577" on="1"/>
        <pt x="558" y="577" on="1"/>
        <pt x="558" y="56" on="1"/>
        <pt x="558" y="35" on="0"/>
        <pt x="546" y="-16" on="0"/>
        <pt x="526" y="-70" on="0"/>
        <pt x="499" y="-122" on="0"/>
        <pt x="483" y="-144" on="1"/>
      </contour>
    </TTGlyph>
    <TTGlyph name="Eogonek" xMin="91" yMin="-220" xMax="514" yMax="740">
      <contour>
        <pt x="91" y="740" on="1"/>
        <pt x="505" y="740" on="1"/>
        <pt x="505" y="695" on="1"/>
        <pt x="140" y="695" on="1"/>
        <pt x="140" y="399" on="1"/>
        <pt x="479" y="399" on="1"/>
        <pt x="479" y="354" on="1"/>
        <pt x="140" y="354" on="1"/>
        <pt x="140" y="45" on="1"/>
        <pt x="514" y="45" on="1"/>
        <pt x="514" y="-20" on="1"/>
        <pt x="457" y="-48" on="0"/>
        <pt x="407" y="-104" on="0"/>
        <pt x="407" y="-137" on="1"/>
        <pt x="407" y="-182" on="0"/>
        <pt x="457" y="-182" on="1"/>
        <pt x="483" y="-182" on="0"/>
        <pt x="513" y="-171" on="1"/>
        <pt x="513" y="-208" on="1"/>
        <pt x="486" y="-220" on="0"/>
        <pt x="451" y="-220" on="1"/>
        <pt x="365" y="-220" on="0"/>
        <pt x="365" y="-140" on="1"/>
        <pt x="365" y="-100" on="0"/>
        <pt x="414" y="-35" on="0"/>
        <pt x="473" y="0" on="1"/>
        <pt x="91" y="0" on="1"/>
      </contour>
    </TTGlyph>
    <TTGlyph name="Eogonek.sc" xMin="86" yMin="-172" xMax="456" yMax="577">
      <contour>
        <pt x="401" y="-172" on="1"/>
        <pt x="324" y="-172" on="0"/>
        <pt x="324" y="-108" on="1"/>
        <pt x="324" y="-77" on="0"/>
        <pt x="364" y="-29" on="0"/>
        <pt x="415" y="0" on="1"/>
        <pt x="86" y="0" on="1"/>
        <pt x="86" y="577" on="1"/>
        <pt x="449" y="577" on="1"/>
        <pt x="449" y="535" on="1"/>
        <pt x="134" y="535" on="1"/>
        <pt x="134" y="314" on="1"/>
        <pt x="427" y="314" on="1"/>
        <pt x="427" y="273" on="1"/>
        <pt x="134" y="273" on="1"/>
        <pt x="134" y="43" on="1"/>
        <pt x="456" y="43" on="1"/>
        <pt x="456" y="-15" on="1"/>
        <pt x="412" y="-32" on="0"/>
        <pt x="364" y="-78" on="0"/>
        <pt x="364" y="-105" on="1"/>
        <pt x="364" y="-123" on="0"/>
        <pt x="385" y="-138" on="0"/>
        <pt x="405" y="-138" on="1"/>
        <pt x="418" y="-138" on="0"/>
        <pt x="444" y="-133" on="0"/>
        <pt x="455" y="-129" on="1"/>
        <pt x="455" y="-162" on="1"/>
        <pt x="430" y="-172" on="0"/>
      </contour>
    </TTGlyph>
    <TTGlyph name="Eth" xMin="3" yMin="-13" xMax="616" yMax="749">
      <contour>
        <pt x="3" y="391" on="1"/>
        <pt x="99" y="391" on="1"/>
        <pt x="99" y="736" on="1"/>
        <pt x="120" y="739" on="0"/>
        <pt x="166" y="744" on="0"/>
        <pt x="213" y="747" on="0"/>
        <pt x="256" y="749" on="0"/>
        <pt x="273" y="749" on="1"/>
        <pt x="450" y="749" on="0"/>
        <pt x="616" y="565" on="0"/>
        <pt x="616" y="370" on="1"/>
        <pt x="616" y="172" on="0"/>
        <pt x="440" y="-13" on="0"/>
        <pt x="251" y="-13" on="1"/>
        <pt x="204" y="-13" on="0"/>
        <pt x="123" y="-7" on="0"/>
        <pt x="99" y="-1" on="1"/>
        <pt x="99" y="346" on="1"/>
        <pt x="3" y="346" on="1"/>
      </contour>
      <contour>
        <pt x="259" y="33" on="1"/>
        <pt x="416" y="33" on="0"/>
        <pt x="565" y="197" on="0"/>
        <pt x="565" y="370" on="1"/>
        <pt x="565" y="542" on="0"/>
        <pt x="425" y="703" on="0"/>
        <pt x="274" y="703" on="1"/>
        <pt x="246" y="703" on="0"/>
        <pt x="177" y="699" on="0"/>
        <pt x="148" y="695" on="1"/>
        <pt x="148" y="391" on="1"/>
        <pt x="337" y="391" on="1"/>
        <pt x="337" y="346" on="1"/>
        <pt x="148" y="346" on="1"/>
        <pt x="148" y="41" on="1"/>
        <pt x="182" y="36" on="0"/>
        <pt x="230" y="33" on="0"/>
      </contour>
    </TTGlyph>
    <TTGlyph name="Eth.sc" xMin="11" yMin="-10" xMax="546" yMax="584">
      <contour>
        <pt x="11" y="308" on="1"/>
        <pt x="93" y="308" on="1"/>
        <pt x="93" y="575" on="1"/>
        <pt x="129" y="579" on="0"/>
        <pt x="217" y="584" on="0"/>
        <pt x="247" y="584" on="1"/>
        <pt x="401" y="584" on="0"/>
        <pt x="546" y="441" on="0"/>
        <pt x="546" y="288" on="1"/>
        <pt x="546" y="133" on="0"/>
        <pt x="394" y="-10" on="0"/>
        <pt x="228" y="-10" on="1"/>
        <pt x="186" y="-10" on="0"/>
        <pt x="114" y="-4" on="0"/>
        <pt x="93" y="1" on="1"/>
        <pt x="93" y="267" on="1"/>
        <pt x="11" y="267" on="1"/>
      </contour>
      <contour>
        <pt x="239" y="33" on="1"/>
        <pt x="371" y="33" on="0"/>
        <pt x="496" y="157" on="0"/>
        <pt x="496" y="288" on="1"/>
        <pt x="496" y="420" on="0"/>
        <pt x="377" y="541" on="0"/>
        <pt x="248" y="541" on="1"/>
        <pt x="225" y="541" on="0"/>
        <pt x="166" y="537" on="0"/>
        <pt x="141" y="534" on="1"/>
        <pt x="141" y="308" on="1"/>
        <pt x="301" y="308" on="1"/>
        <pt x="301" y="267" on="1"/>
        <pt x="141" y="267" on="1"/>
        <pt x="141" y="40" on="1"/>
        <pt x="170" y="36" on="0"/>
        <pt x="213" y="33" on="0"/>
      </contour>
    </TTGlyph>
    <TTGlyph name="Etilde" xMin="91" yMin="0" xMax="514" yMax="913">
      <contour>
        <pt x="131" y="858" on="1"/>
        <pt x="153" y="883" on="0"/>
        <pt x="207" y="913" on="0"/>
        <pt x="235" y="913" on="1"/>
        <pt x="257" y="913" on="0"/>
        <pt x="293" y="900" on="0"/>
        <pt x="327" y="884" on="0"/>
        <pt x="360" y="871" on="0"/>
        <pt x="380" y="871" on="1"/>
        <pt x="421" y="871" on="0"/>
        <pt x="455" y="910" on="1"/>
        <pt x="481" y="887" on="1"/>
        <pt x="461" y="861" on="0"/>
        <pt x="404" y="829" on="0"/>
        <pt x="375" y="829" on="1"/>
        <pt x="355" y="829" on="0"/>
        <pt x="319" y="842" on="0"/>
        <pt x="285" y="858" on="0"/>
        <pt x="250" y="871" on="0"/>
        <pt x="232" y="871" on="1"/>
        <pt x="212" y="871" on="0"/>
        <pt x="172" y="851" on="0"/>
        <pt x="155" y="834" on="1"/>
      </contour>
      <contour>
        <pt x="91" y="740" on="1"/>
        <pt x="505" y="740" on="1"/>
        <pt x="505" y="695" on="1"/>
        <pt x="140" y="695" on="1"/>
        <pt x="140" y="399" on="1"/>
        <pt x="479" y="399" on="1"/>
        <pt x="479" y="354" on="1"/>
        <pt x="140" y="354" on="1"/>
        <pt x="140" y="45" on="1"/>
        <pt x="514" y="45" on="1"/>
        <pt x="514" y="0" on="1"/>
        <pt x="91" y="0" on="1"/>
      </contour>
    </TTGlyph>
    <TTGlyph name="Etilde.sc" xMin="86" yMin="0" xMax="456" yMax="718">
      <contour>
        <pt x="121" y="669" on="1"/>
        <pt x="141" y="692" on="0"/>
        <pt x="189" y="718" on="0"/>
        <pt x="213" y="718" on="1"/>
        <pt x="232" y="718" on="0"/>
        <pt x="263" y="708" on="0"/>
        <pt x="293" y="695" on="0"/>
        <pt x="323" y="685" on="0"/>
        <pt x="340" y="685" on="1"/>
        <pt x="375" y="685" on="0"/>
        <pt x="408" y="715" on="1"/>
        <pt x="429" y="697" on="1"/>
        <pt x="412" y="674" on="0"/>
        <pt x="360" y="647" on="0"/>
        <pt x="334" y="647" on="1"/>
        <pt x="317" y="647" on="0"/>
        <pt x="285" y="657" on="0"/>
        <pt x="255" y="670" on="0"/>
        <pt x="225" y="680" on="0"/>
        <pt x="209" y="680" on="1"/>
        <pt x="173" y="680" on="0"/>
        <pt x="141" y="650" on="1"/>
      </contour>
      <contour>
        <pt x="86" y="577" on="1"/>
        <pt x="449" y="577" on="1"/>
        <pt x="449" y="535" on="1"/>
        <pt x="134" y="535" on="1"/>
        <pt x="134" y="314" on="1"/>
        <pt x="427" y="314" on="1"/>
        <pt x="427" y="273" on="1"/>
        <pt x="134" y="273" on="1"/>
        <pt x="134" y="43" on="1"/>
        <pt x="456" y="43" on="1"/>
        <pt x="456" y="0" on="1"/>
        <pt x="86" y="0" on="1"/>
      </contour>
    </TTGlyph>
    <TTGlyph name="Euro" xMin="45" yMin="-10" xMax="524" yMax="749">
      <contour>
        <pt x="45" y="474" on="1"/>
        <pt x="131" y="474" on="1"/>
        <pt x="140" y="547" on="0"/>
        <pt x="186" y="651" on="0"/>
        <pt x="265" y="718" on="0"/>
        <pt x="378" y="749" on="0"/>
        <pt x="453" y="749" on="1"/>
        <pt x="477" y="749" on="0"/>
        <pt x="507" y="747" on="0"/>
        <pt x="524" y="745" on="1"/>
        <pt x="504" y="700" on="1"/>
        <pt x="496" y="701" on="0"/>
        <pt x="475" y="702" on="0"/>
        <pt x="460" y="702" on="1"/>
        <pt x="395" y="702" on="0"/>
        <pt x="297" y="677" on="0"/>
        <pt x="230" y="623" on="0"/>
        <pt x="190" y="536" on="0"/>
        <pt x="182" y="474" on="1"/>
        <pt x="442" y="474" on="1"/>
        <pt x="424" y="433" on="1"/>
        <pt x="178" y="433" on="1"/>
        <pt x="176" y="418" on="0"/>
        <pt x="176" y="387" on="0"/>
        <pt x="176" y="370" on="1"/>
        <pt x="176" y="353" on="0"/>
        <pt x="177" y="321" on="0"/>
        <pt x="178" y="306" on="1"/>
        <pt x="405" y="306" on="1"/>
        <pt x="387" y="266" on="1"/>
        <pt x="182" y="266" on="1"/>
        <pt x="199" y="145" on="0"/>
        <pt x="330" y="36" on="0"/>
        <pt x="455" y="36" on="1"/>
        <pt x="463" y="36" on="0"/>
        <pt x="491" y="38" on="0"/>
        <pt x="508" y="40" on="1"/>
        <pt x="508" y="-7" on="1"/>
        <pt x="498" y="-9" on="0"/>
        <pt x="475" y="-10" on="0"/>
        <pt x="455" y="-10" on="1"/>
        <pt x="306" y="-8" on="0"/>
        <pt x="150" y="123" on="0"/>
        <pt x="132" y="266" on="1"/>
        <pt x="45" y="266" on="1"/>
        <pt x="45" y="306" on="1"/>
        <pt x="128" y="306" on="1"/>
        <pt x="126" y="321" on="0"/>
        <pt x="126" y="352" on="0"/>
        <pt x="126" y="369" on="1"/>
        <pt x="126" y="386" on="0"/>
        <pt x="126" y="417" on="0"/>
        <pt x="128" y="433" on="1"/>
        <pt x="45" y="433" on="1"/>
      </contour>
    </TTGlyph>
    <TTGlyph name="Euro.tab" xMin="27" yMin="-10" xMax="497" yMax="749">
      <contour>
        <pt x="27" y="474" on="1"/>
        <pt x="112" y="474" on="1"/>
        <pt x="121" y="547" on="0"/>
        <pt x="166" y="651" on="0"/>
        <pt x="243" y="718" on="0"/>
        <pt x="353" y="749" on="0"/>
        <pt x="427" y="749" on="1"/>
        <pt x="451" y="749" on="0"/>
        <pt x="481" y="747" on="0"/>
        <pt x="497" y="745" on="1"/>
        <pt x="478" y="700" on="1"/>
        <pt x="470" y="701" on="0"/>
        <pt x="449" y="702" on="0"/>
        <pt x="434" y="702" on="1"/>
        <pt x="371" y="702" on="0"/>
        <pt x="276" y="677" on="0"/>
        <pt x="210" y="622" on="0"/>
        <pt x="171" y="535" on="0"/>
        <pt x="163" y="474" on="1"/>
        <pt x="417" y="474" on="1"/>
        <pt x="399" y="433" on="1"/>
        <pt x="159" y="433" on="1"/>
        <pt x="157" y="419" on="0"/>
        <pt x="157" y="387" on="0"/>
        <pt x="157" y="370" on="1"/>
        <pt x="157" y="353" on="0"/>
        <pt x="157" y="321" on="0"/>
        <pt x="159" y="306" on="1"/>
        <pt x="381" y="306" on="1"/>
        <pt x="363" y="266" on="1"/>
        <pt x="164" y="266" on="1"/>
        <pt x="180" y="146" on="0"/>
        <pt x="308" y="36" on="0"/>
        <pt x="430" y="36" on="1"/>
        <pt x="438" y="36" on="0"/>
        <pt x="466" y="38" on="0"/>
        <pt x="482" y="40" on="1"/>
        <pt x="482" y="-7" on="1"/>
        <pt x="472" y="-9" on="0"/>
        <pt x="449" y="-10" on="0"/>
        <pt x="429" y="-10" on="1"/>
        <pt x="284" y="-8" on="0"/>
        <pt x="131" y="123" on="0"/>
        <pt x="113" y="266" on="1"/>
        <pt x="27" y="266" on="1"/>
        <pt x="27" y="306" on="1"/>
        <pt x="108" y="306" on="1"/>
        <pt x="107" y="321" on="0"/>
        <pt x="107" y="353" on="0"/>
        <pt x="107" y="369" on="1"/>
        <pt x="107" y="386" on="0"/>
        <pt x="107" y="419" on="0"/>
        <pt x="108" y="433" on="1"/>
        <pt x="27" y="433" on="1"/>
      </contour>
    </TTGlyph>
    <TTGlyph name="F" xMin="91" yMin="0" xMax="496" yMax="740">
      <contour>
        <pt x="91" y="740" on="1"/>
        <pt x="496" y="740" on="1"/>
        <pt x="496" y="695" on="1"/>
        <pt x="140" y="695" on="1"/>
        <pt x="140" y="397" on="1"/>
        <pt x="468" y="397" on="1"/>
        <pt x="468" y="352" on="1"/>
        <pt x="140" y="352" on="1"/>
        <pt x="140" y="0" on="1"/>
        <pt x="91" y="0" on="1"/>
      </contour>
    </TTGlyph>
    <TTGlyph name="F.sc" xMin="86" yMin="0" xMax="442" yMax="577">
      <contour>
        <pt x="86" y="577" on="1"/>
        <pt x="442" y="577" on="1"/>
        <pt x="442" y="534" on="1"/>
        <pt x="134" y="534" on="1"/>
        <pt x="134" y="311" on="1"/>
        <pt x="417" y="311" on="1"/>
        <pt x="417" y="270" on="1"/>
        <pt x="134" y="270" on="1"/>
        <pt x="134" y="0" on="1"/>
        <pt x="86" y="0" on="1"/>
      </contour>
    </TTGlyph>
    <TTGlyph name="F_B.sc" xMin="86" yMin="-8" xMax="954" yMax="584">
      <contour>
        <pt x="86" y="577" on="1"/>
        <pt x="442" y="577" on="1"/>
        <pt x="442" y="534" on="1"/>
        <pt x="134" y="534" on="1"/>
        <pt x="134" y="311" on="1"/>
        <pt x="417" y="311" on="1"/>
        <pt x="417" y="270" on="1"/>
        <pt x="134" y="270" on="1"/>
        <pt x="134" y="0" on="1"/>
        <pt x="86" y="0" on="1"/>
      </contour>
      <contour>
        <pt x="725" y="-8" on="1"/>
        <pt x="684" y="-8" on="0"/>
        <pt x="589" y="-2" on="0"/>
        <pt x="545" y="4" on="1"/>
        <pt x="545" y="574" on="1"/>
        <pt x="604" y="579" on="0"/>
        <pt x="681" y="584" on="0"/>
        <pt x="717" y="584" on="1"/>
        <pt x="832" y="584" on="0"/>
        <pt x="934" y="511" on="0"/>
        <pt x="934" y="430" on="1"/>
        <pt x="934" y="376" on="0"/>
        <pt x="877" y="304" on="0"/>
        <pt x="826" y="295" on="1"/>
        <pt x="826" y="292" on="1"/>
        <pt x="888" y="282" on="0"/>
        <pt x="954" y="210" on="0"/>
        <pt x="954" y="151" on="1"/>
        <pt x="954" y="-8" on="0"/>
      </contour>
      <contour>
        <pt x="726" y="32" on="1"/>
        <pt x="818" y="32" on="0"/>
        <pt x="905" y="91" on="0"/>
        <pt x="905" y="153" on="1"/>
        <pt x="905" y="215" on="0"/>
        <pt x="822" y="273" on="0"/>
        <pt x="731" y="273" on="1"/>
        <pt x="592" y="273" on="1"/>
        <pt x="592" y="40" on="1"/>
        <pt x="612" y="36" on="0"/>
        <pt x="685" y="32" on="0"/>
      </contour>
      <contour>
        <pt x="729" y="312" on="1"/>
        <pt x="814" y="312" on="0"/>
        <pt x="885" y="365" on="0"/>
        <pt x="885" y="428" on="1"/>
        <pt x="885" y="491" on="0"/>
        <pt x="808" y="544" on="0"/>
        <pt x="719" y="544" on="1"/>
        <pt x="681" y="544" on="0"/>
        <pt x="621" y="541" on="0"/>
        <pt x="592" y="537" on="1"/>
        <pt x="592" y="312" on="1"/>
      </contour>
    </TTGlyph>
    <TTGlyph name="F_F.sc" xMin="86" yMin="0" xMax="901" yMax="577">
      <contour>
        <pt x="86" y="577" on="1"/>
        <pt x="442" y="577" on="1"/>
        <pt x="442" y="534" on="1"/>
        <pt x="134" y="534" on="1"/>
        <pt x="134" y="311" on="1"/>
        <pt x="417" y="311" on="1"/>
        <pt x="417" y="270" on="1"/>
        <pt x="134" y="270" on="1"/>
        <pt x="134" y="0" on="1"/>
        <pt x="86" y="0" on="1"/>
      </contour>
      <contour>
        <pt x="545" y="577" on="1"/>
        <pt x="901" y="577" on="1"/>
        <pt x="901" y="534" on="1"/>
        <pt x="593" y="534" on="1"/>
        <pt x="593" y="311" on="1"/>
        <pt x="876" y="311" on="1"/>
        <pt x="876" y="270" on="1"/>
        <pt x="593" y="270" on="1"/>
        <pt x="593" y="0" on="1"/>
        <pt x="545" y="0" on="1"/>
      </contour>
    </TTGlyph>
    <TTGlyph name="F_F_B.sc" xMin="86" yMin="-8" xMax="1413" yMax="584">
      <contour>
        <pt x="86" y="577" on="1"/>
        <pt x="442" y="577" on="1"/>
        <pt x="442" y="534" on="1"/>
        <pt x="134" y="534" on="1"/>
        <pt x="134" y="311" on="1"/>
        <pt x="417" y="311" on="1"/>
        <pt x="417" y="270" on="1"/>
        <pt x="134" y="270" on="1"/>
        <pt x="134" y="0" on="1"/>
        <pt x="86" y="0" on="1"/>
      </contour>
      <contour>
        <pt x="545" y="577" on="1"/>
        <pt x="901" y="577" on="1"/>
        <pt x="901" y="534" on="1"/>
        <pt x="593" y="534" on="1"/>
        <pt x="593" y="311" on="1"/>
        <pt x="876" y="311" on="1"/>
        <pt x="876" y="270" on="1"/>
        <pt x="593" y="270" on="1"/>
        <pt x="593" y="0" on="1"/>
        <pt x="545" y="0" on="1"/>
      </contour>
      <contour>
        <pt x="1184" y="-8" on="1"/>
        <pt x="1143" y="-8" on="0"/>
        <pt x="1048" y="-2" on="0"/>
        <pt x="1004" y="4" on="1"/>
        <pt x="1004" y="574" on="1"/>
        <pt x="1063" y="579" on="0"/>
        <pt x="1140" y="584" on="0"/>
        <pt x="1176" y="584" on="1"/>
        <pt x="1291" y="584" on="0"/>
        <pt x="1393" y="511" on="0"/>
        <pt x="1393" y="430" on="1"/>
        <pt x="1393" y="376" on="0"/>
        <pt x="1336" y="304" on="0"/>
        <pt x="1285" y="295" on="1"/>
        <pt x="1285" y="292" on="1"/>
        <pt x="1347" y="282" on="0"/>
        <pt x="1413" y="210" on="0"/>
        <pt x="1413" y="151" on="1"/>
        <pt x="1413" y="-8" on="0"/>
      </contour>
      <contour>
        <pt x="1185" y="32" on="1"/>
        <pt x="1277" y="32" on="0"/>
        <pt x="1364" y="91" on="0"/>
        <pt x="1364" y="153" on="1"/>
        <pt x="1364" y="215" on="0"/>
        <pt x="1281" y="273" on="0"/>
        <pt x="1190" y="273" on="1"/>
        <pt x="1051" y="273" on="1"/>
        <pt x="1051" y="40" on="1"/>
        <pt x="1071" y="36" on="0"/>
        <pt x="1144" y="32" on="0"/>
      </contour>
      <contour>
        <pt x="1188" y="312" on="1"/>
        <pt x="1273" y="312" on="0"/>
        <pt x="1344" y="365" on="0"/>
        <pt x="1344" y="428" on="1"/>
        <pt x="1344" y="491" on="0"/>
        <pt x="1267" y="544" on="0"/>
        <pt x="1178" y="544" on="1"/>
        <pt x="1140" y="544" on="0"/>
        <pt x="1080" y="541" on="0"/>
        <pt x="1051" y="537" on="1"/>
        <pt x="1051" y="312" on="1"/>
      </contour>
    </TTGlyph>
    <TTGlyph name="F_F_H.sc" xMin="86" yMin="0" xMax="1458" yMax="577">
      <contour>
        <pt x="86" y="577" on="1"/>
        <pt x="442" y="577" on="1"/>
        <pt x="442" y="534" on="1"/>
        <pt x="134" y="534" on="1"/>
        <pt x="134" y="311" on="1"/>
        <pt x="417" y="311" on="1"/>
        <pt x="417" y="270" on="1"/>
        <pt x="134" y="270" on="1"/>
        <pt x="134" y="0" on="1"/>
        <pt x="86" y="0" on="1"/>
      </contour>
      <contour>
        <pt x="545" y="577" on="1"/>
        <pt x="901" y="577" on="1"/>
        <pt x="901" y="534" on="1"/>
        <pt x="593" y="534" on="1"/>
        <pt x="593" y="311" on="1"/>
        <pt x="876" y="311" on="1"/>
        <pt x="876" y="270" on="1"/>
        <pt x="593" y="270" on="1"/>
        <pt x="593" y="0" on="1"/>
        <pt x="545" y="0" on="1"/>
      </contour>
      <contour>
        <pt x="1004" y="577" on="1"/>
        <pt x="1052" y="577" on="1"/>
        <pt x="1052" y="317" on="1"/>
        <pt x="1409" y="317" on="1"/>
        <pt x="1409" y="577" on="1"/>
        <pt x="1458" y="577" on="1"/>
        <pt x="1458" y="0" on="1"/>
        <pt x="1409" y="0" on="1"/>
        <pt x="1409" y="274" on="1"/>
        <pt x="1052" y="274" on="1"/>
        <pt x="1052" y="0" on="1"/>
        <pt x="1004" y="0" on="1"/>
      </contour>
    </TTGlyph>
    <TTGlyph name="F_F_I.sc" xMin="86" yMin="0" xMax="1052" yMax="577">
      <contour>
        <pt x="86" y="577" on="1"/>
        <pt x="442" y="577" on="1"/>
        <pt x="442" y="534" on="1"/>
        <pt x="134" y="534" on="1"/>
        <pt x="134" y="311" on="1"/>
        <pt x="417" y="311" on="1"/>
        <pt x="417" y="270" on="1"/>
        <pt x="134" y="270" on="1"/>
        <pt x="134" y="0" on="1"/>
        <pt x="86" y="0" on="1"/>
      </contour>
      <contour>
        <pt x="545" y="577" on="1"/>
        <pt x="901" y="577" on="1"/>
        <pt x="901" y="534" on="1"/>
        <pt x="593" y="534" on="1"/>
        <pt x="593" y="311" on="1"/>
        <pt x="876" y="311" on="1"/>
        <pt x="876" y="270" on="1"/>
        <pt x="593" y="270" on="1"/>
        <pt x="593" y="0" on="1"/>
        <pt x="545" y="0" on="1"/>
      </contour>
      <contour>
        <pt x="1004" y="577" on="1"/>
        <pt x="1052" y="577" on="1"/>
        <pt x="1052" y="0" on="1"/>
        <pt x="1004" y="0" on="1"/>
      </contour>
    </TTGlyph>
    <TTGlyph name="F_F_J.sc" xMin="86" yMin="-142" xMax="1063" yMax="577">
      <contour>
        <pt x="86" y="577" on="1"/>
        <pt x="442" y="577" on="1"/>
        <pt x="442" y="534" on="1"/>
        <pt x="134" y="534" on="1"/>
        <pt x="134" y="311" on="1"/>
        <pt x="417" y="311" on="1"/>
        <pt x="417" y="270" on="1"/>
        <pt x="134" y="270" on="1"/>
        <pt x="134" y="0" on="1"/>
        <pt x="86" y="0" on="1"/>
      </contour>
      <contour>
        <pt x="545" y="577" on="1"/>
        <pt x="901" y="577" on="1"/>
        <pt x="901" y="534" on="1"/>
        <pt x="593" y="534" on="1"/>
        <pt x="593" y="311" on="1"/>
        <pt x="876" y="311" on="1"/>
        <pt x="876" y="270" on="1"/>
        <pt x="593" y="270" on="1"/>
        <pt x="593" y="0" on="1"/>
        <pt x="545" y="0" on="1"/>
      </contour>
      <contour>
        <pt x="945" y="-124" on="1"/>
        <pt x="966" y="-85" on="0"/>
        <pt x="993" y="-22" on="0"/>
        <pt x="1009" y="39" on="0"/>
        <pt x="1015" y="104" on="0"/>
        <pt x="1015" y="143" on="1"/>
        <pt x="1015" y="577" on="1"/>
        <pt x="1063" y="577" on="1"/>
        <pt x="1063" y="141" on="1"/>
        <pt x="1063" y="103" on="0"/>
        <pt x="1054" y="35" on="0"/>
        <pt x="1035" y="-31" on="0"/>
        <pt x="1003" y="-101" on="0"/>
        <pt x="980" y="-142" on="1"/>
      </contour>
    </TTGlyph>
    <TTGlyph name="F_F_K.sc" xMin="86" yMin="0" xMax="1449" yMax="577">
      <contour>
        <pt x="86" y="577" on="1"/>
        <pt x="442" y="577" on="1"/>
        <pt x="442" y="534" on="1"/>
        <pt x="134" y="534" on="1"/>
        <pt x="134" y="311" on="1"/>
        <pt x="417" y="311" on="1"/>
        <pt x="417" y="270" on="1"/>
        <pt x="134" y="270" on="1"/>
        <pt x="134" y="0" on="1"/>
        <pt x="86" y="0" on="1"/>
      </contour>
      <contour>
        <pt x="545" y="577" on="1"/>
        <pt x="901" y="577" on="1"/>
        <pt x="901" y="534" on="1"/>
        <pt x="593" y="534" on="1"/>
        <pt x="593" y="311" on="1"/>
        <pt x="876" y="311" on="1"/>
        <pt x="876" y="270" on="1"/>
        <pt x="593" y="270" on="1"/>
        <pt x="593" y="0" on="1"/>
        <pt x="545" y="0" on="1"/>
      </contour>
      <contour>
        <pt x="1004" y="577" on="1"/>
        <pt x="1052" y="577" on="1"/>
        <pt x="1052" y="315" on="1"/>
        <pt x="1168" y="315" on="1"/>
        <pt x="1375" y="577" on="1"/>
        <pt x="1433" y="577" on="1"/>
        <pt x="1228" y="317" on="1"/>
        <pt x="1204" y="298" on="1"/>
        <pt x="1204" y="294" on="1"/>
        <pt x="1230" y="275" on="1"/>
        <pt x="1449" y="0" on="1"/>
        <pt x="1392" y="0" on="1"/>
        <pt x="1173" y="272" on="1"/>
        <pt x="1052" y="272" on="1"/>
        <pt x="1052" y="0" on="1"/>
        <pt x="1004" y="0" on="1"/>
      </contour>
    </TTGlyph>
    <TTGlyph name="F_F_L.sc" xMin="86" yMin="0" xMax="1326" yMax="577">
      <contour>
        <pt x="1004" y="577" on="1"/>
        <pt x="1052" y="577" on="1"/>
        <pt x="1052" y="43" on="1"/>
        <pt x="1326" y="43" on="1"/>
        <pt x="1326" y="0" on="1"/>
        <pt x="1004" y="0" on="1"/>
      </contour>
      <contour>
        <pt x="86" y="577" on="1"/>
        <pt x="442" y="577" on="1"/>
        <pt x="442" y="534" on="1"/>
        <pt x="134" y="534" on="1"/>
        <pt x="134" y="311" on="1"/>
        <pt x="417" y="311" on="1"/>
        <pt x="417" y="270" on="1"/>
        <pt x="134" y="270" on="1"/>
        <pt x="134" y="0" on="1"/>
        <pt x="86" y="0" on="1"/>
      </contour>
      <contour>
        <pt x="545" y="577" on="1"/>
        <pt x="901" y="577" on="1"/>
        <pt x="901" y="534" on="1"/>
        <pt x="593" y="534" on="1"/>
        <pt x="593" y="311" on="1"/>
        <pt x="876" y="311" on="1"/>
        <pt x="876" y="270" on="1"/>
        <pt x="593" y="270" on="1"/>
        <pt x="593" y="0" on="1"/>
        <pt x="545" y="0" on="1"/>
      </contour>
    </TTGlyph>
    <TTGlyph name="F_F_T.sc" xMin="86" yMin="0" xMax="1371" yMax="577">
      <contour>
        <pt x="1125" y="534" on="1"/>
        <pt x="927" y="534" on="1"/>
        <pt x="927" y="577" on="1"/>
        <pt x="1371" y="577" on="1"/>
        <pt x="1371" y="534" on="1"/>
        <pt x="1174" y="534" on="1"/>
        <pt x="1174" y="0" on="1"/>
        <pt x="1125" y="0" on="1"/>
      </contour>
      <contour>
        <pt x="86" y="577" on="1"/>
        <pt x="442" y="577" on="1"/>
        <pt x="442" y="534" on="1"/>
        <pt x="134" y="534" on="1"/>
        <pt x="134" y="311" on="1"/>
        <pt x="417" y="311" on="1"/>
        <pt x="417" y="270" on="1"/>
        <pt x="134" y="270" on="1"/>
        <pt x="134" y="0" on="1"/>
        <pt x="86" y="0" on="1"/>
      </contour>
      <contour>
        <pt x="545" y="577" on="1"/>
        <pt x="901" y="577" on="1"/>
        <pt x="901" y="534" on="1"/>
        <pt x="593" y="534" on="1"/>
        <pt x="593" y="311" on="1"/>
        <pt x="876" y="311" on="1"/>
        <pt x="876" y="270" on="1"/>
        <pt x="593" y="270" on="1"/>
        <pt x="593" y="0" on="1"/>
        <pt x="545" y="0" on="1"/>
      </contour>
    </TTGlyph>
    <TTGlyph name="F_H.sc" xMin="86" yMin="0" xMax="999" yMax="577">
      <contour>
        <pt x="86" y="577" on="1"/>
        <pt x="442" y="577" on="1"/>
        <pt x="442" y="534" on="1"/>
        <pt x="134" y="534" on="1"/>
        <pt x="134" y="311" on="1"/>
        <pt x="417" y="311" on="1"/>
        <pt x="417" y="270" on="1"/>
        <pt x="134" y="270" on="1"/>
        <pt x="134" y="0" on="1"/>
        <pt x="86" y="0" on="1"/>
      </contour>
      <contour>
        <pt x="545" y="577" on="1"/>
        <pt x="593" y="577" on="1"/>
        <pt x="593" y="317" on="1"/>
        <pt x="950" y="317" on="1"/>
        <pt x="950" y="577" on="1"/>
        <pt x="999" y="577" on="1"/>
        <pt x="999" y="0" on="1"/>
        <pt x="950" y="0" on="1"/>
        <pt x="950" y="274" on="1"/>
        <pt x="593" y="274" on="1"/>
        <pt x="593" y="0" on="1"/>
        <pt x="545" y="0" on="1"/>
      </contour>
    </TTGlyph>
    <TTGlyph name="F_I.sc" xMin="86" yMin="0" xMax="593" yMax="577">
      <contour>
        <pt x="86" y="577" on="1"/>
        <pt x="442" y="577" on="1"/>
        <pt x="442" y="534" on="1"/>
        <pt x="134" y="534" on="1"/>
        <pt x="134" y="311" on="1"/>
        <pt x="417" y="311" on="1"/>
        <pt x="417" y="270" on="1"/>
        <pt x="134" y="270" on="1"/>
        <pt x="134" y="0" on="1"/>
        <pt x="86" y="0" on="1"/>
      </contour>
      <contour>
        <pt x="545" y="577" on="1"/>
        <pt x="593" y="577" on="1"/>
        <pt x="593" y="0" on="1"/>
        <pt x="545" y="0" on="1"/>
      </contour>
    </TTGlyph>
    <TTGlyph name="F_J.sc" xMin="86" yMin="-142" xMax="604" yMax="577">
      <contour>
        <pt x="86" y="577" on="1"/>
        <pt x="442" y="577" on="1"/>
        <pt x="442" y="534" on="1"/>
        <pt x="134" y="534" on="1"/>
        <pt x="134" y="311" on="1"/>
        <pt x="417" y="311" on="1"/>
        <pt x="417" y="270" on="1"/>
        <pt x="134" y="270" on="1"/>
        <pt x="134" y="0" on="1"/>
        <pt x="86" y="0" on="1"/>
      </contour>
      <contour>
        <pt x="486" y="-124" on="1"/>
        <pt x="507" y="-85" on="0"/>
        <pt x="534" y="-22" on="0"/>
        <pt x="550" y="39" on="0"/>
        <pt x="556" y="104" on="0"/>
        <pt x="556" y="143" on="1"/>
        <pt x="556" y="577" on="1"/>
        <pt x="604" y="577" on="1"/>
        <pt x="604" y="141" on="1"/>
        <pt x="604" y="103" on="0"/>
        <pt x="595" y="35" on="0"/>
        <pt x="576" y="-31" on="0"/>
        <pt x="544" y="-101" on="0"/>
        <pt x="521" y="-142" on="1"/>
      </contour>
    </TTGlyph>
    <TTGlyph name="F_K.sc" xMin="86" yMin="0" xMax="990" yMax="577">
      <contour>
        <pt x="86" y="577" on="1"/>
        <pt x="442" y="577" on="1"/>
        <pt x="442" y="534" on="1"/>
        <pt x="134" y="534" on="1"/>
        <pt x="134" y="311" on="1"/>
        <pt x="417" y="311" on="1"/>
        <pt x="417" y="270" on="1"/>
        <pt x="134" y="270" on="1"/>
        <pt x="134" y="0" on="1"/>
        <pt x="86" y="0" on="1"/>
      </contour>
      <contour>
        <pt x="545" y="577" on="1"/>
        <pt x="593" y="577" on="1"/>
        <pt x="593" y="315" on="1"/>
        <pt x="709" y="315" on="1"/>
        <pt x="916" y="577" on="1"/>
        <pt x="974" y="577" on="1"/>
        <pt x="769" y="317" on="1"/>
        <pt x="745" y="298" on="1"/>
        <pt x="745" y="294" on="1"/>
        <pt x="771" y="275" on="1"/>
        <pt x="990" y="0" on="1"/>
        <pt x="933" y="0" on="1"/>
        <pt x="714" y="272" on="1"/>
        <pt x="593" y="272" on="1"/>
        <pt x="593" y="0" on="1"/>
        <pt x="545" y="0" on="1"/>
      </contour>
    </TTGlyph>
    <TTGlyph name="F_L.sc" xMin="86" yMin="0" xMax="867" yMax="577">
      <contour>
        <pt x="545" y="577" on="1"/>
        <pt x="593" y="577" on="1"/>
        <pt x="593" y="43" on="1"/>
        <pt x="867" y="43" on="1"/>
        <pt x="867" y="0" on="1"/>
        <pt x="545" y="0" on="1"/>
      </contour>
      <contour>
        <pt x="86" y="577" on="1"/>
        <pt x="442" y="577" on="1"/>
        <pt x="442" y="534" on="1"/>
        <pt x="134" y="534" on="1"/>
        <pt x="134" y="311" on="1"/>
        <pt x="417" y="311" on="1"/>
        <pt x="417" y="270" on="1"/>
        <pt x="134" y="270" on="1"/>
        <pt x="134" y="0" on="1"/>
        <pt x="86" y="0" on="1"/>
      </contour>
    </TTGlyph>
    <TTGlyph name="F_T.sc" xMin="86" yMin="0" xMax="912" yMax="577">
      <contour>
        <pt x="666" y="534" on="1"/>
        <pt x="468" y="534" on="1"/>
        <pt x="468" y="577" on="1"/>
        <pt x="912" y="577" on="1"/>
        <pt x="912" y="534" on="1"/>
        <pt x="715" y="534" on="1"/>
        <pt x="715" y="0" on="1"/>
        <pt x="666" y="0" on="1"/>
      </contour>
      <contour>
        <pt x="86" y="577" on="1"/>
        <pt x="442" y="577" on="1"/>
        <pt x="442" y="534" on="1"/>
        <pt x="134" y="534" on="1"/>
        <pt x="134" y="311" on="1"/>
        <pt x="417" y="311" on="1"/>
        <pt x="417" y="270" on="1"/>
        <pt x="134" y="270" on="1"/>
        <pt x="134" y="0" on="1"/>
        <pt x="86" y="0" on="1"/>
      </contour>
    </TTGlyph>
    <TTGlyph name="G" xMin="54" yMin="-9" xMax="545" yMax="749">
      <contour>
        <pt x="374" y="-9" on="1"/>
        <pt x="210" y="-7" on="0"/>
        <pt x="54" y="177" on="0"/>
        <pt x="54" y="369" on="1"/>
        <pt x="54" y="564" on="0"/>
        <pt x="213" y="749" on="0"/>
        <pt x="380" y="749" on="1"/>
        <pt x="414" y="749" on="0"/>
        <pt x="499" y="738" on="0"/>
        <pt x="543" y="728" on="1"/>
        <pt x="543" y="682" on="1"/>
        <pt x="492" y="693" on="0"/>
        <pt x="420" y="703" on="0"/>
        <pt x="383" y="703" on="1"/>
        <pt x="240" y="703" on="0"/>
        <pt x="104" y="541" on="0"/>
        <pt x="104" y="369" on="1"/>
        <pt x="104" y="200" on="0"/>
        <pt x="237" y="37" on="0"/>
        <pt x="373" y="37" on="1"/>
        <pt x="396" y="37" on="0"/>
        <pt x="465" y="45" on="0"/>
        <pt x="497" y="50" on="1"/>
        <pt x="497" y="376" on="1"/>
        <pt x="545" y="376" on="1"/>
        <pt x="545" y="15" on="1"/>
        <pt x="500" y="4" on="0"/>
        <pt x="412" y="-9" on="0"/>
      </contour>
    </TTGlyph>
    <TTGlyph name="G.sc" xMin="53" yMin="-7" xMax="482" yMax="584">
      <contour>
        <pt x="329" y="-7" on="1"/>
        <pt x="189" y="-6" on="0"/>
        <pt x="53" y="139" on="0"/>
        <pt x="53" y="288" on="1"/>
        <pt x="53" y="440" on="0"/>
        <pt x="191" y="584" on="0"/>
        <pt x="336" y="584" on="1"/>
        <pt x="400" y="584" on="0"/>
        <pt x="479" y="567" on="1"/>
        <pt x="479" y="524" on="1"/>
        <pt x="434" y="533" on="0"/>
        <pt x="371" y="541" on="0"/>
        <pt x="340" y="541" on="1"/>
        <pt x="217" y="541" on="0"/>
        <pt x="103" y="419" on="0"/>
        <pt x="103" y="288" on="1"/>
        <pt x="103" y="160" on="0"/>
        <pt x="214" y="37" on="0"/>
        <pt x="330" y="37" on="1"/>
        <pt x="349" y="37" on="0"/>
        <pt x="410" y="42" on="0"/>
        <pt x="435" y="47" on="1"/>
        <pt x="435" y="293" on="1"/>
        <pt x="482" y="293" on="1"/>
        <pt x="482" y="13" on="1"/>
        <pt x="443" y="4" on="0"/>
        <pt x="362" y="-7" on="0"/>
      </contour>
    </TTGlyph>
    <TTGlyph name="Gacute" xMin="54" yMin="-9" xMax="545" yMax="927">
      <contour>
        <pt x="320" y="799" on="1"/>
        <pt x="398" y="927" on="1"/>
        <pt x="451" y="927" on="1"/>
        <pt x="362" y="794" on="1"/>
      </contour>
      <contour>
        <pt x="374" y="-9" on="1"/>
        <pt x="210" y="-7" on="0"/>
        <pt x="54" y="177" on="0"/>
        <pt x="54" y="369" on="1"/>
        <pt x="54" y="564" on="0"/>
        <pt x="213" y="749" on="0"/>
        <pt x="380" y="749" on="1"/>
        <pt x="414" y="749" on="0"/>
        <pt x="499" y="738" on="0"/>
        <pt x="543" y="728" on="1"/>
        <pt x="543" y="682" on="1"/>
        <pt x="492" y="693" on="0"/>
        <pt x="420" y="703" on="0"/>
        <pt x="383" y="703" on="1"/>
        <pt x="240" y="703" on="0"/>
        <pt x="104" y="541" on="0"/>
        <pt x="104" y="369" on="1"/>
        <pt x="104" y="200" on="0"/>
        <pt x="237" y="37" on="0"/>
        <pt x="373" y="37" on="1"/>
        <pt x="396" y="37" on="0"/>
        <pt x="465" y="45" on="0"/>
        <pt x="497" y="50" on="1"/>
        <pt x="497" y="376" on="1"/>
        <pt x="545" y="376" on="1"/>
        <pt x="545" y="15" on="1"/>
        <pt x="500" y="4" on="0"/>
        <pt x="412" y="-9" on="0"/>
      </contour>
    </TTGlyph>
    <TTGlyph name="Gacute.sc" xMin="53" yMin="-7" xMax="482" yMax="728">
      <contour>
        <pt x="329" y="-7" on="1"/>
        <pt x="189" y="-6" on="0"/>
        <pt x="53" y="139" on="0"/>
        <pt x="53" y="288" on="1"/>
        <pt x="53" y="440" on="0"/>
        <pt x="191" y="584" on="0"/>
        <pt x="336" y="584" on="1"/>
        <pt x="400" y="584" on="0"/>
        <pt x="479" y="567" on="1"/>
        <pt x="479" y="523" on="1"/>
        <pt x="434" y="533" on="0"/>
        <pt x="371" y="541" on="0"/>
        <pt x="340" y="541" on="1"/>
        <pt x="218" y="541" on="0"/>
        <pt x="103" y="419" on="0"/>
        <pt x="103" y="288" on="1"/>
        <pt x="103" y="160" on="0"/>
        <pt x="215" y="37" on="0"/>
        <pt x="330" y="37" on="1"/>
        <pt x="349" y="37" on="0"/>
        <pt x="410" y="42" on="0"/>
        <pt x="435" y="47" on="1"/>
        <pt x="435" y="293" on="1"/>
        <pt x="482" y="293" on="1"/>
        <pt x="482" y="13" on="1"/>
        <pt x="443" y="4" on="0"/>
        <pt x="362" y="-7" on="0"/>
      </contour>
      <contour>
        <pt x="281" y="625" on="1"/>
        <pt x="347" y="728" on="1"/>
        <pt x="398" y="728" on="1"/>
        <pt x="321" y="621" on="1"/>
      </contour>
    </TTGlyph>
    <TTGlyph name="Gbreve" xMin="54" yMin="-9" xMax="545" yMax="952">
      <contour>
        <pt x="348" y="815" on="1"/>
        <pt x="273" y="815" on="0"/>
        <pt x="191" y="888" on="0"/>
        <pt x="191" y="952" on="1"/>
        <pt x="234" y="952" on="1"/>
        <pt x="234" y="905" on="0"/>
        <pt x="294" y="854" on="0"/>
        <pt x="348" y="854" on="1"/>
        <pt x="402" y="854" on="0"/>
        <pt x="461" y="905" on="0"/>
        <pt x="461" y="952" on="1"/>
        <pt x="504" y="952" on="1"/>
        <pt x="504" y="888" on="0"/>
        <pt x="422" y="815" on="0"/>
      </contour>
      <contour>
        <pt x="374" y="-9" on="1"/>
        <pt x="210" y="-7" on="0"/>
        <pt x="54" y="177" on="0"/>
        <pt x="54" y="369" on="1"/>
        <pt x="54" y="564" on="0"/>
        <pt x="213" y="749" on="0"/>
        <pt x="380" y="749" on="1"/>
        <pt x="414" y="749" on="0"/>
        <pt x="499" y="738" on="0"/>
        <pt x="543" y="728" on="1"/>
        <pt x="543" y="682" on="1"/>
        <pt x="492" y="693" on="0"/>
        <pt x="420" y="703" on="0"/>
        <pt x="383" y="703" on="1"/>
        <pt x="240" y="703" on="0"/>
        <pt x="104" y="541" on="0"/>
        <pt x="104" y="369" on="1"/>
        <pt x="104" y="200" on="0"/>
        <pt x="237" y="37" on="0"/>
        <pt x="373" y="37" on="1"/>
        <pt x="396" y="37" on="0"/>
        <pt x="465" y="45" on="0"/>
        <pt x="497" y="50" on="1"/>
        <pt x="497" y="376" on="1"/>
        <pt x="545" y="376" on="1"/>
        <pt x="545" y="15" on="1"/>
        <pt x="500" y="4" on="0"/>
        <pt x="412" y="-9" on="0"/>
      </contour>
    </TTGlyph>
    <TTGlyph name="Gbreve.sc" xMin="53" yMin="-7" xMax="482" yMax="745">
      <contour>
        <pt x="329" y="-7" on="1"/>
        <pt x="189" y="-6" on="0"/>
        <pt x="53" y="139" on="0"/>
        <pt x="53" y="288" on="1"/>
        <pt x="53" y="440" on="0"/>
        <pt x="191" y="584" on="0"/>
        <pt x="336" y="584" on="1"/>
        <pt x="400" y="584" on="0"/>
        <pt x="479" y="567" on="1"/>
        <pt x="479" y="523" on="1"/>
        <pt x="434" y="533" on="0"/>
        <pt x="371" y="541" on="0"/>
        <pt x="340" y="541" on="1"/>
        <pt x="218" y="541" on="0"/>
        <pt x="103" y="419" on="0"/>
        <pt x="103" y="288" on="1"/>
        <pt x="103" y="160" on="0"/>
        <pt x="215" y="37" on="0"/>
        <pt x="330" y="37" on="1"/>
        <pt x="349" y="37" on="0"/>
        <pt x="410" y="42" on="0"/>
        <pt x="435" y="47" on="1"/>
        <pt x="435" y="293" on="1"/>
        <pt x="482" y="293" on="1"/>
        <pt x="482" y="13" on="1"/>
        <pt x="443" y="4" on="0"/>
        <pt x="362" y="-7" on="0"/>
      </contour>
      <contour>
        <pt x="307" y="634" on="1"/>
        <pt x="241" y="634" on="0"/>
        <pt x="170" y="694" on="0"/>
        <pt x="170" y="745" on="1"/>
        <pt x="210" y="745" on="1"/>
        <pt x="210" y="708" on="0"/>
        <pt x="260" y="669" on="0"/>
        <pt x="307" y="669" on="1"/>
        <pt x="354" y="669" on="0"/>
        <pt x="404" y="708" on="0"/>
        <pt x="404" y="745" on="1"/>
        <pt x="444" y="745" on="1"/>
        <pt x="444" y="694" on="0"/>
        <pt x="373" y="634" on="0"/>
      </contour>
    </TTGlyph>
    <TTGlyph name="Gcircumflex" xMin="54" yMin="-9" xMax="545" yMax="938">
      <contour>
        <pt x="374" y="-9" on="1"/>
        <pt x="210" y="-7" on="0"/>
        <pt x="54" y="177" on="0"/>
        <pt x="54" y="369" on="1"/>
        <pt x="54" y="564" on="0"/>
        <pt x="213" y="749" on="0"/>
        <pt x="380" y="749" on="1"/>
        <pt x="414" y="749" on="0"/>
        <pt x="499" y="738" on="0"/>
        <pt x="543" y="728" on="1"/>
        <pt x="543" y="682" on="1"/>
        <pt x="492" y="693" on="0"/>
        <pt x="420" y="703" on="0"/>
        <pt x="383" y="703" on="1"/>
        <pt x="240" y="703" on="0"/>
        <pt x="104" y="541" on="0"/>
        <pt x="104" y="369" on="1"/>
        <pt x="104" y="200" on="0"/>
        <pt x="237" y="37" on="0"/>
        <pt x="373" y="37" on="1"/>
        <pt x="396" y="37" on="0"/>
        <pt x="465" y="45" on="0"/>
        <pt x="497" y="50" on="1"/>
        <pt x="497" y="376" on="1"/>
        <pt x="545" y="376" on="1"/>
        <pt x="545" y="15" on="1"/>
        <pt x="500" y="4" on="0"/>
        <pt x="412" y="-9" on="0"/>
      </contour>
      <contour>
        <pt x="205" y="866" on="1"/>
        <pt x="346" y="938" on="1"/>
        <pt x="488" y="866" on="1"/>
        <pt x="488" y="817" on="1"/>
        <pt x="346" y="889" on="1"/>
        <pt x="205" y="817" on="1"/>
      </contour>
    </TTGlyph>
    <TTGlyph name="Gcircumflex.sc" xMin="53" yMin="-7" xMax="482" yMax="736">
      <contour>
        <pt x="329" y="-7" on="1"/>
        <pt x="189" y="-6" on="0"/>
        <pt x="53" y="139" on="0"/>
        <pt x="53" y="288" on="1"/>
        <pt x="53" y="440" on="0"/>
        <pt x="191" y="584" on="0"/>
        <pt x="336" y="584" on="1"/>
        <pt x="400" y="584" on="0"/>
        <pt x="479" y="567" on="1"/>
        <pt x="479" y="523" on="1"/>
        <pt x="434" y="533" on="0"/>
        <pt x="371" y="541" on="0"/>
        <pt x="340" y="541" on="1"/>
        <pt x="218" y="541" on="0"/>
        <pt x="103" y="419" on="0"/>
        <pt x="103" y="288" on="1"/>
        <pt x="103" y="160" on="0"/>
        <pt x="215" y="37" on="0"/>
        <pt x="330" y="37" on="1"/>
        <pt x="349" y="37" on="0"/>
        <pt x="410" y="42" on="0"/>
        <pt x="435" y="47" on="1"/>
        <pt x="435" y="293" on="1"/>
        <pt x="482" y="293" on="1"/>
        <pt x="482" y="13" on="1"/>
        <pt x="443" y="4" on="0"/>
        <pt x="362" y="-7" on="0"/>
      </contour>
      <contour>
        <pt x="181" y="679" on="1"/>
        <pt x="306" y="736" on="1"/>
        <pt x="430" y="679" on="1"/>
        <pt x="430" y="635" on="1"/>
        <pt x="306" y="692" on="1"/>
        <pt x="181" y="635" on="1"/>
      </contour>
    </TTGlyph>
    <TTGlyph name="Gcommaaccent" xMin="54" yMin="-220" xMax="545" yMax="749">
      <contour>
        <pt x="332" y="-68" on="1"/>
        <pt x="384" y="-68" on="1"/>
        <pt x="327" y="-220" on="1"/>
        <pt x="282" y="-220" on="1"/>
      </contour>
      <contour>
        <pt x="374" y="-9" on="1"/>
        <pt x="210" y="-7" on="0"/>
        <pt x="54" y="177" on="0"/>
        <pt x="54" y="369" on="1"/>
        <pt x="54" y="564" on="0"/>
        <pt x="213" y="749" on="0"/>
        <pt x="380" y="749" on="1"/>
        <pt x="414" y="749" on="0"/>
        <pt x="499" y="738" on="0"/>
        <pt x="543" y="728" on="1"/>
        <pt x="543" y="682" on="1"/>
        <pt x="492" y="693" on="0"/>
        <pt x="420" y="703" on="0"/>
        <pt x="383" y="703" on="1"/>
        <pt x="240" y="703" on="0"/>
        <pt x="104" y="541" on="0"/>
        <pt x="104" y="369" on="1"/>
        <pt x="104" y="200" on="0"/>
        <pt x="237" y="37" on="0"/>
        <pt x="373" y="37" on="1"/>
        <pt x="396" y="37" on="0"/>
        <pt x="465" y="45" on="0"/>
        <pt x="497" y="50" on="1"/>
        <pt x="497" y="376" on="1"/>
        <pt x="545" y="376" on="1"/>
        <pt x="545" y="15" on="1"/>
        <pt x="500" y="4" on="0"/>
        <pt x="412" y="-9" on="0"/>
      </contour>
    </TTGlyph>
    <TTGlyph name="Gcommaaccent.sc" xMin="53" yMin="-172" xMax="482" yMax="584">
      <contour>
        <pt x="329" y="-7" on="1"/>
        <pt x="189" y="-6" on="0"/>
        <pt x="53" y="139" on="0"/>
        <pt x="53" y="288" on="1"/>
        <pt x="53" y="440" on="0"/>
        <pt x="191" y="584" on="0"/>
        <pt x="336" y="584" on="1"/>
        <pt x="400" y="584" on="0"/>
        <pt x="479" y="567" on="1"/>
        <pt x="479" y="523" on="1"/>
        <pt x="434" y="533" on="0"/>
        <pt x="371" y="541" on="0"/>
        <pt x="340" y="541" on="1"/>
        <pt x="218" y="541" on="0"/>
        <pt x="103" y="419" on="0"/>
        <pt x="103" y="288" on="1"/>
        <pt x="103" y="160" on="0"/>
        <pt x="215" y="37" on="0"/>
        <pt x="330" y="37" on="1"/>
        <pt x="349" y="37" on="0"/>
        <pt x="410" y="42" on="0"/>
        <pt x="435" y="47" on="1"/>
        <pt x="435" y="293" on="1"/>
        <pt x="482" y="293" on="1"/>
        <pt x="482" y="13" on="1"/>
        <pt x="443" y="4" on="0"/>
        <pt x="362" y="-7" on="0"/>
      </contour>
      <contour>
        <pt x="291" y="-54" on="1"/>
        <pt x="341" y="-54" on="1"/>
        <pt x="291" y="-172" on="1"/>
        <pt x="248" y="-172" on="1"/>
      </contour>
    </TTGlyph>
    <TTGlyph name="Gdotaccent" xMin="54" yMin="-9" xMax="545" yMax="888">
      <contour>
        <pt x="347" y="812" on="1"/>
        <pt x="330" y="812" on="0"/>
        <pt x="309" y="830" on="0"/>
        <pt x="309" y="850" on="1"/>
        <pt x="309" y="870" on="0"/>
        <pt x="330" y="888" on="0"/>
        <pt x="347" y="888" on="1"/>
        <pt x="364" y="888" on="0"/>
        <pt x="386" y="870" on="0"/>
        <pt x="386" y="850" on="1"/>
        <pt x="386" y="830" on="0"/>
        <pt x="364" y="812" on="0"/>
      </contour>
      <contour>
        <pt x="374" y="-9" on="1"/>
        <pt x="210" y="-7" on="0"/>
        <pt x="54" y="177" on="0"/>
        <pt x="54" y="369" on="1"/>
        <pt x="54" y="564" on="0"/>
        <pt x="213" y="749" on="0"/>
        <pt x="380" y="749" on="1"/>
        <pt x="414" y="749" on="0"/>
        <pt x="499" y="738" on="0"/>
        <pt x="543" y="728" on="1"/>
        <pt x="543" y="682" on="1"/>
        <pt x="492" y="693" on="0"/>
        <pt x="420" y="703" on="0"/>
        <pt x="383" y="703" on="1"/>
        <pt x="240" y="703" on="0"/>
        <pt x="104" y="541" on="0"/>
        <pt x="104" y="369" on="1"/>
        <pt x="104" y="200" on="0"/>
        <pt x="237" y="37" on="0"/>
        <pt x="373" y="37" on="1"/>
        <pt x="396" y="37" on="0"/>
        <pt x="465" y="45" on="0"/>
        <pt x="497" y="50" on="1"/>
        <pt x="497" y="376" on="1"/>
        <pt x="545" y="376" on="1"/>
        <pt x="545" y="15" on="1"/>
        <pt x="500" y="4" on="0"/>
        <pt x="412" y="-9" on="0"/>
      </contour>
    </TTGlyph>
    <TTGlyph name="Gdotaccent.sc" xMin="53" yMin="-7" xMax="482" yMax="701">
      <contour>
        <pt x="329" y="-7" on="1"/>
        <pt x="189" y="-6" on="0"/>
        <pt x="53" y="139" on="0"/>
        <pt x="53" y="288" on="1"/>
        <pt x="53" y="440" on="0"/>
        <pt x="191" y="584" on="0"/>
        <pt x="336" y="584" on="1"/>
        <pt x="400" y="584" on="0"/>
        <pt x="479" y="567" on="1"/>
        <pt x="479" y="523" on="1"/>
        <pt x="434" y="533" on="0"/>
        <pt x="371" y="541" on="0"/>
        <pt x="340" y="541" on="1"/>
        <pt x="218" y="541" on="0"/>
        <pt x="103" y="419" on="0"/>
        <pt x="103" y="288" on="1"/>
        <pt x="103" y="160" on="0"/>
        <pt x="215" y="37" on="0"/>
        <pt x="330" y="37" on="1"/>
        <pt x="349" y="37" on="0"/>
        <pt x="410" y="42" on="0"/>
        <pt x="435" y="47" on="1"/>
        <pt x="435" y="293" on="1"/>
        <pt x="482" y="293" on="1"/>
        <pt x="482" y="13" on="1"/>
        <pt x="443" y="4" on="0"/>
        <pt x="362" y="-7" on="0"/>
      </contour>
      <contour>
        <pt x="307" y="633" on="1"/>
        <pt x="291" y="633" on="0"/>
        <pt x="271" y="649" on="0"/>
        <pt x="271" y="668" on="1"/>
        <pt x="271" y="685" on="0"/>
        <pt x="291" y="701" on="0"/>
        <pt x="307" y="701" on="1"/>
        <pt x="323" y="701" on="0"/>
        <pt x="343" y="685" on="0"/>
        <pt x="343" y="668" on="1"/>
        <pt x="343" y="650" on="0"/>
        <pt x="323" y="633" on="0"/>
      </contour>
    </TTGlyph>
    <TTGlyph name="H" xMin="91" yMin="0" xMax="608" yMax="740">
      <contour>
        <pt x="91" y="740" on="1"/>
        <pt x="140" y="740" on="1"/>
        <pt x="140" y="401" on="1"/>
        <pt x="559" y="401" on="1"/>
        <pt x="559" y="740" on="1"/>
        <pt x="608" y="740" on="1"/>
        <pt x="608" y="0" on="1"/>
        <pt x="559" y="0" on="1"/>
        <pt x="559" y="356" on="1"/>
        <pt x="140" y="356" on="1"/>
        <pt x="140" y="0" on="1"/>
        <pt x="91" y="0" on="1"/>
      </contour>
    </TTGlyph>
    <TTGlyph name="H.sc" xMin="86" yMin="0" xMax="540" yMax="577">
      <contour>
        <pt x="86" y="577" on="1"/>
        <pt x="134" y="577" on="1"/>
        <pt x="134" y="317" on="1"/>
        <pt x="491" y="317" on="1"/>
        <pt x="491" y="577" on="1"/>
        <pt x="540" y="577" on="1"/>
        <pt x="540" y="0" on="1"/>
        <pt x="491" y="0" on="1"/>
        <pt x="491" y="274" on="1"/>
        <pt x="134" y="274" on="1"/>
        <pt x="134" y="0" on="1"/>
        <pt x="86" y="0" on="1"/>
      </contour>
    </TTGlyph>
    <TTGlyph name="Hbar" xMin="5" yMin="0" xMax="717" yMax="740">
      <contour>
        <pt x="5" y="584" on="1"/>
        <pt x="102" y="584" on="1"/>
        <pt x="102" y="740" on="1"/>
        <pt x="151" y="740" on="1"/>
        <pt x="151" y="584" on="1"/>
        <pt x="570" y="584" on="1"/>
        <pt x="570" y="740" on="1"/>
        <pt x="619" y="740" on="1"/>
        <pt x="619" y="584" on="1"/>
        <pt x="717" y="584" on="1"/>
        <pt x="717" y="549" on="1"/>
        <pt x="619" y="549" on="1"/>
        <pt x="619" y="0" on="1"/>
        <pt x="570" y="0" on="1"/>
        <pt x="570" y="356" on="1"/>
        <pt x="151" y="356" on="1"/>
        <pt x="151" y="0" on="1"/>
        <pt x="102" y="0" on="1"/>
        <pt x="102" y="549" on="1"/>
        <pt x="5" y="549" on="1"/>
      </contour>
      <contour>
        <pt x="570" y="401" on="1"/>
        <pt x="570" y="549" on="1"/>
        <pt x="151" y="549" on="1"/>
        <pt x="151" y="401" on="1"/>
      </contour>
    </TTGlyph>
    <TTGlyph name="Hbar.sc" xMin="12" yMin="0" xMax="630" yMax="577">
      <contour>
        <pt x="12" y="459" on="1"/>
        <pt x="94" y="459" on="1"/>
        <pt x="94" y="577" on="1"/>
        <pt x="142" y="577" on="1"/>
        <pt x="142" y="459" on="1"/>
        <pt x="499" y="459" on="1"/>
        <pt x="499" y="577" on="1"/>
        <pt x="547" y="577" on="1"/>
        <pt x="547" y="459" on="1"/>
        <pt x="630" y="459" on="1"/>
        <pt x="630" y="427" on="1"/>
        <pt x="547" y="427" on="1"/>
        <pt x="547" y="0" on="1"/>
        <pt x="499" y="0" on="1"/>
        <pt x="499" y="273" on="1"/>
        <pt x="142" y="273" on="1"/>
        <pt x="142" y="0" on="1"/>
        <pt x="94" y="0" on="1"/>
        <pt x="94" y="427" on="1"/>
        <pt x="12" y="427" on="1"/>
      </contour>
      <contour>
        <pt x="499" y="316" on="1"/>
        <pt x="499" y="427" on="1"/>
        <pt x="142" y="427" on="1"/>
        <pt x="142" y="316" on="1"/>
      </contour>
    </TTGlyph>
    <TTGlyph name="Hcircumflex" xMin="91" yMin="0" xMax="608" yMax="938">
      <contour>
        <pt x="91" y="740" on="1"/>
        <pt x="140" y="740" on="1"/>
        <pt x="140" y="401" on="1"/>
        <pt x="559" y="401" on="1"/>
        <pt x="559" y="740" on="1"/>
        <pt x="608" y="740" on="1"/>
        <pt x="608" y="0" on="1"/>
        <pt x="559" y="0" on="1"/>
        <pt x="559" y="356" on="1"/>
        <pt x="140" y="356" on="1"/>
        <pt x="140" y="0" on="1"/>
        <pt x="91" y="0" on="1"/>
      </contour>
      <contour>
        <pt x="199" y="866" on="1"/>
        <pt x="340" y="938" on="1"/>
        <pt x="482" y="866" on="1"/>
        <pt x="482" y="817" on="1"/>
        <pt x="340" y="889" on="1"/>
        <pt x="199" y="817" on="1"/>
      </contour>
    </TTGlyph>
    <TTGlyph name="Hcircumflex.sc" xMin="86" yMin="0" xMax="540" yMax="736">
      <contour>
        <pt x="86" y="577" on="1"/>
        <pt x="134" y="577" on="1"/>
        <pt x="134" y="317" on="1"/>
        <pt x="491" y="317" on="1"/>
        <pt x="491" y="577" on="1"/>
        <pt x="540" y="577" on="1"/>
        <pt x="540" y="0" on="1"/>
        <pt x="491" y="0" on="1"/>
        <pt x="491" y="274" on="1"/>
        <pt x="134" y="274" on="1"/>
        <pt x="134" y="0" on="1"/>
        <pt x="86" y="0" on="1"/>
      </contour>
      <contour>
        <pt x="181" y="679" on="1"/>
        <pt x="305" y="736" on="1"/>
        <pt x="430" y="679" on="1"/>
        <pt x="430" y="635" on="1"/>
        <pt x="306" y="692" on="1"/>
        <pt x="181" y="635" on="1"/>
      </contour>
    </TTGlyph>
    <TTGlyph name="Hdotbelow" xMin="91" yMin="-170" xMax="608" yMax="740">
      <contour>
        <pt x="91" y="740" on="1"/>
        <pt x="140" y="740" on="1"/>
        <pt x="140" y="401" on="1"/>
        <pt x="559" y="401" on="1"/>
        <pt x="559" y="740" on="1"/>
        <pt x="608" y="740" on="1"/>
        <pt x="608" y="0" on="1"/>
        <pt x="559" y="0" on="1"/>
        <pt x="559" y="356" on="1"/>
        <pt x="140" y="356" on="1"/>
        <pt x="140" y="0" on="1"/>
        <pt x="91" y="0" on="1"/>
      </contour>
      <contour>
        <pt x="358" y="-170" on="1"/>
        <pt x="318" y="-170" on="0"/>
        <pt x="318" y="-130" on="1"/>
        <pt x="318" y="-89" on="0"/>
        <pt x="358" y="-89" on="1"/>
        <pt x="376" y="-89" on="0"/>
        <pt x="399" y="-108" on="0"/>
        <pt x="399" y="-130" on="1"/>
        <pt x="399" y="-152" on="0"/>
        <pt x="376" y="-170" on="0"/>
      </contour>
    </TTGlyph>
    <TTGlyph name="Hdotbelow.sc" xMin="86" yMin="-136" xMax="540" yMax="577">
      <contour>
        <pt x="86" y="577" on="1"/>
        <pt x="134" y="577" on="1"/>
        <pt x="134" y="317" on="1"/>
        <pt x="491" y="317" on="1"/>
        <pt x="491" y="577" on="1"/>
        <pt x="540" y="577" on="1"/>
        <pt x="540" y="0" on="1"/>
        <pt x="491" y="0" on="1"/>
        <pt x="491" y="274" on="1"/>
        <pt x="134" y="274" on="1"/>
        <pt x="134" y="0" on="1"/>
        <pt x="86" y="0" on="1"/>
      </contour>
      <contour>
        <pt x="320" y="-136" on="1"/>
        <pt x="303" y="-136" on="0"/>
        <pt x="284" y="-120" on="0"/>
        <pt x="284" y="-102" on="1"/>
        <pt x="284" y="-84" on="0"/>
        <pt x="303" y="-68" on="0"/>
        <pt x="320" y="-68" on="1"/>
        <pt x="337" y="-68" on="0"/>
        <pt x="356" y="-84" on="0"/>
        <pt x="356" y="-102" on="1"/>
        <pt x="356" y="-120" on="0"/>
        <pt x="337" y="-136" on="0"/>
      </contour>
    </TTGlyph>
    <TTGlyph name="I" xMin="91" yMin="0" xMax="140" yMax="740">
      <contour>
        <pt x="91" y="740" on="1"/>
        <pt x="140" y="740" on="1"/>
        <pt x="140" y="0" on="1"/>
        <pt x="91" y="0" on="1"/>
      </contour>
    </TTGlyph>
    <TTGlyph name="I.sc" xMin="86" yMin="0" xMax="134" yMax="577">
      <contour>
        <pt x="86" y="577" on="1"/>
        <pt x="134" y="577" on="1"/>
        <pt x="134" y="0" on="1"/>
        <pt x="86" y="0" on="1"/>
      </contour>
    </TTGlyph>
    <TTGlyph name="IJ" xMin="91" yMin="-180" xMax="372" yMax="740">
      <contour>
        <pt x="91" y="740" on="1"/>
        <pt x="140" y="740" on="1"/>
        <pt x="140" y="0" on="1"/>
        <pt x="91" y="0" on="1"/>
      </contour>
      <contour>
        <pt x="241" y="-160" on="1"/>
        <pt x="265" y="-110" on="0"/>
        <pt x="297" y="-28" on="0"/>
        <pt x="315" y="50" on="0"/>
        <pt x="323" y="132" on="0"/>
        <pt x="323" y="182" on="1"/>
        <pt x="323" y="740" on="1"/>
        <pt x="372" y="740" on="1"/>
        <pt x="372" y="180" on="1"/>
        <pt x="372" y="132" on="0"/>
        <pt x="362" y="46" on="0"/>
        <pt x="339" y="-39" on="0"/>
        <pt x="303" y="-129" on="0"/>
        <pt x="277" y="-180" on="1"/>
      </contour>
    </TTGlyph>
    <TTGlyph name="Iacute" xMin="91" yMin="0" xMax="222" yMax="927">
      <contour>
        <pt x="91" y="740" on="1"/>
        <pt x="140" y="740" on="1"/>
        <pt x="140" y="0" on="1"/>
        <pt x="91" y="0" on="1"/>
      </contour>
      <contour>
        <pt x="91" y="799" on="1"/>
        <pt x="169" y="927" on="1"/>
        <pt x="222" y="927" on="1"/>
        <pt x="133" y="794" on="1"/>
      </contour>
    </TTGlyph>
    <TTGlyph name="Iacute.sc" xMin="86" yMin="0" xMax="204" yMax="728">
      <contour>
        <pt x="86" y="577" on="1"/>
        <pt x="134" y="577" on="1"/>
        <pt x="134" y="0" on="1"/>
        <pt x="86" y="0" on="1"/>
      </contour>
      <contour>
        <pt x="87" y="625" on="1"/>
        <pt x="153" y="728" on="1"/>
        <pt x="204" y="728" on="1"/>
        <pt x="127" y="621" on="1"/>
      </contour>
    </TTGlyph>
    <TTGlyph name="Ibreve" xMin="-39" yMin="0" xMax="274" yMax="952">
      <contour>
        <pt x="91" y="740" on="1"/>
        <pt x="140" y="740" on="1"/>
        <pt x="140" y="0" on="1"/>
        <pt x="91" y="0" on="1"/>
      </contour>
      <contour>
        <pt x="118" y="815" on="1"/>
        <pt x="43" y="815" on="0"/>
        <pt x="-39" y="888" on="0"/>
        <pt x="-39" y="952" on="1"/>
        <pt x="4" y="952" on="1"/>
        <pt x="4" y="905" on="0"/>
        <pt x="64" y="854" on="0"/>
        <pt x="118" y="854" on="1"/>
        <pt x="172" y="854" on="0"/>
        <pt x="231" y="905" on="0"/>
        <pt x="231" y="952" on="1"/>
        <pt x="274" y="952" on="1"/>
        <pt x="274" y="888" on="0"/>
        <pt x="192" y="815" on="0"/>
      </contour>
    </TTGlyph>
    <TTGlyph name="Ibreve.sc" xMin="-26" yMin="0" xMax="249" yMax="745">
      <contour>
        <pt x="86" y="577" on="1"/>
        <pt x="134" y="577" on="1"/>
        <pt x="134" y="0" on="1"/>
        <pt x="86" y="0" on="1"/>
      </contour>
      <contour>
        <pt x="112" y="634" on="1"/>
        <pt x="46" y="634" on="0"/>
        <pt x="-26" y="694" on="0"/>
        <pt x="-26" y="745" on="1"/>
        <pt x="14" y="745" on="1"/>
        <pt x="14" y="708" on="0"/>
        <pt x="65" y="669" on="0"/>
        <pt x="112" y="669" on="1"/>
        <pt x="158" y="669" on="0"/>
        <pt x="208" y="708" on="0"/>
        <pt x="208" y="745" on="1"/>
        <pt x="249" y="745" on="1"/>
        <pt x="249" y="694" on="0"/>
        <pt x="178" y="634" on="0"/>
      </contour>
    </TTGlyph>
    <TTGlyph name="Icircumflex" xMin="-24" yMin="0" xMax="259" yMax="938">
      <contour>
        <pt x="91" y="740" on="1"/>
        <pt x="140" y="740" on="1"/>
        <pt x="140" y="0" on="1"/>
        <pt x="91" y="0" on="1"/>
      </contour>
      <contour>
        <pt x="-24" y="866" on="1"/>
        <pt x="117" y="938" on="1"/>
        <pt x="259" y="866" on="1"/>
        <pt x="259" y="817" on="1"/>
        <pt x="117" y="889" on="1"/>
        <pt x="-24" y="817" on="1"/>
      </contour>
    </TTGlyph>
    <TTGlyph name="Icircumflex.sc" xMin="-13" yMin="0" xMax="236" yMax="736">
      <contour>
        <pt x="86" y="577" on="1"/>
        <pt x="134" y="577" on="1"/>
        <pt x="134" y="0" on="1"/>
        <pt x="86" y="0" on="1"/>
      </contour>
      <contour>
        <pt x="-13" y="679" on="1"/>
        <pt x="112" y="736" on="1"/>
        <pt x="236" y="679" on="1"/>
        <pt x="236" y="635" on="1"/>
        <pt x="112" y="692" on="1"/>
        <pt x="-13" y="635" on="1"/>
      </contour>
    </TTGlyph>
    <TTGlyph name="Idblgrave" xMin="-57" yMin="0" xMax="207" yMax="922">
      <contour>
        <pt x="91" y="740" on="1"/>
        <pt x="140" y="740" on="1"/>
        <pt x="140" y="0" on="1"/>
        <pt x="91" y="0" on="1"/>
      </contour>
      <contour>
        <pt x="32" y="790" on="1"/>
        <pt x="-57" y="922" on="1"/>
        <pt x="-6" y="922" on="1"/>
        <pt x="72" y="804" on="1"/>
      </contour>
      <contour>
        <pt x="167" y="790" on="1"/>
        <pt x="78" y="922" on="1"/>
        <pt x="130" y="922" on="1"/>
        <pt x="207" y="804" on="1"/>
      </contour>
    </TTGlyph>
    <TTGlyph name="Idblgrave.sc" xMin="-42" yMin="0" xMax="192" yMax="724">
      <contour>
        <pt x="86" y="577" on="1"/>
        <pt x="134" y="577" on="1"/>
        <pt x="134" y="0" on="1"/>
        <pt x="86" y="0" on="1"/>
      </contour>
      <contour>
        <pt x="36" y="617" on="1"/>
        <pt x="-42" y="724" on="1"/>
        <pt x="7" y="724" on="1"/>
        <pt x="73" y="628" on="1"/>
      </contour>
      <contour>
        <pt x="155" y="617" on="1"/>
        <pt x="77" y="724" on="1"/>
        <pt x="127" y="724" on="1"/>
        <pt x="192" y="628" on="1"/>
      </contour>
    </TTGlyph>
    <TTGlyph name="Idieresis" xMin="-32" yMin="0" xMax="267" yMax="897">
      <contour>
        <pt x="91" y="740" on="1"/>
        <pt x="140" y="740" on="1"/>
        <pt x="140" y="0" on="1"/>
        <pt x="91" y="0" on="1"/>
      </contour>
      <contour>
        <pt x="6" y="822" on="1"/>
        <pt x="-11" y="822" on="0"/>
        <pt x="-32" y="839" on="0"/>
        <pt x="-32" y="859" on="1"/>
        <pt x="-32" y="879" on="0"/>
        <pt x="-11" y="897" on="0"/>
        <pt x="6" y="897" on="1"/>
        <pt x="23" y="897" on="0"/>
        <pt x="44" y="879" on="0"/>
        <pt x="44" y="859" on="1"/>
        <pt x="44" y="839" on="0"/>
        <pt x="23" y="822" on="0"/>
      </contour>
      <contour>
        <pt x="229" y="822" on="1"/>
        <pt x="212" y="822" on="0"/>
        <pt x="190" y="839" on="0"/>
        <pt x="190" y="859" on="1"/>
        <pt x="190" y="879" on="0"/>
        <pt x="212" y="897" on="0"/>
        <pt x="229" y="897" on="1"/>
        <pt x="245" y="897" on="0"/>
        <pt x="267" y="879" on="0"/>
        <pt x="267" y="859" on="1"/>
        <pt x="267" y="839" on="0"/>
        <pt x="245" y="822" on="0"/>
      </contour>
    </TTGlyph>
    <TTGlyph name="Idieresis.sc" xMin="-22" yMin="0" xMax="246" yMax="708">
      <contour>
        <pt x="86" y="577" on="1"/>
        <pt x="134" y="577" on="1"/>
        <pt x="134" y="0" on="1"/>
        <pt x="86" y="0" on="1"/>
      </contour>
      <contour>
        <pt x="13" y="640" on="1"/>
        <pt x="-22" y="640" on="0"/>
        <pt x="-22" y="674" on="1"/>
        <pt x="-22" y="708" on="0"/>
        <pt x="13" y="708" on="1"/>
        <pt x="29" y="708" on="0"/>
        <pt x="49" y="692" on="0"/>
        <pt x="49" y="674" on="1"/>
        <pt x="49" y="656" on="0"/>
        <pt x="29" y="640" on="0"/>
      </contour>
      <contour>
        <pt x="210" y="640" on="1"/>
        <pt x="193" y="640" on="0"/>
        <pt x="174" y="657" on="0"/>
        <pt x="174" y="674" on="1"/>
        <pt x="174" y="692" on="0"/>
        <pt x="193" y="708" on="0"/>
        <pt x="210" y="708" on="1"/>
        <pt x="226" y="708" on="0"/>
        <pt x="246" y="692" on="0"/>
        <pt x="246" y="674" on="1"/>
        <pt x="246" y="656" on="0"/>
        <pt x="226" y="640" on="0"/>
      </contour>
    </TTGlyph>
    <TTGlyph name="Idotaccent" xMin="79" yMin="0" xMax="156" yMax="888">
      <contour>
        <pt x="91" y="740" on="1"/>
        <pt x="140" y="740" on="1"/>
        <pt x="140" y="0" on="1"/>
        <pt x="91" y="0" on="1"/>
      </contour>
      <contour>
        <pt x="117" y="812" on="1"/>
        <pt x="100" y="812" on="0"/>
        <pt x="79" y="830" on="0"/>
        <pt x="79" y="850" on="1"/>
        <pt x="79" y="870" on="0"/>
        <pt x="100" y="888" on="0"/>
        <pt x="117" y="888" on="1"/>
        <pt x="134" y="888" on="0"/>
        <pt x="156" y="870" on="0"/>
        <pt x="156" y="850" on="1"/>
        <pt x="156" y="830" on="0"/>
        <pt x="134" y="812" on="0"/>
      </contour>
    </TTGlyph>
    <TTGlyph name="Idotaccent.sc" xMin="76" yMin="0" xMax="147" yMax="701">
      <contour>
        <pt x="86" y="577" on="1"/>
        <pt x="134" y="577" on="1"/>
        <pt x="134" y="0" on="1"/>
        <pt x="86" y="0" on="1"/>
      </contour>
      <contour>
        <pt x="111" y="633" on="1"/>
        <pt x="76" y="633" on="0"/>
        <pt x="76" y="668" on="1"/>
        <pt x="76" y="701" on="0"/>
        <pt x="111" y="701" on="1"/>
        <pt x="127" y="701" on="0"/>
        <pt x="147" y="685" on="0"/>
        <pt x="147" y="668" on="1"/>
        <pt x="147" y="650" on="0"/>
        <pt x="127" y="633" on="0"/>
      </contour>
    </TTGlyph>
    <TTGlyph name="Idotbelow" xMin="77" yMin="-170" xMax="158" yMax="740">
      <contour>
        <pt x="91" y="740" on="1"/>
        <pt x="140" y="740" on="1"/>
        <pt x="140" y="0" on="1"/>
        <pt x="91" y="0" on="1"/>
      </contour>
      <contour>
        <pt x="117" y="-170" on="1"/>
        <pt x="77" y="-170" on="0"/>
        <pt x="77" y="-130" on="1"/>
        <pt x="77" y="-89" on="0"/>
        <pt x="117" y="-89" on="1"/>
        <pt x="135" y="-89" on="0"/>
        <pt x="158" y="-108" on="0"/>
        <pt x="158" y="-130" on="1"/>
        <pt x="158" y="-152" on="0"/>
        <pt x="135" y="-170" on="0"/>
      </contour>
    </TTGlyph>
    <TTGlyph name="Idotbelow.sc" xMin="75" yMin="-136" xMax="148" yMax="577">
      <contour>
        <pt x="86" y="577" on="1"/>
        <pt x="134" y="577" on="1"/>
        <pt x="134" y="0" on="1"/>
        <pt x="86" y="0" on="1"/>
      </contour>
      <contour>
        <pt x="111" y="-136" on="1"/>
        <pt x="94" y="-136" on="0"/>
        <pt x="75" y="-120" on="0"/>
        <pt x="75" y="-102" on="1"/>
        <pt x="75" y="-84" on="0"/>
        <pt x="94" y="-68" on="0"/>
        <pt x="111" y="-68" on="1"/>
        <pt x="128" y="-68" on="0"/>
        <pt x="148" y="-84" on="0"/>
        <pt x="148" y="-102" on="1"/>
        <pt x="148" y="-120" on="0"/>
        <pt x="128" y="-136" on="0"/>
      </contour>
    </TTGlyph>
    <TTGlyph name="Igrave" xMin="8" yMin="0" xMax="140" yMax="927">
      <contour>
        <pt x="91" y="740" on="1"/>
        <pt x="140" y="740" on="1"/>
        <pt x="140" y="0" on="1"/>
        <pt x="91" y="0" on="1"/>
      </contour>
      <contour>
        <pt x="96" y="794" on="1"/>
        <pt x="8" y="927" on="1"/>
        <pt x="61" y="927" on="1"/>
        <pt x="138" y="808" on="1"/>
      </contour>
    </TTGlyph>
    <TTGlyph name="Igrave.sc" xMin="16" yMin="0" xMax="135" yMax="728">
      <contour>
        <pt x="86" y="577" on="1"/>
        <pt x="135" y="577" on="1"/>
        <pt x="135" y="0" on="1"/>
        <pt x="86" y="0" on="1"/>
      </contour>
      <contour>
        <pt x="92" y="621" on="1"/>
        <pt x="16" y="728" on="1"/>
        <pt x="67" y="728" on="1"/>
        <pt x="133" y="631" on="1"/>
      </contour>
    </TTGlyph>
    <TTGlyph name="Iinvertedbreve" xMin="-40" yMin="0" xMax="273" yMax="957">
      <contour>
        <pt x="91" y="740" on="1"/>
        <pt x="140" y="740" on="1"/>
        <pt x="140" y="0" on="1"/>
        <pt x="91" y="0" on="1"/>
      </contour>
      <contour>
        <pt x="230" y="820" on="1"/>
        <pt x="230" y="867" on="0"/>
        <pt x="170" y="918" on="0"/>
        <pt x="116" y="918" on="1"/>
        <pt x="62" y="918" on="0"/>
        <pt x="3" y="867" on="0"/>
        <pt x="3" y="820" on="1"/>
        <pt x="-40" y="820" on="1"/>
        <pt x="-40" y="884" on="0"/>
        <pt x="42" y="957" on="0"/>
        <pt x="116" y="957" on="1"/>
        <pt x="191" y="957" on="0"/>
        <pt x="273" y="884" on="0"/>
        <pt x="273" y="820" on="1"/>
      </contour>
    </TTGlyph>
    <TTGlyph name="Iinvertedbreve.sc" xMin="-26" yMin="0" xMax="249" yMax="749">
      <contour>
        <pt x="86" y="577" on="1"/>
        <pt x="134" y="577" on="1"/>
        <pt x="134" y="0" on="1"/>
        <pt x="86" y="0" on="1"/>
      </contour>
      <contour>
        <pt x="208" y="639" on="1"/>
        <pt x="208" y="675" on="0"/>
        <pt x="158" y="715" on="0"/>
        <pt x="112" y="715" on="1"/>
        <pt x="64" y="715" on="0"/>
        <pt x="14" y="675" on="0"/>
        <pt x="14" y="639" on="1"/>
        <pt x="-26" y="639" on="1"/>
        <pt x="-26" y="690" on="0"/>
        <pt x="45" y="749" on="0"/>
        <pt x="112" y="749" on="1"/>
        <pt x="178" y="749" on="0"/>
        <pt x="249" y="690" on="0"/>
        <pt x="249" y="639" on="1"/>
      </contour>
    </TTGlyph>
    <TTGlyph name="Imacron" xMin="-20" yMin="0" xMax="246" yMax="884">
      <contour>
        <pt x="91" y="740" on="1"/>
        <pt x="140" y="740" on="1"/>
        <pt x="140" y="0" on="1"/>
        <pt x="91" y="0" on="1"/>
      </contour>
      <contour>
        <pt x="-20" y="884" on="1"/>
        <pt x="246" y="884" on="1"/>
        <pt x="246" y="842" on="1"/>
        <pt x="-20" y="842" on="1"/>
      </contour>
    </TTGlyph>
    <TTGlyph name="Imacron.sc" xMin="-10" yMin="0" xMax="227" yMax="695">
      <contour>
        <pt x="86" y="577" on="1"/>
        <pt x="134" y="577" on="1"/>
        <pt x="134" y="0" on="1"/>
        <pt x="86" y="0" on="1"/>
      </contour>
      <contour>
        <pt x="-10" y="695" on="1"/>
        <pt x="227" y="695" on="1"/>
        <pt x="227" y="656" on="1"/>
        <pt x="-10" y="656" on="1"/>
      </contour>
    </TTGlyph>
    <TTGlyph name="Iogonek" xMin="-9" yMin="-220" xMax="140" yMax="740">
      <contour>
        <pt x="91" y="740" on="1"/>
        <pt x="140" y="740" on="1"/>
        <pt x="140" y="-20" on="1"/>
        <pt x="83" y="-48" on="0"/>
        <pt x="33" y="-104" on="0"/>
        <pt x="33" y="-137" on="1"/>
        <pt x="33" y="-182" on="0"/>
        <pt x="83" y="-182" on="1"/>
        <pt x="109" y="-182" on="0"/>
        <pt x="139" y="-171" on="1"/>
        <pt x="139" y="-208" on="1"/>
        <pt x="112" y="-220" on="0"/>
        <pt x="77" y="-220" on="1"/>
        <pt x="-9" y="-220" on="0"/>
        <pt x="-9" y="-140" on="1"/>
        <pt x="-9" y="-100" on="0"/>
        <pt x="40" y="-35" on="0"/>
        <pt x="99" y="0" on="1"/>
        <pt x="91" y="0" on="1"/>
      </contour>
    </TTGlyph>
    <TTGlyph name="Iogonek.sc" xMin="2" yMin="-172" xMax="134" yMax="577">
      <contour>
        <pt x="86" y="577" on="1"/>
        <pt x="134" y="577" on="1"/>
        <pt x="134" y="-15" on="1"/>
        <pt x="89" y="-32" on="0"/>
        <pt x="41" y="-78" on="0"/>
        <pt x="41" y="-105" on="1"/>
        <pt x="41" y="-123" on="0"/>
        <pt x="63" y="-138" on="0"/>
        <pt x="83" y="-138" on="1"/>
        <pt x="96" y="-138" on="0"/>
        <pt x="122" y="-133" on="0"/>
        <pt x="133" y="-129" on="1"/>
        <pt x="133" y="-162" on="1"/>
        <pt x="108" y="-172" on="0"/>
        <pt x="79" y="-172" on="1"/>
        <pt x="2" y="-172" on="0"/>
        <pt x="2" y="-108" on="1"/>
        <pt x="2" y="-77" on="0"/>
        <pt x="42" y="-29" on="0"/>
        <pt x="92" y="0" on="1"/>
        <pt x="86" y="0" on="1"/>
      </contour>
    </TTGlyph>
    <TTGlyph name="Itilde" xMin="-51" yMin="0" xMax="299" yMax="913">
      <contour>
        <pt x="91" y="740" on="1"/>
        <pt x="140" y="740" on="1"/>
        <pt x="140" y="0" on="1"/>
        <pt x="91" y="0" on="1"/>
      </contour>
      <contour>
        <pt x="-51" y="858" on="1"/>
        <pt x="-29" y="883" on="0"/>
        <pt x="25" y="913" on="0"/>
        <pt x="53" y="913" on="1"/>
        <pt x="75" y="913" on="0"/>
        <pt x="111" y="900" on="0"/>
        <pt x="145" y="884" on="0"/>
        <pt x="178" y="871" on="0"/>
        <pt x="198" y="871" on="1"/>
        <pt x="239" y="871" on="0"/>
        <pt x="273" y="910" on="1"/>
        <pt x="299" y="887" on="1"/>
        <pt x="279" y="861" on="0"/>
        <pt x="222" y="829" on="0"/>
        <pt x="193" y="829" on="1"/>
        <pt x="173" y="829" on="0"/>
        <pt x="137" y="842" on="0"/>
        <pt x="103" y="858" on="0"/>
        <pt x="68" y="871" on="0"/>
        <pt x="50" y="871" on="1"/>
        <pt x="30" y="871" on="0"/>
        <pt x="-10" y="851" on="0"/>
        <pt x="-27" y="834" on="1"/>
      </contour>
    </TTGlyph>
    <TTGlyph name="Itilde.sc" xMin="-37" yMin="0" xMax="271" yMax="718">
      <contour>
        <pt x="86" y="577" on="1"/>
        <pt x="134" y="577" on="1"/>
        <pt x="134" y="0" on="1"/>
        <pt x="86" y="0" on="1"/>
      </contour>
      <contour>
        <pt x="-37" y="669" on="1"/>
        <pt x="-17" y="692" on="0"/>
        <pt x="31" y="718" on="0"/>
        <pt x="56" y="718" on="1"/>
        <pt x="75" y="718" on="0"/>
        <pt x="106" y="708" on="0"/>
        <pt x="136" y="695" on="0"/>
        <pt x="166" y="685" on="0"/>
        <pt x="183" y="685" on="1"/>
        <pt x="218" y="685" on="0"/>
        <pt x="250" y="715" on="1"/>
        <pt x="271" y="697" on="1"/>
        <pt x="254" y="674" on="0"/>
        <pt x="203" y="647" on="0"/>
        <pt x="177" y="647" on="1"/>
        <pt x="160" y="647" on="0"/>
        <pt x="128" y="657" on="0"/>
        <pt x="98" y="670" on="0"/>
        <pt x="67" y="680" on="0"/>
        <pt x="51" y="680" on="1"/>
        <pt x="16" y="680" on="0"/>
        <pt x="-17" y="650" on="1"/>
      </contour>
    </TTGlyph>
    <TTGlyph name="J" xMin="11" yMin="-180" xMax="142" yMax="740">
      <contour>
        <pt x="11" y="-160" on="1"/>
        <pt x="35" y="-110" on="0"/>
        <pt x="67" y="-28" on="0"/>
        <pt x="85" y="50" on="0"/>
        <pt x="93" y="132" on="0"/>
        <pt x="93" y="182" on="1"/>
        <pt x="93" y="740" on="1"/>
        <pt x="142" y="740" on="1"/>
        <pt x="142" y="180" on="1"/>
        <pt x="142" y="132" on="0"/>
        <pt x="132" y="46" on="0"/>
        <pt x="109" y="-39" on="0"/>
        <pt x="73" y="-129" on="0"/>
        <pt x="47" y="-180" on="1"/>
      </contour>
    </TTGlyph>
    <TTGlyph name="J.sc" xMin="18" yMin="-142" xMax="136" yMax="577">
      <contour>
        <pt x="18" y="-124" on="1"/>
        <pt x="39" y="-85" on="0"/>
        <pt x="66" y="-22" on="0"/>
        <pt x="82" y="39" on="0"/>
        <pt x="88" y="104" on="0"/>
        <pt x="88" y="143" on="1"/>
        <pt x="88" y="577" on="1"/>
        <pt x="136" y="577" on="1"/>
        <pt x="136" y="141" on="1"/>
        <pt x="136" y="103" on="0"/>
        <pt x="127" y="35" on="0"/>
        <pt x="108" y="-31" on="0"/>
        <pt x="76" y="-101" on="0"/>
        <pt x="53" y="-142" on="1"/>
      </contour>
    </TTGlyph>
    <TTGlyph name="Jcircumflex" xMin="-25" yMin="-180" xMax="258" yMax="938">
      <contour>
        <pt x="11" y="-160" on="1"/>
        <pt x="35" y="-110" on="0"/>
        <pt x="67" y="-28" on="0"/>
        <pt x="85" y="50" on="0"/>
        <pt x="93" y="132" on="0"/>
        <pt x="93" y="182" on="1"/>
        <pt x="93" y="740" on="1"/>
        <pt x="142" y="740" on="1"/>
        <pt x="142" y="180" on="1"/>
        <pt x="142" y="132" on="0"/>
        <pt x="132" y="46" on="0"/>
        <pt x="109" y="-39" on="0"/>
        <pt x="73" y="-129" on="0"/>
        <pt x="47" y="-180" on="1"/>
      </contour>
      <contour>
        <pt x="-25" y="866" on="1"/>
        <pt x="116" y="938" on="1"/>
        <pt x="258" y="866" on="1"/>
        <pt x="258" y="817" on="1"/>
        <pt x="116" y="889" on="1"/>
        <pt x="-25" y="817" on="1"/>
      </contour>
    </TTGlyph>
    <TTGlyph name="Jcircumflex.sc" xMin="-13" yMin="-142" xMax="236" yMax="736">
      <contour>
        <pt x="18" y="-124" on="1"/>
        <pt x="38" y="-85" on="0"/>
        <pt x="65" y="-22" on="0"/>
        <pt x="81" y="39" on="0"/>
        <pt x="87" y="104" on="0"/>
        <pt x="87" y="143" on="1"/>
        <pt x="87" y="577" on="1"/>
        <pt x="136" y="577" on="1"/>
        <pt x="136" y="141" on="1"/>
        <pt x="136" y="103" on="0"/>
        <pt x="127" y="35" on="0"/>
        <pt x="108" y="-31" on="0"/>
        <pt x="76" y="-101" on="0"/>
        <pt x="53" y="-142" on="1"/>
      </contour>
      <contour>
        <pt x="-13" y="679" on="1"/>
        <pt x="112" y="736" on="1"/>
        <pt x="236" y="679" on="1"/>
        <pt x="236" y="635" on="1"/>
        <pt x="112" y="692" on="1"/>
        <pt x="-13" y="635" on="1"/>
      </contour>
    </TTGlyph>
    <TTGlyph name="K" xMin="91" yMin="0" xMax="599" yMax="740">
      <contour>
        <pt x="91" y="740" on="1"/>
        <pt x="140" y="740" on="1"/>
        <pt x="140" y="400" on="1"/>
        <pt x="274" y="400" on="1"/>
        <pt x="521" y="740" on="1"/>
        <pt x="581" y="740" on="1"/>
        <pt x="338" y="406" on="1"/>
        <pt x="311" y="382" on="1"/>
        <pt x="311" y="376" on="1"/>
        <pt x="340" y="353" on="1"/>
        <pt x="599" y="0" on="1"/>
        <pt x="541" y="0" on="1"/>
        <pt x="280" y="354" on="1"/>
        <pt x="140" y="354" on="1"/>
        <pt x="140" y="0" on="1"/>
        <pt x="91" y="0" on="1"/>
      </contour>
    </TTGlyph>
    <TTGlyph name="K.sc" xMin="86" yMin="0" xMax="531" yMax="577">
      <contour>
        <pt x="86" y="577" on="1"/>
        <pt x="134" y="577" on="1"/>
        <pt x="134" y="315" on="1"/>
        <pt x="250" y="315" on="1"/>
        <pt x="457" y="577" on="1"/>
        <pt x="515" y="577" on="1"/>
        <pt x="310" y="317" on="1"/>
        <pt x="286" y="298" on="1"/>
        <pt x="286" y="294" on="1"/>
        <pt x="312" y="275" on="1"/>
        <pt x="531" y="0" on="1"/>
        <pt x="474" y="0" on="1"/>
        <pt x="255" y="272" on="1"/>
        <pt x="134" y="272" on="1"/>
        <pt x="134" y="0" on="1"/>
        <pt x="86" y="0" on="1"/>
      </contour>
    </TTGlyph>
    <TTGlyph name="Kcommaaccent" xMin="91" yMin="-220" xMax="599" yMax="740">
      <contour>
        <pt x="296" y="-68" on="1"/>
        <pt x="348" y="-68" on="1"/>
        <pt x="291" y="-220" on="1"/>
        <pt x="246" y="-220" on="1"/>
      </contour>
      <contour>
        <pt x="91" y="740" on="1"/>
        <pt x="140" y="740" on="1"/>
        <pt x="140" y="400" on="1"/>
        <pt x="274" y="400" on="1"/>
        <pt x="521" y="740" on="1"/>
        <pt x="581" y="740" on="1"/>
        <pt x="338" y="406" on="1"/>
        <pt x="311" y="382" on="1"/>
        <pt x="311" y="376" on="1"/>
        <pt x="340" y="353" on="1"/>
        <pt x="599" y="0" on="1"/>
        <pt x="541" y="0" on="1"/>
        <pt x="280" y="354" on="1"/>
        <pt x="140" y="354" on="1"/>
        <pt x="140" y="0" on="1"/>
        <pt x="91" y="0" on="1"/>
      </contour>
    </TTGlyph>
    <TTGlyph name="Kcommaaccent.sc" xMin="86" yMin="-172" xMax="531" yMax="577">
      <contour>
        <pt x="86" y="577" on="1"/>
        <pt x="134" y="577" on="1"/>
        <pt x="134" y="315" on="1"/>
        <pt x="250" y="315" on="1"/>
        <pt x="457" y="577" on="1"/>
        <pt x="515" y="577" on="1"/>
        <pt x="310" y="317" on="1"/>
        <pt x="286" y="298" on="1"/>
        <pt x="286" y="294" on="1"/>
        <pt x="312" y="275" on="1"/>
        <pt x="531" y="0" on="1"/>
        <pt x="474" y="0" on="1"/>
        <pt x="255" y="272" on="1"/>
        <pt x="134" y="272" on="1"/>
        <pt x="134" y="0" on="1"/>
        <pt x="86" y="0" on="1"/>
      </contour>
      <contour>
        <pt x="265" y="-54" on="1"/>
        <pt x="315" y="-54" on="1"/>
        <pt x="265" y="-172" on="1"/>
        <pt x="222" y="-172" on="1"/>
      </contour>
    </TTGlyph>
    <TTGlyph name="L" xMin="91" yMin="0" xMax="457" yMax="740">
      <contour>
        <pt x="91" y="740" on="1"/>
        <pt x="140" y="740" on="1"/>
        <pt x="140" y="45" on="1"/>
        <pt x="457" y="45" on="1"/>
        <pt x="457" y="0" on="1"/>
        <pt x="91" y="0" on="1"/>
      </contour>
    </TTGlyph>
    <TTGlyph name="L.sc" xMin="86" yMin="0" xMax="408" yMax="577">
      <contour>
        <pt x="86" y="577" on="1"/>
        <pt x="134" y="577" on="1"/>
        <pt x="134" y="43" on="1"/>
        <pt x="408" y="43" on="1"/>
        <pt x="408" y="0" on="1"/>
        <pt x="86" y="0" on="1"/>
      </contour>
    </TTGlyph>
    <TTGlyph name="Lacute" xMin="91" yMin="0" xMax="457" yMax="927">
      <contour>
        <pt x="98" y="799" on="1"/>
        <pt x="176" y="927" on="1"/>
        <pt x="229" y="927" on="1"/>
        <pt x="140" y="794" on="1"/>
      </contour>
      <contour>
        <pt x="91" y="740" on="1"/>
        <pt x="140" y="740" on="1"/>
        <pt x="140" y="45" on="1"/>
        <pt x="457" y="45" on="1"/>
        <pt x="457" y="0" on="1"/>
        <pt x="91" y="0" on="1"/>
      </contour>
    </TTGlyph>
    <TTGlyph name="Lacute.sc" xMin="86" yMin="0" xMax="409" yMax="728">
      <contour>
        <pt x="86" y="577" on="1"/>
        <pt x="134" y="577" on="1"/>
        <pt x="134" y="43" on="1"/>
        <pt x="409" y="43" on="1"/>
        <pt x="409" y="0" on="1"/>
        <pt x="86" y="0" on="1"/>
      </contour>
      <contour>
        <pt x="93" y="625" on="1"/>
        <pt x="159" y="728" on="1"/>
        <pt x="210" y="728" on="1"/>
        <pt x="133" y="621" on="1"/>
      </contour>
    </TTGlyph>
    <TTGlyph name="Lcaron" xMin="91" yMin="0" xMax="457" yMax="746">
      <contour>
        <pt x="361" y="746" on="1"/>
        <pt x="406" y="746" on="1"/>
        <pt x="383" y="518" on="1"/>
        <pt x="361" y="518" on="1"/>
      </contour>
      <contour>
        <pt x="91" y="740" on="1"/>
        <pt x="140" y="740" on="1"/>
        <pt x="140" y="45" on="1"/>
        <pt x="457" y="45" on="1"/>
        <pt x="457" y="0" on="1"/>
        <pt x="91" y="0" on="1"/>
      </contour>
    </TTGlyph>
    <TTGlyph name="Lcaron.sc" xMin="86" yMin="0" xMax="408" yMax="585">
      <contour>
        <pt x="86" y="577" on="1"/>
        <pt x="134" y="577" on="1"/>
        <pt x="134" y="43" on="1"/>
        <pt x="408" y="43" on="1"/>
        <pt x="408" y="0" on="1"/>
        <pt x="86" y="0" on="1"/>
      </contour>
      <contour>
        <pt x="323" y="585" on="1"/>
        <pt x="366" y="585" on="1"/>
        <pt x="346" y="408" on="1"/>
        <pt x="323" y="408" on="1"/>
      </contour>
    </TTGlyph>
    <TTGlyph name="Lcommaaccent" xMin="91" yMin="-220" xMax="457" yMax="740">
      <contour>
        <pt x="259" y="-68" on="1"/>
        <pt x="311" y="-68" on="1"/>
        <pt x="254" y="-220" on="1"/>
        <pt x="209" y="-220" on="1"/>
      </contour>
      <contour>
        <pt x="91" y="740" on="1"/>
        <pt x="140" y="740" on="1"/>
        <pt x="140" y="45" on="1"/>
        <pt x="457" y="45" on="1"/>
        <pt x="457" y="0" on="1"/>
        <pt x="91" y="0" on="1"/>
      </contour>
    </TTGlyph>
    <TTGlyph name="Lcommaaccent.sc" xMin="86" yMin="-172" xMax="408" yMax="577">
      <contour>
        <pt x="86" y="577" on="1"/>
        <pt x="134" y="577" on="1"/>
        <pt x="134" y="43" on="1"/>
        <pt x="408" y="43" on="1"/>
        <pt x="408" y="0" on="1"/>
        <pt x="86" y="0" on="1"/>
      </contour>
      <contour>
        <pt x="231" y="-54" on="1"/>
        <pt x="281" y="-54" on="1"/>
        <pt x="231" y="-172" on="1"/>
        <pt x="188" y="-172" on="1"/>
      </contour>
    </TTGlyph>
    <TTGlyph name="Ldot" xMin="91" yMin="0" xMax="457" yMax="740">
      <contour>
        <pt x="91" y="740" on="1"/>
        <pt x="140" y="740" on="1"/>
        <pt x="140" y="45" on="1"/>
        <pt x="457" y="45" on="1"/>
        <pt x="457" y="0" on="1"/>
        <pt x="91" y="0" on="1"/>
      </contour>
      <contour>
        <pt x="374" y="333" on="1"/>
        <pt x="357" y="333" on="0"/>
        <pt x="336" y="351" on="0"/>
        <pt x="336" y="371" on="1"/>
        <pt x="336" y="391" on="0"/>
        <pt x="357" y="409" on="0"/>
        <pt x="374" y="409" on="1"/>
        <pt x="391" y="409" on="0"/>
        <pt x="413" y="391" on="0"/>
        <pt x="413" y="371" on="1"/>
        <pt x="413" y="351" on="0"/>
        <pt x="391" y="333" on="0"/>
      </contour>
    </TTGlyph>
    <TTGlyph name="Ldot.sc" xMin="86" yMin="0" xMax="408" yMax="577">
      <contour>
        <pt x="86" y="577" on="1"/>
        <pt x="134" y="577" on="1"/>
        <pt x="134" y="43" on="1"/>
        <pt x="408" y="43" on="1"/>
        <pt x="408" y="0" on="1"/>
        <pt x="86" y="0" on="1"/>
      </contour>
      <contour>
        <pt x="338" y="257" on="1"/>
        <pt x="303" y="257" on="0"/>
        <pt x="303" y="291" on="1"/>
        <pt x="303" y="325" on="0"/>
        <pt x="338" y="325" on="1"/>
        <pt x="354" y="325" on="0"/>
        <pt x="374" y="309" on="0"/>
        <pt x="374" y="291" on="1"/>
        <pt x="374" y="273" on="0"/>
        <pt x="354" y="257" on="0"/>
      </contour>
    </TTGlyph>
    <TTGlyph name="Lslash" xMin="15" yMin="0" xMax="480" yMax="740">
      <contour>
        <pt x="15" y="275" on="1"/>
        <pt x="114" y="348" on="1"/>
        <pt x="114" y="740" on="1"/>
        <pt x="163" y="740" on="1"/>
        <pt x="163" y="385" on="1"/>
        <pt x="308" y="493" on="1"/>
        <pt x="308" y="441" on="1"/>
        <pt x="163" y="333" on="1"/>
        <pt x="163" y="45" on="1"/>
        <pt x="480" y="45" on="1"/>
        <pt x="480" y="0" on="1"/>
        <pt x="114" y="0" on="1"/>
        <pt x="114" y="296" on="1"/>
        <pt x="15" y="223" on="1"/>
      </contour>
    </TTGlyph>
    <TTGlyph name="Lslash.sc" xMin="22" yMin="0" xMax="429" yMax="577">
      <contour>
        <pt x="22" y="221" on="1"/>
        <pt x="106" y="278" on="1"/>
        <pt x="106" y="577" on="1"/>
        <pt x="154" y="577" on="1"/>
        <pt x="154" y="306" on="1"/>
        <pt x="281" y="389" on="1"/>
        <pt x="281" y="343" on="1"/>
        <pt x="154" y="260" on="1"/>
        <pt x="154" y="43" on="1"/>
        <pt x="429" y="43" on="1"/>
        <pt x="429" y="0" on="1"/>
        <pt x="106" y="0" on="1"/>
        <pt x="106" y="231" on="1"/>
        <pt x="22" y="174" on="1"/>
      </contour>
    </TTGlyph>
    <TTGlyph name="M" xMin="91" yMin="0" xMax="766" yMax="740">
      <contour>
        <pt x="91" y="740" on="1"/>
        <pt x="157" y="740" on="1"/>
        <pt x="370" y="223" on="1"/>
        <pt x="425" y="85" on="1"/>
        <pt x="430" y="85" on="1"/>
        <pt x="486" y="223" on="1"/>
        <pt x="699" y="740" on="1"/>
        <pt x="766" y="740" on="1"/>
        <pt x="766" y="0" on="1"/>
        <pt x="718" y="0" on="1"/>
        <pt x="718" y="657" on="1"/>
        <pt x="713" y="658" on="1"/>
        <pt x="642" y="484" on="1"/>
        <pt x="454" y="29" on="1"/>
        <pt x="402" y="29" on="1"/>
        <pt x="214" y="484" on="1"/>
        <pt x="142" y="658" on="1"/>
        <pt x="138" y="657" on="1"/>
        <pt x="138" y="0" on="1"/>
        <pt x="91" y="0" on="1"/>
      </contour>
    </TTGlyph>
    <TTGlyph name="M.sc" xMin="86" yMin="0" xMax="675" yMax="577">
      <contour>
        <pt x="86" y="577" on="1"/>
        <pt x="150" y="577" on="1"/>
        <pt x="330" y="188" on="1"/>
        <pt x="378" y="78" on="1"/>
        <pt x="383" y="78" on="1"/>
        <pt x="431" y="188" on="1"/>
        <pt x="611" y="577" on="1"/>
        <pt x="675" y="577" on="1"/>
        <pt x="675" y="0" on="1"/>
        <pt x="629" y="0" on="1"/>
        <pt x="629" y="505" on="1"/>
        <pt x="625" y="506" on="1"/>
        <pt x="561" y="363" on="1"/>
        <pt x="406" y="24" on="1"/>
        <pt x="355" y="24" on="1"/>
        <pt x="200" y="363" on="1"/>
        <pt x="136" y="506" on="1"/>
        <pt x="132" y="505" on="1"/>
        <pt x="132" y="0" on="1"/>
        <pt x="86" y="0" on="1"/>
      </contour>
    </TTGlyph>
    <TTGlyph name="N" xMin="91" yMin="0" xMax="634" yMax="740">
      <contour>
        <pt x="91" y="740" on="1"/>
        <pt x="139" y="740" on="1"/>
        <pt x="527" y="169" on="1"/>
        <pt x="582" y="81" on="1"/>
        <pt x="587" y="82" on="1"/>
        <pt x="587" y="740" on="1"/>
        <pt x="634" y="740" on="1"/>
        <pt x="634" y="0" on="1"/>
        <pt x="585" y="0" on="1"/>
        <pt x="196" y="571" on="1"/>
        <pt x="142" y="657" on="1"/>
        <pt x="138" y="657" on="1"/>
        <pt x="138" y="0" on="1"/>
        <pt x="91" y="0" on="1"/>
      </contour>
    </TTGlyph>
    <TTGlyph name="N.sc" xMin="86" yMin="0" xMax="558" yMax="577">
      <contour>
        <pt x="86" y="577" on="1"/>
        <pt x="131" y="577" on="1"/>
        <pt x="460" y="146" on="1"/>
        <pt x="508" y="77" on="1"/>
        <pt x="512" y="77" on="1"/>
        <pt x="512" y="577" on="1"/>
        <pt x="558" y="577" on="1"/>
        <pt x="558" y="0" on="1"/>
        <pt x="513" y="0" on="1"/>
        <pt x="183" y="432" on="1"/>
        <pt x="136" y="500" on="1"/>
        <pt x="131" y="500" on="1"/>
        <pt x="131" y="0" on="1"/>
        <pt x="86" y="0" on="1"/>
      </contour>
    </TTGlyph>
    <TTGlyph name="Nacute" xMin="91" yMin="0" xMax="634" yMax="927">
      <contour>
        <pt x="337" y="799" on="1"/>
        <pt x="415" y="927" on="1"/>
        <pt x="468" y="927" on="1"/>
        <pt x="379" y="794" on="1"/>
      </contour>
      <contour>
        <pt x="91" y="740" on="1"/>
        <pt x="139" y="740" on="1"/>
        <pt x="527" y="169" on="1"/>
        <pt x="582" y="81" on="1"/>
        <pt x="587" y="82" on="1"/>
        <pt x="587" y="740" on="1"/>
        <pt x="634" y="740" on="1"/>
        <pt x="634" y="0" on="1"/>
        <pt x="585" y="0" on="1"/>
        <pt x="196" y="571" on="1"/>
        <pt x="142" y="657" on="1"/>
        <pt x="138" y="657" on="1"/>
        <pt x="138" y="0" on="1"/>
        <pt x="91" y="0" on="1"/>
      </contour>
    </TTGlyph>
    <TTGlyph name="Nacute.sc" xMin="86" yMin="0" xMax="558" yMax="728">
      <contour>
        <pt x="86" y="577" on="1"/>
        <pt x="131" y="577" on="1"/>
        <pt x="460" y="146" on="1"/>
        <pt x="508" y="77" on="1"/>
        <pt x="512" y="77" on="1"/>
        <pt x="512" y="577" on="1"/>
        <pt x="558" y="577" on="1"/>
        <pt x="558" y="0" on="1"/>
        <pt x="513" y="0" on="1"/>
        <pt x="183" y="432" on="1"/>
        <pt x="136" y="500" on="1"/>
        <pt x="131" y="500" on="1"/>
        <pt x="131" y="0" on="1"/>
        <pt x="86" y="0" on="1"/>
      </contour>
      <contour>
        <pt x="297" y="625" on="1"/>
        <pt x="363" y="728" on="1"/>
        <pt x="414" y="728" on="1"/>
        <pt x="337" y="621" on="1"/>
      </contour>
    </TTGlyph>
    <TTGlyph name="Ncaron" xMin="91" yMin="0" xMax="634" yMax="929">
      <contour>
        <pt x="225" y="929" on="1"/>
        <pt x="366" y="857" on="1"/>
        <pt x="508" y="929" on="1"/>
        <pt x="508" y="880" on="1"/>
        <pt x="366" y="807" on="1"/>
        <pt x="225" y="880" on="1"/>
      </contour>
      <contour>
        <pt x="91" y="740" on="1"/>
        <pt x="139" y="740" on="1"/>
        <pt x="527" y="169" on="1"/>
        <pt x="582" y="81" on="1"/>
        <pt x="587" y="82" on="1"/>
        <pt x="587" y="740" on="1"/>
        <pt x="634" y="740" on="1"/>
        <pt x="634" y="0" on="1"/>
        <pt x="585" y="0" on="1"/>
        <pt x="196" y="571" on="1"/>
        <pt x="142" y="657" on="1"/>
        <pt x="138" y="657" on="1"/>
        <pt x="138" y="0" on="1"/>
        <pt x="91" y="0" on="1"/>
      </contour>
    </TTGlyph>
    <TTGlyph name="Ncaron.sc" xMin="86" yMin="0" xMax="558" yMax="730">
      <contour>
        <pt x="86" y="577" on="1"/>
        <pt x="131" y="577" on="1"/>
        <pt x="460" y="146" on="1"/>
        <pt x="508" y="77" on="1"/>
        <pt x="512" y="77" on="1"/>
        <pt x="512" y="577" on="1"/>
        <pt x="558" y="577" on="1"/>
        <pt x="558" y="0" on="1"/>
        <pt x="513" y="0" on="1"/>
        <pt x="183" y="432" on="1"/>
        <pt x="136" y="500" on="1"/>
        <pt x="131" y="500" on="1"/>
        <pt x="131" y="0" on="1"/>
        <pt x="86" y="0" on="1"/>
      </contour>
      <contour>
        <pt x="201" y="687" on="1"/>
        <pt x="201" y="730" on="1"/>
        <pt x="325" y="673" on="1"/>
        <pt x="450" y="730" on="1"/>
        <pt x="450" y="687" on="1"/>
        <pt x="325" y="630" on="1"/>
      </contour>
    </TTGlyph>
    <TTGlyph name="Ncommaaccent" xMin="91" yMin="-220" xMax="634" yMax="740">
      <contour>
        <pt x="360" y="-68" on="1"/>
        <pt x="412" y="-68" on="1"/>
        <pt x="355" y="-220" on="1"/>
        <pt x="310" y="-220" on="1"/>
      </contour>
      <contour>
        <pt x="91" y="740" on="1"/>
        <pt x="139" y="740" on="1"/>
        <pt x="527" y="169" on="1"/>
        <pt x="582" y="81" on="1"/>
        <pt x="587" y="82" on="1"/>
        <pt x="587" y="740" on="1"/>
        <pt x="634" y="740" on="1"/>
        <pt x="634" y="0" on="1"/>
        <pt x="585" y="0" on="1"/>
        <pt x="196" y="571" on="1"/>
        <pt x="142" y="657" on="1"/>
        <pt x="138" y="657" on="1"/>
        <pt x="138" y="0" on="1"/>
        <pt x="91" y="0" on="1"/>
      </contour>
    </TTGlyph>
    <TTGlyph name="Ncommaaccent.sc" xMin="86" yMin="-172" xMax="558" yMax="577">
      <contour>
        <pt x="86" y="577" on="1"/>
        <pt x="131" y="577" on="1"/>
        <pt x="460" y="146" on="1"/>
        <pt x="508" y="77" on="1"/>
        <pt x="512" y="77" on="1"/>
        <pt x="512" y="577" on="1"/>
        <pt x="558" y="577" on="1"/>
        <pt x="558" y="0" on="1"/>
        <pt x="513" y="0" on="1"/>
        <pt x="183" y="432" on="1"/>
        <pt x="136" y="500" on="1"/>
        <pt x="131" y="500" on="1"/>
        <pt x="131" y="0" on="1"/>
        <pt x="86" y="0" on="1"/>
      </contour>
      <contour>
        <pt x="316" y="-54" on="1"/>
        <pt x="367" y="-54" on="1"/>
        <pt x="316" y="-172" on="1"/>
        <pt x="273" y="-172" on="1"/>
      </contour>
    </TTGlyph>
    <TTGlyph name="Ndotaccent" xMin="91" yMin="0" xMax="634" yMax="888">
      <contour>
        <pt x="364" y="812" on="1"/>
        <pt x="347" y="812" on="0"/>
        <pt x="326" y="830" on="0"/>
        <pt x="326" y="850" on="1"/>
        <pt x="326" y="870" on="0"/>
        <pt x="347" y="888" on="0"/>
        <pt x="364" y="888" on="1"/>
        <pt x="381" y="888" on="0"/>
        <pt x="403" y="870" on="0"/>
        <pt x="403" y="850" on="1"/>
        <pt x="403" y="830" on="0"/>
        <pt x="381" y="812" on="0"/>
      </contour>
      <contour>
        <pt x="91" y="740" on="1"/>
        <pt x="139" y="740" on="1"/>
        <pt x="527" y="169" on="1"/>
        <pt x="582" y="81" on="1"/>
        <pt x="587" y="82" on="1"/>
        <pt x="587" y="740" on="1"/>
        <pt x="634" y="740" on="1"/>
        <pt x="634" y="0" on="1"/>
        <pt x="585" y="0" on="1"/>
        <pt x="196" y="571" on="1"/>
        <pt x="142" y="657" on="1"/>
        <pt x="138" y="657" on="1"/>
        <pt x="138" y="0" on="1"/>
        <pt x="91" y="0" on="1"/>
      </contour>
    </TTGlyph>
    <TTGlyph name="Ndotaccent.sc" xMin="86" yMin="0" xMax="558" yMax="701">
      <contour>
        <pt x="86" y="577" on="1"/>
        <pt x="131" y="577" on="1"/>
        <pt x="460" y="146" on="1"/>
        <pt x="508" y="77" on="1"/>
        <pt x="512" y="77" on="1"/>
        <pt x="512" y="577" on="1"/>
        <pt x="558" y="577" on="1"/>
        <pt x="558" y="0" on="1"/>
        <pt x="513" y="0" on="1"/>
        <pt x="183" y="432" on="1"/>
        <pt x="136" y="500" on="1"/>
        <pt x="131" y="500" on="1"/>
        <pt x="131" y="0" on="1"/>
        <pt x="86" y="0" on="1"/>
      </contour>
      <contour>
        <pt x="323" y="633" on="1"/>
        <pt x="307" y="633" on="0"/>
        <pt x="288" y="649" on="0"/>
        <pt x="288" y="668" on="1"/>
        <pt x="288" y="685" on="0"/>
        <pt x="307" y="701" on="0"/>
        <pt x="323" y="701" on="1"/>
        <pt x="340" y="701" on="0"/>
        <pt x="360" y="685" on="0"/>
        <pt x="360" y="668" on="1"/>
        <pt x="360" y="650" on="0"/>
        <pt x="340" y="633" on="0"/>
      </contour>
    </TTGlyph>
    <TTGlyph name="Ntilde" xMin="91" yMin="0" xMax="634" yMax="913">
      <contour>
        <pt x="197" y="858" on="1"/>
        <pt x="219" y="883" on="0"/>
        <pt x="273" y="913" on="0"/>
        <pt x="301" y="913" on="1"/>
        <pt x="323" y="913" on="0"/>
        <pt x="359" y="900" on="0"/>
        <pt x="393" y="884" on="0"/>
        <pt x="426" y="871" on="0"/>
        <pt x="446" y="871" on="1"/>
        <pt x="487" y="871" on="0"/>
        <pt x="521" y="910" on="1"/>
        <pt x="547" y="887" on="1"/>
        <pt x="527" y="861" on="0"/>
        <pt x="470" y="829" on="0"/>
        <pt x="441" y="829" on="1"/>
        <pt x="421" y="829" on="0"/>
        <pt x="385" y="842" on="0"/>
        <pt x="351" y="858" on="0"/>
        <pt x="316" y="871" on="0"/>
        <pt x="298" y="871" on="1"/>
        <pt x="278" y="871" on="0"/>
        <pt x="238" y="851" on="0"/>
        <pt x="221" y="834" on="1"/>
      </contour>
      <contour>
        <pt x="91" y="740" on="1"/>
        <pt x="139" y="740" on="1"/>
        <pt x="527" y="169" on="1"/>
        <pt x="582" y="81" on="1"/>
        <pt x="587" y="82" on="1"/>
        <pt x="587" y="740" on="1"/>
        <pt x="634" y="740" on="1"/>
        <pt x="634" y="0" on="1"/>
        <pt x="585" y="0" on="1"/>
        <pt x="196" y="571" on="1"/>
        <pt x="142" y="657" on="1"/>
        <pt x="138" y="657" on="1"/>
        <pt x="138" y="0" on="1"/>
        <pt x="91" y="0" on="1"/>
      </contour>
    </TTGlyph>
    <TTGlyph name="Ntilde.sc" xMin="86" yMin="0" xMax="558" yMax="718">
      <contour>
        <pt x="176" y="669" on="1"/>
        <pt x="196" y="692" on="0"/>
        <pt x="244" y="718" on="0"/>
        <pt x="269" y="718" on="1"/>
        <pt x="288" y="718" on="0"/>
        <pt x="319" y="708" on="0"/>
        <pt x="349" y="695" on="0"/>
        <pt x="379" y="685" on="0"/>
        <pt x="396" y="685" on="1"/>
        <pt x="430" y="685" on="0"/>
        <pt x="463" y="715" on="1"/>
        <pt x="484" y="697" on="1"/>
        <pt x="467" y="674" on="0"/>
        <pt x="416" y="647" on="0"/>
        <pt x="390" y="647" on="1"/>
        <pt x="372" y="647" on="0"/>
        <pt x="340" y="657" on="0"/>
        <pt x="310" y="670" on="0"/>
        <pt x="280" y="680" on="0"/>
        <pt x="264" y="680" on="1"/>
        <pt x="229" y="680" on="0"/>
        <pt x="196" y="650" on="1"/>
      </contour>
      <contour>
        <pt x="86" y="577" on="1"/>
        <pt x="131" y="577" on="1"/>
        <pt x="460" y="146" on="1"/>
        <pt x="508" y="77" on="1"/>
        <pt x="512" y="77" on="1"/>
        <pt x="512" y="577" on="1"/>
        <pt x="558" y="577" on="1"/>
        <pt x="558" y="0" on="1"/>
        <pt x="513" y="0" on="1"/>
        <pt x="183" y="432" on="1"/>
        <pt x="136" y="500" on="1"/>
        <pt x="131" y="500" on="1"/>
        <pt x="131" y="0" on="1"/>
        <pt x="86" y="0" on="1"/>
      </contour>
    </TTGlyph>
    <TTGlyph name="O" xMin="54" yMin="-10" xMax="628" yMax="750">
      <contour>
        <pt x="341" y="-10" on="1"/>
        <pt x="201" y="-10" on="0"/>
        <pt x="54" y="180" on="0"/>
        <pt x="54" y="369" on="1"/>
        <pt x="54" y="559" on="0"/>
        <pt x="201" y="750" on="0"/>
        <pt x="341" y="750" on="1"/>
        <pt x="481" y="750" on="0"/>
        <pt x="628" y="558" on="0"/>
        <pt x="628" y="369" on="1"/>
        <pt x="628" y="180" on="0"/>
        <pt x="481" y="-10" on="0"/>
      </contour>
      <contour>
        <pt x="341" y="36" on="1"/>
        <pt x="578" y="36" on="0"/>
        <pt x="578" y="369" on="1"/>
        <pt x="578" y="537" on="0"/>
        <pt x="459" y="704" on="0"/>
        <pt x="341" y="704" on="1"/>
        <pt x="104" y="704" on="0"/>
        <pt x="104" y="369" on="1"/>
        <pt x="104" y="36" on="0"/>
      </contour>
    </TTGlyph>
    <TTGlyph name="O.sc" xMin="53" yMin="-8" xMax="555" yMax="585">
      <contour>
        <pt x="305" y="-8" on="1"/>
        <pt x="182" y="-8" on="0"/>
        <pt x="53" y="141" on="0"/>
        <pt x="53" y="288" on="1"/>
        <pt x="53" y="436" on="0"/>
        <pt x="182" y="585" on="0"/>
        <pt x="305" y="585" on="1"/>
        <pt x="426" y="585" on="0"/>
        <pt x="555" y="436" on="0"/>
        <pt x="555" y="288" on="1"/>
        <pt x="555" y="141" on="0"/>
        <pt x="426" y="-8" on="0"/>
      </contour>
      <contour>
        <pt x="305" y="35" on="1"/>
        <pt x="507" y="35" on="0"/>
        <pt x="507" y="288" on="1"/>
        <pt x="507" y="542" on="0"/>
        <pt x="305" y="542" on="1"/>
        <pt x="102" y="542" on="0"/>
        <pt x="102" y="288" on="1"/>
        <pt x="102" y="35" on="0"/>
      </contour>
    </TTGlyph>
    <TTGlyph name="OE" xMin="54" yMin="-6" xMax="825" yMax="746">
      <contour>
        <pt x="344" y="-6" on="1"/>
        <pt x="203" y="-6" on="0"/>
        <pt x="54" y="182" on="0"/>
        <pt x="54" y="369" on="1"/>
        <pt x="54" y="557" on="0"/>
        <pt x="203" y="746" on="0"/>
        <pt x="344" y="746" on="1"/>
        <pt x="367" y="746" on="0"/>
        <pt x="416" y="744" on="0"/>
        <pt x="436" y="740" on="1"/>
        <pt x="816" y="740" on="1"/>
        <pt x="816" y="695" on="1"/>
        <pt x="484" y="695" on="1"/>
        <pt x="484" y="399" on="1"/>
        <pt x="791" y="399" on="1"/>
        <pt x="791" y="354" on="1"/>
        <pt x="484" y="354" on="1"/>
        <pt x="484" y="45" on="1"/>
        <pt x="825" y="45" on="1"/>
        <pt x="825" y="0" on="1"/>
        <pt x="436" y="0" on="1"/>
        <pt x="418" y="-3" on="0"/>
        <pt x="367" y="-6" on="0"/>
      </contour>
      <contour>
        <pt x="345" y="39" on="1"/>
        <pt x="367" y="39" on="0"/>
        <pt x="415" y="42" on="0"/>
        <pt x="435" y="47" on="1"/>
        <pt x="435" y="693" on="1"/>
        <pt x="415" y="698" on="0"/>
        <pt x="368" y="701" on="0"/>
        <pt x="345" y="701" on="1"/>
        <pt x="103" y="701" on="0"/>
        <pt x="103" y="369" on="1"/>
        <pt x="103" y="39" on="0"/>
      </contour>
    </TTGlyph>
    <TTGlyph name="OE.sc" xMin="53" yMin="-5" xMax="730" yMax="582">
      <contour>
        <pt x="307" y="-5" on="1"/>
        <pt x="184" y="-5" on="0"/>
        <pt x="53" y="142" on="0"/>
        <pt x="53" y="288" on="1"/>
        <pt x="53" y="434" on="0"/>
        <pt x="184" y="582" on="0"/>
        <pt x="307" y="582" on="1"/>
        <pt x="328" y="582" on="0"/>
        <pt x="371" y="580" on="0"/>
        <pt x="388" y="577" on="1"/>
        <pt x="723" y="577" on="1"/>
        <pt x="723" y="535" on="1"/>
        <pt x="435" y="535" on="1"/>
        <pt x="435" y="314" on="1"/>
        <pt x="702" y="314" on="1"/>
        <pt x="702" y="273" on="1"/>
        <pt x="435" y="273" on="1"/>
        <pt x="435" y="43" on="1"/>
        <pt x="730" y="43" on="1"/>
        <pt x="730" y="0" on="1"/>
        <pt x="388" y="0" on="1"/>
        <pt x="371" y="-2" on="0"/>
        <pt x="327" y="-5" on="0"/>
      </contour>
      <contour>
        <pt x="309" y="38" on="1"/>
        <pt x="329" y="38" on="0"/>
        <pt x="370" y="40" on="0"/>
        <pt x="387" y="44" on="1"/>
        <pt x="387" y="533" on="1"/>
        <pt x="370" y="537" on="0"/>
        <pt x="329" y="539" on="0"/>
        <pt x="308" y="539" on="1"/>
        <pt x="102" y="539" on="0"/>
        <pt x="102" y="288" on="1"/>
        <pt x="102" y="38" on="0"/>
      </contour>
    </TTGlyph>
    <TTGlyph name="Oacute" xMin="54" yMin="-10" xMax="628" yMax="927">
      <contour>
        <pt x="315" y="799" on="1"/>
        <pt x="393" y="927" on="1"/>
        <pt x="446" y="927" on="1"/>
        <pt x="357" y="794" on="1"/>
      </contour>
      <contour>
        <pt x="341" y="-10" on="1"/>
        <pt x="201" y="-10" on="0"/>
        <pt x="54" y="180" on="0"/>
        <pt x="54" y="369" on="1"/>
        <pt x="54" y="559" on="0"/>
        <pt x="201" y="750" on="0"/>
        <pt x="341" y="750" on="1"/>
        <pt x="481" y="750" on="0"/>
        <pt x="628" y="558" on="0"/>
        <pt x="628" y="369" on="1"/>
        <pt x="628" y="180" on="0"/>
        <pt x="481" y="-10" on="0"/>
      </contour>
      <contour>
        <pt x="341" y="36" on="1"/>
        <pt x="578" y="36" on="0"/>
        <pt x="578" y="369" on="1"/>
        <pt x="578" y="537" on="0"/>
        <pt x="459" y="704" on="0"/>
        <pt x="341" y="704" on="1"/>
        <pt x="104" y="704" on="0"/>
        <pt x="104" y="369" on="1"/>
        <pt x="104" y="36" on="0"/>
      </contour>
    </TTGlyph>
    <TTGlyph name="Oacute.sc" xMin="53" yMin="-8" xMax="555" yMax="728">
      <contour>
        <pt x="305" y="-8" on="1"/>
        <pt x="182" y="-8" on="0"/>
        <pt x="53" y="141" on="0"/>
        <pt x="53" y="288" on="1"/>
        <pt x="53" y="436" on="0"/>
        <pt x="182" y="585" on="0"/>
        <pt x="305" y="585" on="1"/>
        <pt x="426" y="585" on="0"/>
        <pt x="555" y="436" on="0"/>
        <pt x="555" y="288" on="1"/>
        <pt x="555" y="141" on="0"/>
        <pt x="426" y="-8" on="0"/>
      </contour>
      <contour>
        <pt x="305" y="35" on="1"/>
        <pt x="507" y="35" on="0"/>
        <pt x="507" y="288" on="1"/>
        <pt x="507" y="542" on="0"/>
        <pt x="305" y="542" on="1"/>
        <pt x="102" y="542" on="0"/>
        <pt x="102" y="288" on="1"/>
        <pt x="102" y="35" on="0"/>
      </contour>
      <contour>
        <pt x="280" y="625" on="1"/>
        <pt x="346" y="728" on="1"/>
        <pt x="397" y="728" on="1"/>
        <pt x="320" y="621" on="1"/>
      </contour>
    </TTGlyph>
</ttFont>
